<?xml version="1.0" encoding="utf-8"?>
<svg class="svgviewbox" height="100%" id="Laag_1" version="1.1" viewBox="0 0 1465 3036" width="100%" xmlns="http://www.w3.org/2000/svg" xmlns:xlink="http://www.w3.org/1999/xlink">
<g class="device">
<path d="M221.365-5H1244.431C1366.688-5,1465.8,89.109,1465.8,211.365V2809.8c0,122.256-99.109,221.365-221.365,221.365H221.365C99.109,3031.164,0,2932.055,0,2809.8V211.365C0,89.109,99.109-5,221.365-5Z" data-name="Path 1440" fill="#fff" id="Path_1440" transform="translate(588.218 173.036)"/>
<path d="M202.391,0H1211.184c111.778,0,202.391,90.614,202.391,202.391V2786.039c0,111.778-90.614,202.391-202.391,202.391H202.391C90.614,2988.43,0,2897.816,0,2786.039V202.391C0,90.614,90.614,0,202.391,0Z" data-name="NoPath - Copy (6)" fill="#ffffff" id="NoPath_-_Copy_6_" transform="translate(602.844 184.767)"/>
<g data-name="Group 1394" id="Group_1394" transform="translate(-980.748 -279.09)">
<g data-name="Group 1391" id="Group_1391" transform="translate(1620 482)">
<g data-name="Group 2" id="Group_2" transform="translate(0 0)">
<g data-name="Group 1534" id="Group_1534" transform="translate(3.033 1.898)">
<rect data-name="Rectangle 95" fill="#fff" height="100%" id="Rectangle_95" transform="translate(0 83.945)" width="100%"/>
<path class="tabbarColor" d="               M0,150               A150,150 0 0 1 150,0               H1176               A150,150 0 0 1 1376,150               V330               H0               Z" data-name="Path 1508" fill="#12264f" id="Path_1508"/>
<path d="M80.035,38.377H23.8L49.718,12.456l-6.712-6.48L5.977,43.006,43.006,80.035l6.479-6.48L23.8,47.634H80.035Z" data-name="Icon ionic-md-arrow-back" fill="#ffffff" id="Icon_ionic-md-arrow-back" transform="translate(55.919 191.365)"/>
<path d="M35.827,3A28.307,28.307,0,0,0,7.5,31.328c0,21.246,28.327,52.608,28.327,52.608S64.155,52.573,64.155,31.328A28.307,28.307,0,0,0,35.827,3Zm0,38.444A10.117,10.117,0,1,1,45.944,31.328,10.121,10.121,0,0,1,35.827,41.444Z" data-name="Icon material-location-on" fill="#fff" id="Icon_material-location-on" transform="translate(1228.943 190.817)"/>
<g data-name="Group 34" id="Group_34" transform="translate(460.906 160.762)">
<text data-name="Alle roosters" fill="#fff" font-family="Arial-BoldMT, Arial" font-size="54" font-weight="700" id="Alle_roosters" transform="translate(207.348 53)">
<tspan x="-165.059" y="0">Alle roosters</tspan>
</text>
<text data-name="- Wijzig roosterkeuze -" fill="#fff" font-family="ArialMT, Arial" font-size="42" id="_-_Wijzig_roosterkeuze_-" transform="translate(211 116.818)">
<tspan x="-208.882" y="0">- Wijzig roosterkeuze -</tspan>
</text>
</g>
<g data-name="Rectangle 104" fill="#fff" id="Rectangle_104" opacity="0" stroke="#b24343" stroke-width="1" transform="translate(22.174 179.769)">
<rect height="109.287" stroke="none" width="117.206"/>
<rect fill="none" height="108.287" width="116.206" x="0.5" y="0.5"/>
</g>
<path class="divider" d="M0,0H1372.761V120.8H0Z" data-name="Path 125" fill="#000000" id="Path_125" transform="translate(0 944.46)"/>
<text data-name="Woensdag, 28 aug. {year}" fill="#fff" font-family="Arial-BoldMT, Arial" font-size="49" font-weight="700" id="Woensdag_28_aug._{year}" transform="translate(677.222 1022.079)">
<tspan class="year" x="-282.767" y="0">Woensdag, 28 aug. 2025</tspan>
</text>
<path d="M0,0H688.211V172.053H0Z" data-name="Path 83" fill="#e0e0e0" id="Path_83" transform="translate(0 329.463)"/>
<g data-name="Group 5" id="Group_5" transform="translate(180.747 385.795)">
<text fill="#041019" font-family="Arial-BoldMT, Arial" font-size="49" font-weight="700" id="Kalender" transform="translate(212.075 50.239)">
<tspan x="-104.843" y="0">Kalender</tspan>
</text>
<g data-name="Icon ionic-ios-calendar" id="Icon_ionic-ios-calendar" transform="translate(0)">
<path d="M66.5,6.75H59.787v4.029a1.347,1.347,0,0,1-1.343,1.343H55.758a1.347,1.347,0,0,1-1.343-1.343V6.75H22.179v4.029a1.347,1.347,0,0,1-1.343,1.343H18.15a1.347,1.347,0,0,1-1.343-1.343V6.75H10.091a6.735,6.735,0,0,0-6.716,6.716V59.133a6.735,6.735,0,0,0,6.716,6.716H66.5a6.735,6.735,0,0,0,6.716-6.716V13.466A6.735,6.735,0,0,0,66.5,6.75Zm1.343,50.368a3.368,3.368,0,0,1-3.358,3.358H12.105a3.368,3.368,0,0,1-3.358-3.358V26.9a1.347,1.347,0,0,1,1.343-1.343H66.5A1.347,1.347,0,0,1,67.846,26.9Z" data-name="Path 16" fill="#1c1c1a" id="Path_16" transform="translate(-3.375 -1.377)"/>
<path d="M14.373,5.843A1.347,1.347,0,0,0,13.029,4.5H10.343A1.347,1.347,0,0,0,9,5.843V9.873h5.373Z" data-name="Path 17" fill="#1c1c1a" id="Path_17" transform="translate(4.431 -4.5)"/>
<path d="M30.123,5.843A1.347,1.347,0,0,0,28.779,4.5H26.093A1.347,1.347,0,0,0,24.75,5.843V9.873h5.373Z" data-name="Path 18" fill="#1c1c1a" id="Path_18" transform="translate(26.29 -4.5)"/>
</g>
</g>
<rect data-name="Rectangle 9" fill="#ccc" height="171.85" id="Rectangle_9" transform="translate(688.191 329.444)" width="688.191"/>
<g data-name="Group 8" id="Group_8" transform="translate(825.975 388.048)">
<text fill="#041019" font-family="Arial-BoldMT, Arial" font-size="49" font-weight="700" id="Lijstweergave" transform="translate(240.413 48)">
<tspan x="-162.049" y="0">Lijstweergave</tspan>
</text>
<g data-name="Icon ionic-ios-list" id="Icon_ionic-ios-list" transform="translate(0 11.202)">
<path d="M11.832,19.7a3.666,3.666,0,1,1-3.666-3.666A3.666,3.666,0,0,1,11.832,19.7Z" data-name="Path 10" fill="#1c1c1a" id="Path_10" transform="translate(-4.5 0.203)"/>
<path d="M11.832,10.978A3.666,3.666,0,1,1,8.166,7.313,3.666,3.666,0,0,1,11.832,10.978Z" data-name="Path 11" fill="#1c1c1a" id="Path_11" transform="translate(-4.5 -7.313)"/>
<path d="M11.832,28.416A3.666,3.666,0,1,1,8.166,24.75,3.666,3.666,0,0,1,11.832,28.416Z" data-name="Path 12" fill="#1c1c1a" id="Path_12" transform="translate(-4.5 7.719)"/>
<path d="M45.921,16.875H14.435a2.095,2.095,0,1,0,0,4.189H45.921a2.095,2.095,0,1,0,0-4.189Z" data-name="Path 13" fill="#041019" id="Path_13" transform="translate(2.258 0.93)"/>
<path d="M45.921,25.594H14.435a2.095,2.095,0,1,0,0,4.189H45.921a2.095,2.095,0,1,0,0-4.189Z" data-name="Path 14" fill="#1c1c1a" id="Path_14" transform="translate(2.258 8.446)"/>
<path d="M14.435,12.346H45.921a2.095,2.095,0,1,0,0-4.189H14.435a2.095,2.095,0,1,0,0,4.189Z" data-name="Path 15" fill="#1c1c1a" id="Path_15" transform="translate(2.258 -6.585)"/>
</g>
</g>
<g data-name="Group 6" id="Group_6" transform="translate(0 501.294)">
<rect data-name="Rectangle 99" fill="#041019" height="175.809" id="Rectangle_99" transform="translate(0 0)" width="1372.422"/>
<path class="tabbarColor" d="M0,0H1376.381V177.809H0Z" data-name="Path 1507" fill="#12264f" id="Path_1507" opacity="0.998" transform="translate(0 -1)"/>
<text data-name="Week 36, Augustus {year}" fill="#fff" font-family="Arial-BoldMT, Arial" font-size="49" font-weight="700" id="Week_36_Augustus_{year}" transform="translate(675.007 106.603)">
<tspan class="year" x="-284.597" y="0">Week 36, Augustus 2025</tspan>
</text>
<path d="M21.811,9.941V40.714A2.392,2.392,0,0,1,17.728,42.4L2.341,27.018a2.392,2.392,0,0,1,0-3.382L17.728,8.25a2.392,2.392,0,0,1,4.083,1.691Z" data-name="Icon awesome-caret-left" fill="#fff" id="Icon_awesome-caret-left" transform="translate(116.377 66.411)"/>
<path d="M20.17,2.4V33.169a2.392,2.392,0,0,1-4.083,1.691L.7,19.474a2.392,2.392,0,0,1,0-3.382L16.087.705A2.392,2.392,0,0,1,20.17,2.4Z" data-name="Icon awesome-caret-left" fill="#fff" id="Icon_awesome-caret-left-2" transform="translate(1251.062 109.521) rotate(180)"/>
</g>
<g data-name="Group 9" id="Group_9" transform="translate(106.119 724.619)">
<rect data-name="Rectangle 13" fill="#ccc" height="179.769" id="Rectangle_13" rx="18" transform="translate(311.23 0)" width="175.809"/>
<g data-name="Group 1527" id="Group_1527" transform="translate(0 33.261)">
<text fill="#1c1c1a" font-family="ArialMT, Arial" font-size="46" id="MA" transform="translate(35 44)">
<tspan x="-34.5" y="0">MA</tspan>
</text>
<text data-name="26" fill="#1c1c1a" font-family="ArialMT, Arial" font-size="45" id="_26" transform="translate(36.087 104.771)">
<tspan x="-25.027" y="0">26</tspan>
</text>
</g>
<g data-name="Group 1528" id="Group_1528" transform="translate(190.064 33.261)">
<text fill="#1c1c1a" font-family="ArialMT, Arial" font-size="44" id="DI" transform="translate(24.96 42)">
<tspan x="-22" y="0">DI</tspan>
</text>
<text data-name="27" fill="#1c1c1a" font-family="ArialMT, Arial" font-size="45" id="_27" transform="translate(25 104.771)">
<tspan x="-25.027" y="0">27</tspan>
</text>
</g>
<g data-name="Group 1529" id="Group_1529" transform="translate(354.786 33.261)">
<text fill="#1c1c1a" font-family="ArialMT, Arial" font-size="46" id="WO" transform="translate(39 44)">
<tspan x="-39.599" y="0">WO</tspan>
</text>
<text data-name="28" fill="#1c1c1a" font-family="ArialMT, Arial" font-size="44" id="_28" transform="translate(41.302 103.771)">
<tspan x="-24.471" y="0">28</tspan>
</text>
</g>
<g data-name="Group 1530" id="Group_1530" transform="translate(541.683 33.261)">
<text fill="#1c1c1a" font-family="ArialMT, Arial" font-size="45" id="DO" transform="translate(33 43)">
<tspan x="-33.75" y="0">DO</tspan>
</text>
<text data-name="29" fill="#1c1c1a" font-family="ArialMT, Arial" font-size="44" id="_29" transform="translate(34.174 103.771)">
<tspan x="-24.471" y="0">29</tspan>
</text>
</g>
<g data-name="Group 1531" id="Group_1531" transform="translate(724.619 33.261)">
<text fill="#1c1c1a" font-family="ArialMT, Arial" font-size="46" id="VR" transform="translate(30 44)">
<tspan x="-31.951" y="0">VR</tspan>
</text>
<text data-name="30" fill="#1c1c1a" font-family="ArialMT, Arial" font-size="44" id="_30" transform="translate(30.214 103.771)">
<tspan x="-24.471" y="0">30</tspan>
</text>
</g>
<g data-name="Group 1532" id="Group_1532" transform="translate(904.389 33.261)">
<text fill="#1c1c1a" font-family="ArialMT, Arial" font-size="46" id="ZA" transform="translate(29 44)">
<tspan x="-29.39" y="0">ZA</tspan>
</text>
<text data-name="31" fill="#1c1c1a" font-family="ArialMT, Arial" font-size="44" id="_31" transform="translate(30.214 103.771)">
<tspan x="-24.471" y="0">31</tspan>
</text>
</g>
<g data-name="Group 1533" id="Group_1533" transform="translate(1080.198 33.261)">
<text fill="#1c1c1a" font-family="ArialMT, Arial" font-size="47" id="ZO" transform="translate(32 45)">
<tspan x="-32.634" y="0">ZO</tspan>
</text>
<text data-name="1" fill="#1c1c1a" font-family="ArialMT, Arial" font-size="44" id="_1" transform="translate(33.382 103.771)">
<tspan x="-12.235" y="0">1</tspan>
</text>
</g>
</g>
<g data-name="Group 1677" id="Group_1677" transform="translate(0 1063.209)">
<rect data-name="Rectangle 142" fill="#fff" height="375.221" id="Rectangle_142" width="1372.761"/>
<path d="M0,0H230.624V230.624H0Z" data-name="Path 1505" fill="#9fc546" id="Path_1505" transform="translate(69.553 76.875)"/>
<text data-name="06:00 - 07:00" fill="#1c1c1a" font-family="ArialMT, Arial" font-size="60" id="_06:00_-_07:00" transform="translate(547.731 130.214)">
<tspan x="-176.807" y="0">06:00 - 07:00</tspan>
</text>
<g data-name="Trainer naam" id="Trainer_naam" transform="translate(369.73 164.731)">
<text fill="#041019" font-family="ArialMT, Arial" font-size="46" id="Trainer" transform="translate(0 44)">
<tspan class="trainer" x="0" y="0">Trainer</tspan>
</text>
</g>
<path d="M23.262,3A15.75,15.75,0,0,0,7.5,18.762c0,11.821,15.762,29.272,15.762,29.272S39.024,30.583,39.024,18.762A15.75,15.75,0,0,0,23.262,3Zm0,21.391a5.629,5.629,0,1,1,5.629-5.629A5.631,5.631,0,0,1,23.262,24.391Z" data-name="Icon material-location-on" fill="#1c1c1a" id="Icon_material-location-on-2" transform="translate(363.188 248.883)"/>
<path d="M12.885,52.665,31.932,33.577,12.885,14.489l5.864-5.864L43.7,33.577,18.749,58.529Z" data-name="Icon material-keyboard-arrow-right" fill="#1c1c1a" id="Icon_material-keyboard-arrow-right" transform="translate(1246.436 167.089)"/>
<line data-name="Line 1" fill="none" id="Line_1" opacity="0.272" stroke="#b24343" stroke-width="1" transform="translate(1.83 375.221)" x2="1372.761"/>
<text data-name="0 / 100" fill="#1c1c1a" font-family="ArialMT, Arial" font-size="46" id="_0_100" transform="translate(113.365 204.611)">
<tspan x="0" y="0">0 / 100</tspan>
</text>
</g>
<g data-name="Group 7" id="Group_7" transform="translate(0 1440.261)">
<rect data-name="Rectangle 142" fill="#fff" height="375.221" id="Rectangle_142-2" width="1372.761"/>
<path d="M0,0H230.624V230.624H0Z" data-name="Path 1498" fill="#9fc546" id="Path_1498" transform="translate(69.553 76.875)"/>
<text data-name="07:00 - 08:00" fill="#1c1c1a" font-family="ArialMT, Arial" font-size="60" id="_07:00_-_08:00" transform="translate(547.73 130.214)">
<tspan x="-176.807" y="0">07:00 - 08:00</tspan>
</text>
<path d="M23.262,3A15.75,15.75,0,0,0,7.5,18.762c0,11.821,15.762,29.272,15.762,29.272S39.024,30.583,39.024,18.762A15.75,15.75,0,0,0,23.262,3Zm0,21.391a5.629,5.629,0,1,1,5.629-5.629A5.631,5.631,0,0,1,23.262,24.391Z" data-name="Icon material-location-on" fill="#1c1c1a" id="Icon_material-location-on-3" transform="translate(363.188 248.882)"/>
<path d="M12.885,52.665,31.932,33.577,12.885,14.489l5.864-5.864L43.7,33.577,18.749,58.529Z" data-name="Icon material-keyboard-arrow-right" fill="#1c1c1a" id="Icon_material-keyboard-arrow-right-2" transform="translate(1246.436 167.088)"/>
<line data-name="Line 1" fill="none" id="Line_1-2" opacity="0.272" stroke="#b24343" stroke-width="1" transform="translate(1.83 375.221)" x2="1372.761"/>
<text data-name="7 / 12" fill="#1c1c1a" font-family="ArialMT, Arial" font-size="46" id="_7_12" transform="translate(120.803 208.731)">
<tspan x="0" y="0">7 / 12</tspan>
</text>
<g data-name="Workout naam 2" id="Workout_naam_2" transform="translate(783.255 69.214)">
<g data-name="Workout naam" id="Workout_naam">
<g data-name="Event afkorting" id="Event_afkorting">
<g data-name="Group 1671" id="Group_1671" transform="translate(0.134 -0.643)">
<rect data-name="Rectangle 15" fill="#e0e0e0" height="80" id="Rectangle_15" rx="8" transform="translate(-0.134 0.643)" width="250"/>
<text fill="#041019" font-family="ArialMT, Arial" font-size="41" id="groepsles" transform="translate(31.866 55.643)">
<tspan x="0" y="0">groepsles</tspan>
</text>
</g>
</g>
</g>
</g>
<g data-name="Trainer naam" id="Trainer_naam-2" transform="translate(369.678 165.63)">
<text data-name="Trainer" fill="#041019" font-family="ArialMT, Arial" font-size="46" id="Trainer-2" transform="translate(0 44)">
<tspan class="trainer" x="0" y="0">Trainer</tspan>
</text>
</g>
</g>
<g data-name="Group 7" id="Group_7-2" transform="translate(0 1817.313)">
<rect data-name="Rectangle 142" fill="#fff" height="375.221" id="Rectangle_142-3" width="1372.761"/>
<path d="M0,0H230.624V230.624H0Z" data-name="Path 1514" fill="#9fc546" id="Path_1514" transform="translate(69.553 76.875)"/>
<text data-name="08:00 - 09:00" fill="#1c1c1a" font-family="ArialMT, Arial" font-size="60" id="_08:00_-_09:00" transform="translate(547.73 130.214)">
<tspan x="-176.807" y="0">08:00 - 09:00</tspan>
</text>
<path d="M23.262,3A15.75,15.75,0,0,0,7.5,18.762c0,11.821,15.762,29.272,15.762,29.272S39.024,30.583,39.024,18.762A15.75,15.75,0,0,0,23.262,3Zm0,21.391a5.629,5.629,0,1,1,5.629-5.629A5.631,5.631,0,0,1,23.262,24.391Z" data-name="Icon material-location-on" fill="#1c1c1a" id="Icon_material-location-on-4" transform="translate(363.188 248.882)"/>
<path d="M12.885,52.665,31.932,33.577,12.885,14.489l5.864-5.864L43.7,33.577,18.749,58.529Z" data-name="Icon material-keyboard-arrow-right" fill="#1c1c1a" id="Icon_material-keyboard-arrow-right-3" transform="translate(1246.436 167.088)"/>
<line data-name="Line 1" fill="none" id="Line_1-3" opacity="0.272" stroke="#b24343" stroke-width="1" transform="translate(1.83 375.221)" x2="1372.761"/>
<text data-name="0 / 4" fill="#1c1c1a" font-family="ArialMT, Arial" font-size="46" id="_0_4" transform="translate(138.865 209.187)">
<tspan x="0" y="0">0 / 4</tspan>
</text>
<g data-name="Event locatie" id="Event_locatie" transform="translate(416.678 251.579)">
<text data-name="SportBit Manager" fill="#1c1c1a" font-family="ArialMT, Arial" font-size="42" id="CrossFit_Kampen" transform="translate(0 38)">
<tspan class="brandname" x="0" y="0">Adventure Bike Rider Club</tspan>
</text>
</g>
<g data-name="Trainer naam" id="Trainer_naam-3" transform="translate(370.678 171.579)">
<text data-name="Trainer" fill="#041019" font-family="ArialMT, Arial" font-size="46" id="Trainer-3" transform="translate(0 44)">
<tspan class="trainer" x="0" y="0">Trainer</tspan>
</text>
</g>
<g data-name="Workout naam 2" id="Workout_naam_2-2" transform="translate(795.678 68.579)">
<g data-name="Workout naam" id="Workout_naam-2">
<g data-name="Event afkorting" id="Event_afkorting-2">
<g data-name="Group 1671" id="Group_1671-2" transform="translate(0.134 -0.643)">
<rect data-name="Rectangle 15" fill="#e0e0e0" height="80" id="Rectangle_15-2" rx="8" transform="translate(-0.134 0.643)" width="250"/>
<text data-name="groepsles" fill="#041019" font-family="ArialMT, Arial" font-size="41" id="groepsles-2" transform="translate(31.866 55.643)">
<tspan x="0" y="0">groepsles</tspan>
</text>
</g>
</g>
</g>
</g>
</g>
<g data-name="Group 7" id="Group_7-3" transform="translate(0 2194.365)">
<rect data-name="Rectangle 142" fill="#fff" height="375.221" id="Rectangle_142-4" width="1372.761"/>
<path d="M0,0H230.624V230.624H0Z" data-name="Path 1499" fill="#9fc546" id="Path_1499" transform="translate(69.553 76.875)"/>
<text data-name="09:00 - 10:00" fill="#1c1c1a" font-family="ArialMT, Arial" font-size="60" id="_09:00_-_10:00" transform="translate(547.73 130.214)">
<tspan x="-176.807" y="0">09:00 - 10:00</tspan>
</text>
<path d="M23.262,3A15.75,15.75,0,0,0,7.5,18.762c0,11.821,15.762,29.272,15.762,29.272S39.024,30.583,39.024,18.762A15.75,15.75,0,0,0,23.262,3Zm0,21.391a5.629,5.629,0,1,1,5.629-5.629A5.631,5.631,0,0,1,23.262,24.391Z" data-name="Icon material-location-on" fill="#1c1c1a" id="Icon_material-location-on-5" transform="translate(363.188 248.882)"/>
<path d="M12.885,52.665,31.932,33.577,12.885,14.489l5.864-5.864L43.7,33.577,18.749,58.529Z" data-name="Icon material-keyboard-arrow-right" fill="#1c1c1a" id="Icon_material-keyboard-arrow-right-4" transform="translate(1246.436 167.088)"/>
<line data-name="Line 1" fill="none" id="Line_1-4" opacity="0.272" stroke="#b24343" stroke-width="1" transform="translate(1.83 375.221)" x2="1372.761"/>
<text data-name="5 / 12" fill="#1c1c1a" font-family="ArialMT, Arial" font-size="46" id="_5_12" transform="translate(120.803 208.731)">
<tspan x="0" y="0">5 / 12</tspan>
</text>
<g data-name="Group 1674" id="Group_1674" transform="translate(783.389 68.071)">
<g data-name="Workout naam" id="Workout_naam-3" transform="translate(-0.134 -0.357)">
<g data-name="Event afkorting" id="Event_afkorting-3">
<g data-name="Group 1671" id="Group_1671-3" transform="translate(0.134 -0.643)">
<rect data-name="Rectangle 15" fill="#e0e0e0" height="80" id="Rectangle_15-3" rx="8" transform="translate(-0.134 0.643)" width="250"/>
<text data-name="groepsles" fill="#041019" font-family="ArialMT, Arial" font-size="41" id="groepsles-3" transform="translate(31.866 55.643)">
<tspan x="0" y="0">groepsles</tspan>
</text>
</g>
</g>
</g>
</g>
<g data-name="Trainer naam" id="Trainer_naam-4" transform="translate(369.678 160.527)">
<text data-name="Trainer" fill="#041019" font-family="ArialMT, Arial" font-size="46" id="Trainer-4" transform="translate(0 44)">
<tspan class="trainer" x="0" y="0">Trainer</tspan>
</text>
</g>
</g>
<g data-name="Group 7" id="Group_7-4" transform="translate(0 2571.416)">
<rect data-name="Rectangle 142" fill="#fff" height="375.221" id="Rectangle_142-5" transform="translate(0 0)" width="1372.761"/>
<path d="M0,0H230.624V230.624H0Z" data-name="Path 1500" fill="#9fc546" id="Path_1500" transform="translate(69.553 76.875)"/>
<text data-name="10:00 - 11:00" fill="#1c1c1a" font-family="ArialMT, Arial" font-size="60" id="_10:00_-_11:00" transform="translate(547.73 130.214)">
<tspan x="-174.58" y="0">10:00 - 11:00</tspan>
</text>
<path d="M23.262,3A15.75,15.75,0,0,0,7.5,18.762c0,11.821,15.762,29.272,15.762,29.272S39.024,30.583,39.024,18.762A15.75,15.75,0,0,0,23.262,3Zm0,21.391a5.629,5.629,0,1,1,5.629-5.629A5.631,5.631,0,0,1,23.262,24.391Z" data-name="Icon material-location-on" fill="#1c1c1a" id="Icon_material-location-on-6" transform="translate(363.188 248.882)"/>
<path d="M12.885,52.665,31.932,33.577,12.885,14.489l5.864-5.864L43.7,33.577,18.749,58.529Z" data-name="Icon material-keyboard-arrow-right" fill="#1c1c1a" id="Icon_material-keyboard-arrow-right-5" transform="translate(1246.436 167.088)"/>
<line data-name="Line 1" fill="none" id="Line_1-5" opacity="0.272" stroke="#b24343" stroke-width="1" transform="translate(1.83 375.221)" x2="1372.761"/>
<text data-name="0 / 12" fill="#1c1c1a" font-family="ArialMT, Arial" font-size="46" id="_0_12" transform="translate(120.803 208.731)">
<tspan x="0" y="0">0 / 12</tspan>
</text>
<g data-name="Event locatie" id="Event_locatie-2" transform="translate(416.678 251.475)">
<text data-name="SportBit Manager" fill="#1c1c1a" font-family="ArialMT, Arial" font-size="42" id="CrossFit_Kampen-2" transform="translate(0 38)">
<tspan class="brandname" x="0" y="0">Adventure Bike Rider Club</tspan>
</text>
</g>
<g data-name="Trainer naam" id="Trainer_naam-5" transform="translate(370.678 165.475)">
<text data-name="Trainer" fill="#041019" font-family="ArialMT, Arial" font-size="46" id="Trainer-5" transform="translate(0 44)">
<tspan class="trainer" x="0" y="0">Trainer</tspan>
</text>
</g>
<g data-name="Workout naam 2" id="Workout_naam_2-3" transform="translate(795.678 73.475)">
<g data-name="Workout naam" id="Workout_naam-4">
<g data-name="Event afkorting" id="Event_afkorting-4">
<g data-name="Group 1671" id="Group_1671-4" transform="translate(0.134 -0.643)">
<rect data-name="Rectangle 15" fill="#e0e0e0" height="80" id="Rectangle_15-4" rx="8" transform="translate(-0.134 0.643)" width="250"/>
<text data-name="groepsles" fill="#041019" font-family="ArialMT, Arial" font-size="41" id="groepsles-4" transform="translate(31.866 55.643)">
<tspan x="0" y="0">groepsles</tspan>
</text>
</g>
</g>
</g>
</g>
</g>
<g data-name="Group 7" id="Group_7-5" transform="translate(0 2948.468)">
<rect data-name="Rectangle 142" fill="#fff" height="375.221" id="Rectangle_142-6" transform="translate(0 0)" width="1372.761"/>
<rect data-name="Rectangle 14" fill="#1c1c1a" height="230.624" id="Rectangle_14" transform="translate(69.553 76.875)" width="230.624"/>
<text data-name="06:00 - 07:00" fill="#1c1c1a" font-family="ArialMT, Arial" font-size="60" id="_06:00_-_07:00-2" transform="translate(547.73 130.214)">
<tspan x="-176.807" y="0">06:00 - 07:00</tspan>
</text>
<text fill="#1c1c1a" font-family="ArialMT, Arial" font-size="46" id="Tamara" transform="translate(369.73 208.731)">
<tspan x="0" y="0">Tamara</tspan>
</text>
<text fill="#1c1c1a" font-family="ArialMT, Arial" font-size="42" id="Hoofdruimte" transform="translate(424.641 292.588)">
<tspan x="0" y="0">Hoofdruimte</tspan>
</text>
<path d="M23.262,3A15.75,15.75,0,0,0,7.5,18.762c0,11.821,15.762,29.272,15.762,29.272S39.024,30.583,39.024,18.762A15.75,15.75,0,0,0,23.262,3Zm0,21.391a5.629,5.629,0,1,1,5.629-5.629A5.631,5.631,0,0,1,23.262,24.391Z" data-name="Icon material-location-on" fill="#1c1c1a" id="Icon_material-location-on-7" transform="translate(363.188 248.882)"/>
<path d="M12.885,52.665,31.932,33.577,12.885,14.489l5.864-5.864L43.7,33.577,18.749,58.529Z" data-name="Icon material-keyboard-arrow-right" fill="#1c1c1a" id="Icon_material-keyboard-arrow-right-6" transform="translate(1246.436 167.088)"/>
<line data-name="Line 1" fill="none" id="Line_1-6" opacity="0.272" stroke="#b24343" stroke-width="1" transform="translate(1.83 375.221)" x2="1372.761"/>
<g data-name="Group 10" id="Group_10" transform="translate(783.389 69.553)">
<rect data-name="Rectangle 15" fill="#041019" height="80.535" id="Rectangle_15-5" rx="8" width="164.731"/>
<text fill="#1c1c1a" font-family="Arial-BoldMT, Arial" font-size="41" font-weight="700" id="WOD" transform="translate(82.366 55.767)">
<tspan x="-50.099" y="0">WOD</tspan>
</text>
</g>
<text data-name="0 / 14" fill="#fff" font-family="ArialMT, Arial" font-size="46" id="_0_14" transform="translate(120.803 208.731)">
<tspan x="0" y="0">0 / 14</tspan>
</text>
</g>
<path d="M24.91,31.312A14.531,14.531,0,1,0,10.379,16.781,14.524,14.524,0,0,0,24.91,31.312Zm9.964,4.152H33.8a20.062,20.062,0,0,1-17.774,0H14.946A14.95,14.95,0,0,0,0,50.409v3.737a6.229,6.229,0,0,0,6.227,6.227H43.592a6.229,6.229,0,0,0,6.227-6.227V50.409A14.95,14.95,0,0,0,34.874,35.463Zm27.4-4.152A12.455,12.455,0,1,0,49.82,18.857,12.458,12.458,0,0,0,62.275,31.312ZM68.5,35.463h-.493a16.36,16.36,0,0,1-11.469,0h-.493a14.41,14.41,0,0,0-7.226,2,18.987,18.987,0,0,1,5.151,12.948v4.982c0,.285-.065.558-.078.83H76.806a6.229,6.229,0,0,0,6.228-6.227A14.524,14.524,0,0,0,68.5,35.463Z" data-name="Icon awesome-user-friends" fill="#1c1c1a" id="Icon_awesome-user-friends" transform="translate(1084.149 1233.46)"/>
<path d="M24.91,31.312A14.531,14.531,0,1,0,10.379,16.781,14.524,14.524,0,0,0,24.91,31.312Zm9.964,4.152H33.8a20.062,20.062,0,0,1-17.774,0H14.946A14.95,14.95,0,0,0,0,50.409v3.737a6.229,6.229,0,0,0,6.227,6.227H43.592a6.229,6.229,0,0,0,6.227-6.227V50.409A14.95,14.95,0,0,0,34.874,35.463Zm27.4-4.152A12.455,12.455,0,1,0,49.82,18.857,12.458,12.458,0,0,0,62.275,31.312ZM68.5,35.463h-.493a16.36,16.36,0,0,1-11.469,0h-.493a14.41,14.41,0,0,0-7.226,2,18.987,18.987,0,0,1,5.151,12.948v4.982c0,.285-.065.558-.078.83H76.806a6.229,6.229,0,0,0,6.228-6.227A14.524,14.524,0,0,0,68.5,35.463Z" data-name="Icon awesome-user-friends" fill="#1c1c1a" id="Icon_awesome-user-friends-2" transform="translate(1084.149 1987.564)"/>
<g data-name="Workout naam" id="Workout_naam-5" transform="translate(785.255 1136.476)">
<g data-name="Event afkorting" id="Event_afkorting-5">
<g data-name="Group 1671" id="Group_1671-5" transform="translate(0.134 -0.643)">
<rect data-name="Rectangle 15" fill="#e0e0e0" height="80" id="Rectangle_15-6" rx="8" transform="translate(-0.134 0.643)" width="250"/>
<text data-name="groepsles" fill="#041019" font-family="ArialMT, Arial" font-size="41" id="groepsles-5" transform="translate(31.866 55.643)">
<tspan x="0" y="0">groepsles</tspan>
</text>
</g>
</g>
</g>
<g data-name="Event locatie" id="Event_locatie-3" transform="translate(415.678 2442.892)">
<text data-name="SportBit Manager" fill="#1c1c1a" font-family="ArialMT, Arial" font-size="42" id="CrossFit_Kampen-3" transform="translate(0 38)">
<tspan class="brandname" x="0" y="0">Adventure Bike Rider Club</tspan>
</text>
</g>
</g>
<g data-name="Event locatie" id="Event_locatie-4" transform="translate(419.711 1313.79)">
<text data-name="SportBit Manager" fill="#1c1c1a" font-family="ArialMT, Arial" font-size="42" id="CrossFit_Kampen-4" transform="translate(0 38)">
<tspan class="brandname" x="0" y="0">Adventure Bike Rider Club</tspan>
</text>
</g>
<g data-name="Event locatie" id="Event_locatie-5" transform="translate(419.711 1691.79)">
<text data-name="SportBit Manager" fill="#1c1c1a" font-family="ArialMT, Arial" font-size="42" id="CrossFit_Kampen-5" transform="translate(0 38)">
<tspan class="brandname" x="0" y="0">Adventure Bike Rider Club</tspan>
</text>
</g>
</g>
</g>
</g>
<path d="M1234.9,3007.4H203.974A203.026,203.026,0,0,1,89.93,2972.569a204.579,204.579,0,0,1-73.9-89.743A202.7,202.7,0,0,1,0,2803.43V203.97A203,203,0,0,1,34.835,89.93a204.535,204.535,0,0,1,89.743-73.9A202.715,202.715,0,0,1,203.974,0H1234.9a203.04,203.04,0,0,1,114.043,34.834,204.594,204.594,0,0,1,73.9,89.742,202.7,202.7,0,0,1,16.029,79.394V2803.43a203.015,203.015,0,0,1-34.835,114.044,204.557,204.557,0,0,1-89.741,73.9A202.7,202.7,0,0,1,1234.9,3007.4ZM189.834,42.369h0a84.036,84.036,0,0,0-13.246,1c-.938.081-9.131.808-12.588,1.782-1.224.34-2.593.683-4.044,1.048a111.021,111.021,0,0,0-13.371,4.007l-1.718.664C131.9,55.877,115.767,62.109,99.29,75.39a133.147,133.147,0,0,0-24.272,25.8,183.479,183.479,0,0,0-21.527,40.3C44.9,163.354,43.428,189.151,42,214.1q-.139,2.426-.278,4.834c.153,33.469.122,62.534.069,81.023-.452,4.861-.681,9.806-.681,14.7v2495.1a156.407,156.407,0,0,0,156.536,156.537H1244.388a156.407,156.407,0,0,0,156.54-156.537V315.359h.271l-3.742-133.381c-.027-.261-2.759-26.146-9.3-40.857a226.033,226.033,0,0,0-12.428-24.464,145.911,145.911,0,0,0-18.637-24.95c-10.476-11.242-24.981-21.917-41.945-30.871-4.663-2.461-21.091-10.814-36.71-14.944-4.579-1.213-4.876-1.235-6.527-1.351l-.051,0c-.688-.049-1.629-.116-3.2-.291-5.392-.6-11.858-.78-11.92-.782l-190.027-.459c-.067,0-.3-.019-.652-.019-2.581,0-11.044.689-11.582,9.556a65.328,65.328,0,0,0,.7,11.444c.461,3.848.9,7.483.522,10.329-2.229,16.92-5.862,23.77-13.213,36.454a68.443,68.443,0,0,1-12.158,15.582,53.142,53.142,0,0,1-11.782,8.464A36.746,36.746,0,0,1,1006.126,139l-.053.017.021-.016c-.1.041-.135.052-.138.055s.07-.022.117-.039c-3.2,1.655-7.573,2.517-11.083,3.211a75.58,75.58,0,0,1-11.879.9h-.038l-508.079.706h-.006c-.332,0-11.831-.022-19.45-.6a61.22,61.22,0,0,1-11.619-1.75A83.176,83.176,0,0,1,426.54,134.2,79.212,79.212,0,0,1,411.6,123.6a61.972,61.972,0,0,1-13.084-16.549c-6.667-12.432-9.64-28.863-10.961-40.459-.223-1.956-.4-3.731-.58-5.446l-.005-.052c-.716-7.022-1.19-11.662-3.184-14.557s-5.447-4.036-12.3-4.036H369.3c-9.931,0-41.446-.028-70.965-.055C257.183,42.411,210.544,42.371,189.834,42.369Z" data-name="Subtraction 5" id="Subtraction_5" transform="translate(601.262 183.185)"/>
<rect data-name="Rectangle 81" fill="#fff" height="35.33" id="Rectangle_81" opacity="0.22" rx="17.665" transform="translate(1244.555 239.111)" width="160.091"/>
<ellipse cx="26.498" cy="29.81" data-name="Ellipse 27" fill="#fff" id="Ellipse_27" opacity="0.22" rx="26.498" ry="29.81" transform="translate(1434.456 226.966)"/>
</g>
</svg>