<svg id="Laag_1" xmlns="http://www.w3.org/2000/svg" version="1.1" xmlns:xlink="http://www.w3.org/1999/xlink" viewBox="-285 -65 3408 3873" class="svgviewbox" width="100%" height="100%">
  <g class="device">
    <path id="Path_1440" data-name="Path 1440" d="M221.365 -5h1023.066c122.256 0 221.369 94.109 221.369 216.365V2809.8c0 122.256 -99.109 221.365 -221.365 221.365H221.365C99.109 3031.164 0 2932.055 0 2809.8V211.365C0 89.109 99.109 -5 221.365 -5" transform="translate(588.218 173.036)" fill="#fff"/>
    <path id="NoPath_-_Copy_6_" data-name="NoPath - Copy (6)" d="M202.391 0h1008.793c111.778 0 202.391 90.614 202.391 202.391v2583.648c0 111.778 -90.614 202.391 -202.391 202.391H202.391C90.614 2988.43 0 2897.816 0 2786.039V202.391C0 90.614 90.614 0 202.391 0" transform="translate(602.844 184.767)" fill="#fff"/>
    <g id="Group_1394" data-name="Group 1394" transform="translate(-980.748 -279.09)">
      <g id="Group_1391" data-name="Group 1391" transform="translate(1620 482)">
        <g id="Group_2" data-name="Group 2">
          <g id="Group_1534" data-name="Group 1534" transform="translate(3.033 1.898)">
            <path id="Path_1508" data-name="Path 1508" class="tabbarColor" d="M0 150A150 150 0 0 1 150 0h1026a150 150 0 0 1 200 150v180H0Z"/>
            <path id="Icon_ionic-md-arrow-back" data-name="Icon ionic-md-arrow-back" d="M80.035 38.378H23.8L49.718 12.456l-6.713 -6.48L5.976 43.006l37.029 37.029 6.479 -6.48L23.8 47.634h56.235Z" transform="translate(55.919 191.365)" fill="#fff"/>
            <path id="Icon_material-location-on" data-name="Icon material-location-on" d="M35.828 3A28.308 28.308 0 0 0 7.5 31.328c0 21.246 28.328 52.608 28.328 52.608s28.328 -31.363 28.328 -52.608A28.308 28.308 0 0 0 35.828 3m0 38.444a10.117 10.117 0 1 1 10.117 -10.116 10.12 10.12 0 0 1 -10.117 10.116" transform="translate(1228.943 190.817)" fill="#fff"/>
            <g id="Group_34" data-name="Group 34" transform="translate(460.906 160.762)">
              <text id="Alle_roosters" data-name="Alle roosters" transform="translate(207.348 53)" fill="#fff" font-size="54" font-family="Arial-BoldMT, Arial" font-weight="700"><tspan x="-165" y="0">Alle roosters</tspan></text>
              <text id="_-_Wijzig_roosterkeuze_-" data-name="- Wijzig roosterkeuze -" transform="translate(211 116.818)" fill="#fff" font-size="42" font-family="ArialMT, Arial"><tspan x="-209" y="0">- Wijzig roosterkeuze -</tspan></text>
            </g>
            <path id="Path_125" data-name="Path 125" d="M0 0h1372.761v120.8H0Z" transform="translate(0 944.46)" class="divider"/>
            <text id="Woensdag_28_aug._{year}" data-name="Woensdag, 28 aug. {year}" transform="translate(677.222 1022.079)" fill="#fff" font-size="49" font-family="Arial-BoldMT, Arial" font-weight="700"><tspan x="-283" y="0" class="year">Woensdag, 28 aug. {year}</tspan></text>
            <path id="Path_83" data-name="Path 83" d="M0 0h688.211v172.053H0Z" transform="translate(0 329.463)" fill="#e0e0e0"/>
            <g id="Group_5" data-name="Group 5" transform="translate(180.747 385.795)">
              <text id="Kalender" transform="translate(212.075 50.239)" fill="#041019" font-size="49" font-family="Arial-BoldMT, Arial" font-weight="700"><tspan x="-105" y="0">Kalender</tspan></text>
              <g id="Icon_ionic-ios-calendar" data-name="Icon ionic-ios-calendar">
                <path id="Path_16" data-name="Path 16" d="M66.5 6.75h-6.713v4.029a1.35 1.35 0 0 1 -1.343 1.343h-2.686a1.35 1.35 0 0 1 -1.343 -1.343V6.75h-32.237v4.029a1.35 1.35 0 0 1 -1.343 1.343H18.15a1.35 1.35 0 0 1 -1.343 -1.343V6.75H10.091A6.737 6.737 0 0 0 3.375 13.466v45.667a6.737 6.737 0 0 0 6.716 6.716H66.5a6.737 6.737 0 0 0 6.716 -6.716V13.466A6.737 6.737 0 0 0 66.5 6.75m1.343 50.367a3.37 3.37 0 0 1 -3.357 3.357H12.105a3.37 3.37 0 0 1 -3.357 -3.357V26.9a1.35 1.35 0 0 1 1.343 -1.343H66.5a1.35 1.35 0 0 1 1.346 1.343Z" transform="translate(-3.375 -1.377)" fill="#1c1c1a"/>
                <path id="Path_17" data-name="Path 17" d="M14.372 5.843A1.35 1.35 0 0 0 13.029 4.5H10.342A1.35 1.35 0 0 0 9 5.843v4.03h5.373Z" transform="translate(4.431 -4.5)" fill="#1c1c1a"/>
                <path id="Path_18" data-name="Path 18" d="M30.122 5.843A1.35 1.35 0 0 0 28.779 4.5h-2.686A1.35 1.35 0 0 0 24.75 5.843v4.03h5.373Z" transform="translate(26.29 -4.5)" fill="#1c1c1a"/>
              </g>
            </g>
            <path id="Rectangle_9" data-name="Rectangle 9" transform="translate(688.191 329.444)" fill="#ccc" d="M0 0h688.191v171.85H0z"/>
            <g id="Group_8" data-name="Group 8" transform="translate(825.975 388.048)">
              <text id="Lijstweergave" transform="translate(240.413 48)" fill="#041019" font-size="49" font-family="Arial-BoldMT, Arial" font-weight="700"><tspan x="-162" y="0">Lijstweergave</tspan></text>
              <g id="Icon_ionic-ios-list" data-name="Icon ionic-ios-list" transform="translate(0 11.202)">
                <path id="Path_10" data-name="Path 10" d="M11.832 19.7a3.666 3.666 0 1 1 -3.666 -3.666 3.666 3.666 0 0 1 3.666 3.666" transform="translate(-4.5 .203)" fill="#1c1c1a"/>
                <path id="Path_11" data-name="Path 11" d="M11.832 10.977A3.666 3.666 0 1 1 8.166 7.313a3.666 3.666 0 0 1 3.666 3.665" transform="translate(-4.5 -7.313)" fill="#1c1c1a"/>
                <path id="Path_12" data-name="Path 12" d="M11.832 28.416A3.666 3.666 0 1 1 8.166 24.75a3.666 3.666 0 0 1 3.666 3.666" transform="translate(-4.5 7.719)" fill="#1c1c1a"/>
                <path id="Path_13" data-name="Path 13" d="M45.921 16.875H14.435a2.095 2.095 0 1 0 0 4.189h31.486a2.095 2.095 0 1 0 0 -4.189" transform="translate(2.258 .93)" fill="#041019"/>
                <path id="Path_14" data-name="Path 14" d="M45.921 25.594H14.435a2.095 2.095 0 1 0 0 4.189h31.486a2.095 2.095 0 1 0 0 -4.189" transform="translate(2.258 8.446)" fill="#1c1c1a"/>
                <path id="Path_15" data-name="Path 15" d="M14.435 12.346h31.486a2.095 2.095 0 1 0 0 -4.189H14.435a2.095 2.095 0 1 0 0 4.189" transform="translate(2.258 -6.585)" fill="#1c1c1a"/>
              </g>
            </g>
            <g id="Group_6" data-name="Group 6" transform="translate(0 501.294)">
              <path id="Rectangle_99" data-name="Rectangle 99" fill="#041019" d="M0 0h1372.423v175.809H0z"/>
              <path class="tabbarColor" id="Path_1507" data-name="Path 1507" d="M0 0h1376.381v177.809H0Z" transform="translate(0 -1)" opacity="1"/>
              <text id="Week_36_Augustus_{year}" data-name="Week 36, Augustus {year}" transform="translate(675.007 106.603)" fill="#fff" font-size="49" font-family="Arial-BoldMT, Arial" font-weight="700"><tspan x="-285" y="0" class="year">Week 36, Augustus {year}</tspan></text>
              <path id="Icon_awesome-caret-left" data-name="Icon awesome-caret-left" d="M21.811 9.941v30.772a2.393 2.393 0 0 1 -4.082 1.686L2.341 27.018a2.387 2.387 0 0 1 0 -3.382L17.727 8.25a2.393 2.393 0 0 1 4.082 1.691" transform="translate(116.377 66.411)" fill="#fff"/>
              <path id="Icon_awesome-caret-left-2" data-name="Icon awesome-caret-left" d="M20.17 2.4v30.769a2.393 2.393 0 0 1 -4.082 1.691L0.7 19.474a2.387 2.387 0 0 1 0 -3.382L16.087 0.705a2.393 2.393 0 0 1 4.082 1.695" transform="rotate(180 625.531 54.76)" fill="#fff"/>
            </g>
            <g id="Group_9" data-name="Group 9" transform="translate(106.119 724.619)">
              <path id="Rectangle_13" data-name="Rectangle 13" transform="translate(311.23)" fill="#ccc" d="M18 0h139.809a18 18 0 0 1 18 18v143.769a18 18 0 0 1 -18 18H18a18 18 0 0 1 -18 -18V18A18 18 0 0 1 18 0"/>
              <g id="Group_1527" data-name="Group 1527" transform="translate(0 33.261)">
                <text id="MA" transform="translate(35 44)" fill="#1c1c1a" font-size="46" font-family="ArialMT, Arial"><tspan x="-35" y="0">MA</tspan></text>
                <text id="_26" data-name="26" transform="translate(36.087 104.771)" fill="#1c1c1a" font-size="45" font-family="ArialMT, Arial"><tspan x="-25" y="0">26</tspan></text>
              </g>
              <g id="Group_1528" data-name="Group 1528" transform="translate(190.064 33.261)">
                <text id="DI" transform="translate(24.96 42)" fill="#1c1c1a" font-size="44" font-family="ArialMT, Arial"><tspan x="-22" y="0">DI</tspan></text>
                <text id="_27" data-name="27" transform="translate(25 104.771)" fill="#1c1c1a" font-size="45" font-family="ArialMT, Arial"><tspan x="-25" y="0">27</tspan></text>
              </g>
              <g id="Group_1529" data-name="Group 1529" transform="translate(354.786 33.261)">
                <text id="WO" transform="translate(39 44)" fill="#1c1c1a" font-size="46" font-family="ArialMT, Arial"><tspan x="-40" y="0">WO</tspan></text>
                <text id="_28" data-name="28" transform="translate(41.302 103.771)" fill="#1c1c1a" font-size="44" font-family="ArialMT, Arial"><tspan x="-25" y="0">28</tspan></text>
              </g>
              <g id="Group_1530" data-name="Group 1530" transform="translate(541.683 33.261)">
                <text id="DO" transform="translate(33 43)" fill="#1c1c1a" font-size="45" font-family="ArialMT, Arial"><tspan x="-34" y="0">DO</tspan></text>
                <text id="_29" data-name="29" transform="translate(34.174 103.771)" fill="#1c1c1a" font-size="44" font-family="ArialMT, Arial"><tspan x="-25" y="0">29</tspan></text>
              </g>
              <g id="Group_1531" data-name="Group 1531" transform="translate(724.619 33.261)">
                <text id="VR" transform="translate(30 44)" fill="#1c1c1a" font-size="46" font-family="ArialMT, Arial"><tspan x="-32" y="0">VR</tspan></text>
                <text id="_30" data-name="30" transform="translate(30.214 103.771)" fill="#1c1c1a" font-size="44" font-family="ArialMT, Arial"><tspan x="-25" y="0">30</tspan></text>
              </g>
              <g id="Group_1532" data-name="Group 1532" transform="translate(904.389 33.261)">
                <text id="ZA" transform="translate(29 44)" fill="#1c1c1a" font-size="46" font-family="ArialMT, Arial"><tspan x="-29" y="0">ZA</tspan></text>
                <text id="_31" data-name="31" transform="translate(30.214 103.771)" fill="#1c1c1a" font-size="44" font-family="ArialMT, Arial"><tspan x="-25" y="0">31</tspan></text>
              </g>
              <g id="Group_1533" data-name="Group 1533" transform="translate(1080.198 33.261)">
                <text id="ZO" transform="translate(32 45)" fill="#1c1c1a" font-size="47" font-family="ArialMT, Arial"><tspan x="-33" y="0">ZO</tspan></text>
                <text id="_1" data-name="1" transform="translate(33.382 103.771)" fill="#1c1c1a" font-size="44" font-family="ArialMT, Arial"><tspan x="-12" y="0">1</tspan></text>
              </g>
            </g>
            <g id="Group_1677" data-name="Group 1677" transform="translate(0 1063.209)">
              <path id="Rectangle_142" data-name="Rectangle 142" fill="#fff" d="M0 0h1372.761v375.221H0z"/>
              <path id="Path_1505" data-name="Path 1505" d="M0 0h230.624v230.624H0Z" transform="translate(69.553 76.875)" fill="#9fc546"/>
              <text id="_06:00_-_07:00" data-name="06:00 - 07:00" transform="translate(547.731 130.214)" fill="#1c1c1a" font-size="60" font-family="ArialMT, Arial"><tspan x="-177" y="0">06:00 - 07:00</tspan></text>
              <g id="Trainer_naam" data-name="Trainer naam" transform="translate(369.73 164.731)">
                <text id="Trainer" transform="translate(0 44)" fill="#041019" font-size="46" font-family="ArialMT, Arial"><tspan x="0" y="0" class="trainer">Trainer</tspan></text>
              </g>
              <path id="Icon_material-location-on-2" data-name="Icon material-location-on" d="M23.262 3A15.75 15.75 0 0 0 7.5 18.762c0 11.821 15.762 29.273 15.762 29.273S39.025 30.584 39.025 18.762A15.75 15.75 0 0 0 23.262 3m0 21.391a5.629 5.629 0 1 1 5.629 -5.629 5.63 5.63 0 0 1 -5.629 5.629" transform="translate(363.188 248.883)" fill="#1c1c1a"/>
              <path id="Icon_material-keyboard-arrow-right" data-name="Icon material-keyboard-arrow-right" d="m12.885 52.665 19.047 -19.087 -19.047 -19.087 5.864 -5.864L43.7 33.578 18.749 58.529Z" transform="translate(1246.436 167.089)" fill="#1c1c1a"/>
              <text id="_0_100" data-name="0 / 100" transform="translate(113.365 204.611)" fill="#1c1c1a" font-size="46" font-family="ArialMT, Arial"><tspan x="0" y="0">0 / 100</tspan></text>
            </g>
            <g id="Group_7" data-name="Group 7" transform="translate(0 1440.261)">
              <path id="Rectangle_142-2" data-name="Rectangle 142" fill="#fff" d="M0 0h1372.761v375.221H0z"/>
              <path id="Path_1498" data-name="Path 1498" d="M0 0h230.624v230.624H0Z" transform="translate(69.553 76.875)" fill="#9fc546"/>
              <text id="_07:00_-_08:00" data-name="07:00 - 08:00" transform="translate(547.73 130.214)" fill="#1c1c1a" font-size="60" font-family="ArialMT, Arial"><tspan x="-177" y="0">07:00 - 08:00</tspan></text>
              <path id="Icon_material-location-on-3" data-name="Icon material-location-on" d="M23.262 3A15.75 15.75 0 0 0 7.5 18.762c0 11.821 15.762 29.273 15.762 29.273S39.025 30.584 39.025 18.762A15.75 15.75 0 0 0 23.262 3m0 21.391a5.629 5.629 0 1 1 5.629 -5.629 5.63 5.63 0 0 1 -5.629 5.629" transform="translate(363.188 248.882)" fill="#1c1c1a"/>
              <path id="Icon_material-keyboard-arrow-right-2" data-name="Icon material-keyboard-arrow-right" d="m12.885 52.665 19.047 -19.087 -19.047 -19.087 5.864 -5.864L43.7 33.578 18.749 58.529Z" transform="translate(1246.436 167.088)" fill="#1c1c1a"/>
              <text id="_7_12" data-name="7 / 12" transform="translate(120.803 208.731)" fill="#1c1c1a" font-size="46" font-family="ArialMT, Arial"><tspan x="0" y="0">7 / 12</tspan></text>
              <g id="Workout_naam_2" data-name="Workout naam 2" transform="translate(783.255 69.214)">
                <g id="Workout_naam" data-name="Workout naam">
                  <g id="Event_afkorting" data-name="Event afkorting">
                    <g id="Group_1671" data-name="Group 1671" transform="translate(.134 -.643)">
                      <path id="Rectangle_15" data-name="Rectangle 15" transform="translate(-.134 .643)" fill="#e0e0e0" d="M8 0h234a8 8 0 0 1 8 8v64a8 8 0 0 1 -8 8H8A8 8 0 0 1 0 72V8A8 8 0 0 1 8 0"/>
                      <text id="groepsles" transform="translate(31.866 55.643)" fill="#041019" font-size="41" font-family="ArialMT, Arial"><tspan x="0" y="0">groepsles</tspan></text>
                    </g>
                  </g>
                </g>
              </g>
              <g id="Trainer_naam-2" data-name="Trainer naam" transform="translate(369.678 165.63)">
                <text id="Trainer-2" data-name="Trainer" transform="translate(0 44)" fill="#041019" font-size="46" font-family="ArialMT, Arial"><tspan x="0" y="0" class="trainer">Trainer</tspan></text>
              </g>
            </g>
            <g id="Group_7-2" data-name="Group 7" transform="translate(0 1817.313)">
              <path id="Rectangle_142-3" data-name="Rectangle 142" fill="#fff" d="M0 0h1372.761v375.221H0z"/>
              <path id="Path_1514" data-name="Path 1514" d="M0 0h230.624v230.624H0Z" transform="translate(69.553 76.875)" fill="#9fc546"/>
              <text id="_08:00_-_09:00" data-name="08:00 - 09:00" transform="translate(547.73 130.214)" fill="#1c1c1a" font-size="60" font-family="ArialMT, Arial"><tspan x="-177" y="0">08:00 - 09:00</tspan></text>
              <path id="Icon_material-location-on-4" data-name="Icon material-location-on" d="M23.262 3A15.75 15.75 0 0 0 7.5 18.762c0 11.821 15.762 29.273 15.762 29.273S39.025 30.584 39.025 18.762A15.75 15.75 0 0 0 23.262 3m0 21.391a5.629 5.629 0 1 1 5.629 -5.629 5.63 5.63 0 0 1 -5.629 5.629" transform="translate(363.188 248.882)" fill="#1c1c1a"/>
              <path id="Icon_material-keyboard-arrow-right-3" data-name="Icon material-keyboard-arrow-right" d="m12.885 52.665 19.047 -19.087 -19.047 -19.087 5.864 -5.864L43.7 33.578 18.749 58.529Z" transform="translate(1246.436 167.088)" fill="#1c1c1a"/>
              <text id="_0_4" data-name="0 / 4" transform="translate(138.865 209.187)" fill="#1c1c1a" font-size="46" font-family="ArialMT, Arial"><tspan x="0" y="0">0 / 4</tspan></text>
              <g id="Event_locatie" data-name="Event locatie" transform="translate(416.678 251.579)">
                <text id="CrossFit_Kampen" data-name="SportBit Manager" transform="translate(0 38)" fill="#1c1c1a" font-size="42" font-family="ArialMT, Arial"><tspan x="0" y="0" class="brandname">SportBit Manager</tspan></text>
              </g>
              <g id="Trainer_naam-3" data-name="Trainer naam" transform="translate(370.678 171.579)">
                <text id="Trainer-3" data-name="Trainer" transform="translate(0 44)" fill="#041019" font-size="46" font-family="ArialMT, Arial"><tspan x="0" y="0" class="trainer">Trainer</tspan></text>
              </g>
              <g id="Workout_naam_2-2" data-name="Workout naam 2" transform="translate(795.678 68.579)">
                <g id="Workout_naam-2" data-name="Workout naam">
                  <g id="Event_afkorting-2" data-name="Event afkorting">
                    <g id="Group_1671-2" data-name="Group 1671" transform="translate(.134 -.643)">
                      <path id="Rectangle_15-2" data-name="Rectangle 15" transform="translate(-.134 .643)" fill="#e0e0e0" d="M8 0h234a8 8 0 0 1 8 8v64a8 8 0 0 1 -8 8H8A8 8 0 0 1 0 72V8A8 8 0 0 1 8 0"/>
                      <text id="groepsles-2" data-name="groepsles" transform="translate(31.866 55.643)" fill="#041019" font-size="41" font-family="ArialMT, Arial"><tspan x="0" y="0">groepsles</tspan></text>
                    </g>
                  </g>
                </g>
              </g>
            </g>
            <g id="Group_7-3" data-name="Group 7" transform="translate(0 2194.365)">
              <path id="Rectangle_142-4" data-name="Rectangle 142" fill="#fff" d="M0 0h1372.761v375.221H0z"/>
              <path id="Path_1499" data-name="Path 1499" d="M0 0h230.624v230.624H0Z" transform="translate(69.553 76.875)" fill="#9fc546"/>
              <text id="_09:00_-_10:00" data-name="09:00 - 10:00" transform="translate(547.73 130.214)" fill="#1c1c1a" font-size="60" font-family="ArialMT, Arial"><tspan x="-177" y="0">09:00 - 10:00</tspan></text>
              <path id="Icon_material-location-on-5" data-name="Icon material-location-on" d="M23.262 3A15.75 15.75 0 0 0 7.5 18.762c0 11.821 15.762 29.273 15.762 29.273S39.025 30.584 39.025 18.762A15.75 15.75 0 0 0 23.262 3m0 21.391a5.629 5.629 0 1 1 5.629 -5.629 5.63 5.63 0 0 1 -5.629 5.629" transform="translate(363.188 248.882)" fill="#1c1c1a"/>
              <path id="Icon_material-keyboard-arrow-right-4" data-name="Icon material-keyboard-arrow-right" d="m12.885 52.665 19.047 -19.087 -19.047 -19.087 5.864 -5.864L43.7 33.578 18.749 58.529Z" transform="translate(1246.436 167.088)" fill="#1c1c1a"/>
              <text id="_5_12" data-name="5 / 12" transform="translate(120.803 208.731)" fill="#1c1c1a" font-size="46" font-family="ArialMT, Arial"><tspan x="0" y="0">5 / 12</tspan></text>
              <g id="Group_1674" data-name="Group 1674" transform="translate(783.389 68.071)">
                <g id="Workout_naam-3" data-name="Workout naam" transform="translate(-.134 -.357)">
                  <g id="Event_afkorting-3" data-name="Event afkorting">
                    <g id="Group_1671-3" data-name="Group 1671" transform="translate(.134 -.643)">
                      <path id="Rectangle_15-3" data-name="Rectangle 15" transform="translate(-.134 .643)" fill="#e0e0e0" d="M8 0h234a8 8 0 0 1 8 8v64a8 8 0 0 1 -8 8H8A8 8 0 0 1 0 72V8A8 8 0 0 1 8 0"/>
                      <text id="groepsles-3" data-name="groepsles" transform="translate(31.866 55.643)" fill="#041019" font-size="41" font-family="ArialMT, Arial"><tspan x="0" y="0">groepsles</tspan></text>
                    </g>
                  </g>
                </g>
              </g>
              <g id="Trainer_naam-4" data-name="Trainer naam" transform="translate(369.678 160.527)">
                <text id="Trainer-4" data-name="Trainer" transform="translate(0 44)" fill="#041019" font-size="46" font-family="ArialMT, Arial"><tspan x="0" y="0" class="trainer">Trainer</tspan></text>
              </g>
            </g>
            <g id="Group_7-4" data-name="Group 7" transform="translate(0 2571.416)">
              <path id="Rectangle_142-5" data-name="Rectangle 142" fill="#fff" d="M0 0h1372.761v375.221H0z"/>
              <path id="Path_1500" data-name="Path 1500" d="M0 0h230.624v230.624H0Z" transform="translate(69.553 76.875)" fill="#9fc546"/>
              <text id="_10:00_-_11:00" data-name="10:00 - 11:00" transform="translate(547.73 130.214)" fill="#1c1c1a" font-size="60" font-family="ArialMT, Arial"><tspan x="-175" y="0">10:00 - 11:00</tspan></text>
              <path id="Icon_material-location-on-6" data-name="Icon material-location-on" d="M23.262 3A15.75 15.75 0 0 0 7.5 18.762c0 11.821 15.762 29.273 15.762 29.273S39.025 30.584 39.025 18.762A15.75 15.75 0 0 0 23.262 3m0 21.391a5.629 5.629 0 1 1 5.629 -5.629 5.63 5.63 0 0 1 -5.629 5.629" transform="translate(363.188 248.882)" fill="#1c1c1a"/>
              <path id="Icon_material-keyboard-arrow-right-5" data-name="Icon material-keyboard-arrow-right" d="m12.885 52.665 19.047 -19.087 -19.047 -19.087 5.864 -5.864L43.7 33.578 18.749 58.529Z" transform="translate(1246.436 167.088)" fill="#1c1c1a"/>
              <text id="_0_12" data-name="0 / 12" transform="translate(120.803 208.731)" fill="#1c1c1a" font-size="46" font-family="ArialMT, Arial"><tspan x="0" y="0">0 / 12</tspan></text>
              <g id="Event_locatie-2" data-name="Event locatie" transform="translate(416.678 251.475)">
                <text id="CrossFit_Kampen-2" data-name="SportBit Manager" transform="translate(0 38)" fill="#1c1c1a" font-size="42" font-family="ArialMT, Arial"><tspan x="0" y="0" class="brandname">SportBit Manager</tspan></text>
              </g>
              <g id="Trainer_naam-5" data-name="Trainer naam" transform="translate(370.678 165.475)">
                <text id="Trainer-5" data-name="Trainer" transform="translate(0 44)" fill="#041019" font-size="46" font-family="ArialMT, Arial"><tspan x="0" y="0" class="trainer">Trainer</tspan></text>
              </g>
              <g id="Workout_naam_2-3" data-name="Workout naam 2" transform="translate(795.678 73.475)">
                <g id="Workout_naam-4" data-name="Workout naam">
                  <g id="Event_afkorting-4" data-name="Event afkorting">
                    <g id="Group_1671-4" data-name="Group 1671" transform="translate(.134 -.643)">
                      <path id="Rectangle_15-4" data-name="Rectangle 15" transform="translate(-.134 .643)" fill="#e0e0e0" d="M8 0h234a8 8 0 0 1 8 8v64a8 8 0 0 1 -8 8H8A8 8 0 0 1 0 72V8A8 8 0 0 1 8 0"/>
                      <text id="groepsles-4" data-name="groepsles" transform="translate(31.866 55.643)" fill="#041019" font-size="41" font-family="ArialMT, Arial"><tspan x="0" y="0">groepsles</tspan></text>
                    </g>
                  </g>
                </g>
              </g>
            </g>
            <g id="Group_7-5" data-name="Group 7" transform="translate(0 2948.468)">
              <path id="Rectangle_142-6" data-name="Rectangle 142" fill="#fff" d="M0 0h1372.761v375.221H0z"/>
              <path id="Rectangle_14" data-name="Rectangle 14" transform="translate(69.553 76.875)" fill="#1c1c1a" d="M0 0h230.624v230.624H0z"/>
              <text id="_06:00_-_07:00-2" data-name="06:00 - 07:00" transform="translate(547.73 130.214)" fill="#1c1c1a" font-size="60" font-family="ArialMT, Arial"><tspan x="-177" y="0">06:00 - 07:00</tspan></text>
              <text id="Tamara" transform="translate(369.73 208.731)" fill="#1c1c1a" font-size="46" font-family="ArialMT, Arial"><tspan x="0" y="0">Tamara</tspan></text>
              <text id="Hoofdruimte" transform="translate(424.641 292.588)" fill="#1c1c1a" font-size="42" font-family="ArialMT, Arial"><tspan x="0" y="0">Hoofdruimte</tspan></text>
              <path id="Icon_material-location-on-7" data-name="Icon material-location-on" d="M23.262 3A15.75 15.75 0 0 0 7.5 18.762c0 11.821 15.762 29.273 15.762 29.273S39.025 30.584 39.025 18.762A15.75 15.75 0 0 0 23.262 3m0 21.391a5.629 5.629 0 1 1 5.629 -5.629 5.63 5.63 0 0 1 -5.629 5.629" transform="translate(363.188 248.882)" fill="#1c1c1a"/>
              <path id="Icon_material-keyboard-arrow-right-6" data-name="Icon material-keyboard-arrow-right" d="m12.885 52.665 19.047 -19.087 -19.047 -19.087 5.864 -5.864L43.7 33.578 18.749 58.529Z" transform="translate(1246.436 167.088)" fill="#1c1c1a"/>
              <g id="Group_10" data-name="Group 10" transform="translate(783.389 69.553)">
                <path id="Rectangle_15-5" data-name="Rectangle 15" fill="#041019" d="M8 0h148.731a8 8 0 0 1 8 8v64.535a8 8 0 0 1 -8 8H8a8 8 0 0 1 -8 -8V8A8 8 0 0 1 8 0"/>
                <text id="WOD" transform="translate(82.366 55.767)" fill="#1c1c1a" font-size="41" font-family="Arial-BoldMT, Arial" font-weight="700"><tspan x="-50" y="0">WOD</tspan></text>
              </g>
              <text id="_0_14" data-name="0 / 14" transform="translate(120.803 208.731)" fill="#fff" font-size="46" font-family="ArialMT, Arial"><tspan x="0" y="0">0 / 14</tspan></text>
            </g>
            <path id="Icon_awesome-user-friends" data-name="Icon awesome-user-friends" d="M24.91 31.313A14.531 14.531 0 1 0 10.379 16.781 14.525 14.525 0 0 0 24.91 31.313m9.964 4.152h-1.074a20.063 20.063 0 0 1 -17.774 0h-1.08A14.95 14.95 0 0 0 0 50.409v3.738a6.23 6.23 0 0 0 6.228 6.228h37.365a6.23 6.23 0 0 0 6.228 -6.228v-3.738A14.95 14.95 0 0 0 34.875 35.462Zm27.4 -4.152a12.455 12.455 0 1 0 -12.454 -12.455 12.463 12.463 0 0 0 12.455 12.455Zm6.226 4.151h-0.493a16.375 16.375 0 0 1 -11.469 0h-0.493a14.375 14.375 0 0 0 -7.226 2 19 19 0 0 1 5.151 12.948v4.982c0 0.285 -0.065 0.557 -0.077 0.83h22.914a6.23 6.23 0 0 0 6.228 -6.228A14.525 14.525 0 0 0 68.5 35.462" transform="translate(1084.149 1233.46)" fill="#1c1c1a"/>
            <path id="Icon_awesome-user-friends-2" data-name="Icon awesome-user-friends" d="M24.91 31.313A14.531 14.531 0 1 0 10.379 16.781 14.525 14.525 0 0 0 24.91 31.313m9.964 4.152h-1.074a20.063 20.063 0 0 1 -17.774 0h-1.08A14.95 14.95 0 0 0 0 50.409v3.738a6.23 6.23 0 0 0 6.228 6.228h37.365a6.23 6.23 0 0 0 6.228 -6.228v-3.738A14.95 14.95 0 0 0 34.875 35.462Zm27.4 -4.152a12.455 12.455 0 1 0 -12.454 -12.455 12.463 12.463 0 0 0 12.455 12.455Zm6.226 4.151h-0.493a16.375 16.375 0 0 1 -11.469 0h-0.493a14.375 14.375 0 0 0 -7.226 2 19 19 0 0 1 5.151 12.948v4.982c0 0.285 -0.065 0.557 -0.077 0.83h22.914a6.23 6.23 0 0 0 6.228 -6.228A14.525 14.525 0 0 0 68.5 35.462" transform="translate(1084.149 1987.564)" fill="#1c1c1a"/>
            <g id="Workout_naam-5" data-name="Workout naam" transform="translate(785.255 1136.476)">
              <g id="Event_afkorting-5" data-name="Event afkorting">
                <g id="Group_1671-5" data-name="Group 1671" transform="translate(.134 -.643)">
                  <path id="Rectangle_15-6" data-name="Rectangle 15" transform="translate(-.134 .643)" fill="#e0e0e0" d="M8 0h234a8 8 0 0 1 8 8v64a8 8 0 0 1 -8 8H8A8 8 0 0 1 0 72V8A8 8 0 0 1 8 0"/>
                  <text id="groepsles-5" data-name="groepsles" transform="translate(31.866 55.643)" fill="#041019" font-size="41" font-family="ArialMT, Arial"><tspan x="0" y="0">groepsles</tspan></text>
                </g>
              </g>
            </g>
            <g id="Event_locatie-3" data-name="Event locatie" transform="translate(415.678 2442.892)">
              <text id="CrossFit_Kampen-3" data-name="SportBit Manager" transform="translate(0 38)" fill="#1c1c1a" font-size="42" font-family="ArialMT, Arial"><tspan x="0" y="0" class="brandname">SportBit Manager</tspan></text>
            </g>
          </g>
          <g id="Event_locatie-4" data-name="Event locatie" transform="translate(419.711 1313.79)">
            <text id="CrossFit_Kampen-4" data-name="SportBit Manager" transform="translate(0 38)" fill="#1c1c1a" font-size="42" font-family="ArialMT, Arial"><tspan x="0" y="0" class="brandname">SportBit Manager</tspan></text>
          </g>
          <g id="Event_locatie-5" data-name="Event locatie" transform="translate(419.711 1691.79)">
            <text id="CrossFit_Kampen-5" data-name="SportBit Manager" transform="translate(0 38)" fill="#1c1c1a" font-size="42" font-family="ArialMT, Arial"><tspan x="0" y="0" class="brandname">SportBit Manager</tspan></text>
          </g>
        </g>
      </g>
    </g>
    <path id="Subtraction_5" data-name="Subtraction 5" d="M1234.9 3007.4H203.974a203.025 203.025 0 0 1 -114.044 -34.831 204.625 204.625 0 0 1 -73.9 -89.742A202.75 202.75 0 0 1 0 2803.43V203.97a203 203 0 0 1 34.835 -114.04 204.537 204.537 0 0 1 89.742 -73.9A202.75 202.75 0 0 1 203.974 0H1234.9a203.038 203.038 0 0 1 114.042 34.834 204.625 204.625 0 0 1 73.9 89.742 202.75 202.75 0 0 1 16.029 79.394v2599.46a203 203 0 0 1 -34.835 114.044 204.563 204.563 0 0 1 -89.741 73.9 202.75 202.75 0 0 1 -79.396 16.026M189.834 42.369a83.75 83.75 0 0 0 -13.246 1c-0.938 0.081 -9.131 0.807 -12.588 1.782 -1.224 0.34 -2.592 0.683 -4.044 1.047a111.25 111.25 0 0 0 -13.371 4.008l-1.718 0.664c-12.968 5.008 -29.1 11.239 -45.578 24.52a133.25 133.25 0 0 0 -24.273 25.8 183.5 183.5 0 0 0 -21.528 40.3c-8.59 21.864 -10.063 47.661 -11.49 72.61l-0.278 4.834c0.152 33.469 0.122 62.534 0.069 81.022a158.75 158.75 0 0 0 -0.681 14.7v2495.1a156.407 156.407 0 0 0 156.536 156.537h1046.743a156.407 156.407 0 0 0 156.54 -156.537V315.359h0.271l-3.743 -133.381c-0.027 -0.261 -2.759 -26.146 -9.3 -40.858a226.25 226.25 0 0 0 -12.428 -24.464 146 146 0 0 0 -18.637 -24.95c-10.476 -11.242 -24.981 -21.917 -41.945 -30.871 -4.662 -2.461 -21.091 -10.814 -36.71 -14.944 -4.579 -1.212 -4.876 -1.235 -6.528 -1.351h-0.051a72.5 72.5 0 0 1 -3.2 -0.291c-5.393 -0.6 -11.858 -0.78 -11.92 -0.782l-190.027 -0.459c-0.068 0 -0.3 -0.019 -0.653 -0.019 -2.581 0 -11.044 0.689 -11.582 9.556a65 65 0 0 0 0.7 11.444c0.461 3.847 0.9 7.482 0.522 10.329 -2.229 16.92 -5.863 23.77 -13.213 36.454a68.375 68.375 0 0 1 -12.158 15.582 53.125 53.125 0 0 1 -11.783 8.464 36.75 36.75 0 0 1 -12.421 4.181l-0.053 0.018 0.021 -0.016c-0.1 0.041 -0.135 0.053 -0.138 0.055s0.07 -0.022 0.117 -0.039c-3.2 1.655 -7.572 2.517 -11.082 3.211a75.625 75.625 0 0 1 -11.879 0.9h-0.037l-508.079 0.706h-0.006c-0.333 0 -11.831 -0.022 -19.45 -0.6a61.25 61.25 0 0 1 -11.619 -1.75 83.25 83.25 0 0 1 -17.379 -7.284 79.25 79.25 0 0 1 -14.94 -10.6 62 62 0 0 1 -13.084 -16.549c-6.667 -12.432 -9.64 -28.863 -10.961 -40.459 -0.222 -1.956 -0.4 -3.731 -0.58 -5.446l-0.005 -0.053c-0.716 -7.023 -1.19 -11.662 -3.184 -14.558S378.341 42.5 371.489 42.5h-2.189c-9.931 0 -41.446 -0.027 -70.965 -0.055 -41.152 -0.035 -87.791 -0.075 -108.501 -0.077" transform="translate(601.262 183.185)"/>
    <path id="Rectangle_81" data-name="Rectangle 81" transform="translate(1244.555 239.111)" fill="#fff" opacity=".2" d="M17.665 0h124.761a17.663 17.663 0 0 1 17.665 17.665 17.663 17.663 0 0 1 -17.665 17.665H17.665A17.663 17.663 0 0 1 0 17.665 17.663 17.663 0 0 1 17.665 0"/>
    <path id="Ellipse_27" data-name="Ellipse 27" transform="translate(1434.456 226.966)" fill="#fff" opacity=".2" d="M52.996 29.81a26.498 29.81 0 0 1 -26.499 29.81A26.498 29.81 0 0 1 0 29.81a26.498 29.81 0 0 1 52.996 0"/>
  </g>
</svg>