<?xml version="1.0" encoding="UTF-8"?>
<svg id="Event" xmlns="http://www.w3.org/2000/svg" version="1.1" xmlns:xlink="http://www.w3.org/1999/xlink" viewBox="0 0 1465.8 3036.2">
  <!-- Generator: Adobe Illustrator 29.5.1, SVG Export Plug-In . SVG Version: 2.1.0 Build 141)  -->
  <defs>
    <clipPath id="clippath">
      <rect x="55.6" y="56.5" width="1363" height="2931" rx="141.3" ry="141.3" fill="none"/>
    </clipPath>
  </defs>
  <g id="Group_1535">
    <path id="Path_1440" d="M223.9,18.1h1010.9c120.8,0,218.7,93,218.7,213.8v2567.5c0,120.8-97.9,218.7-218.7,218.7H223.9c-120.8,0-218.7-97.9-218.7-218.7V231.9C5.1,111.1,103.1,18.1,223.9,18.1Z" fill="#fff"/>
    <g id="Group_1394">
      <g id="Group_1391">
        <g >
          <g id="Group_2">
            <g id="Group_1537">
              <rect id="Rectangle_95" x="58.6" y="192.2" width="1360" height="2937" fill="#fff"/>
              <g id="Event_View_Titel">
                <g id="Groepsles" isolation="isolate">
                  <text transform="translate(120.5 533.5)" fill="#141414" font-family="ArialMT, Arial" font-size="72.1" isolation="isolate"><tspan x="0" y="0">Groepsles</tspan></text>
                </g>
              </g>
              <g id="Zaterdag_31_aug._2024" isolation="isolate">
                <text transform="translate(120 628.6)" fill="#121212" font-family="ArialMT, Arial" font-size="50.4" isolation="isolate"><tspan x="0" y="0" class="year">Zaterdag, 6 sep. {year}</tspan></text>
              </g>
              <path id="Icon_material-location-on" d="M135.6,676.9c-8.6,0-15.6,7-15.6,15.6,0,0,0,0,0,0,0,11.7,15.6,28.9,15.6,28.9,0,0,15.6-17.2,15.6-28.9,0-8.6-7-15.6-15.6-15.6,0,0,0,0,0,0ZM135.6,698c-3.1,0-5.6-2.5-5.6-5.6,0-3.1,2.5-5.6,5.6-5.6s5.6,2.5,5.6,5.6h0c0,3.1-2.5,5.6-5.6,5.6Z" fill="#121212"/>
              <g id="_08:00" isolation="isolate">
                <text transform="translate(1096.6 699.4)" fill="#121212" font-family="ArialMT, Arial" font-size="96.8" isolation="isolate"><tspan x="0" y="0">08:00</tspan></text>
              </g>
              <g id="Event-2" isolation="isolate">
                <text transform="translate(646.7 316.6)" fill="#fff" font-family="Arial-BoldMT, Arial" font-size="61.3" font-weight="700" isolation="isolate"><tspan x="0" y="0">Event</tspan></text>
              </g>
              <path id="Icon_ionic-md-arrow-back" d="M192.9,299.8h-55.6l25.6-25.6-6.6-6.4-36.6,36.6,36.6,36.6,6.4-6.4-25.4-25.6h55.6v-9.1Z" fill="#fff"/>
              <path id="Icon_material-edit" d="M1273.3,311.8v11.8h11.8l34.9-34.9-11.8-11.8-34.9,34.9ZM1329.2,279.6c1.2-1.2,1.2-3.2,0-4.4,0,0,0,0,0,0l-7.4-7.4c-1.2-1.2-3.2-1.2-4.4,0,0,0,0,0,0,0l-5.8,5.8,11.8,11.8,5.8-5.8Z" fill="#fff"/>
              <rect id="Rectangle_21" x="58.6" y="2038" width="1356.4" height="1121.3" fill="#ededed"/>
              <g id="Informatie" isolation="isolate">
                <text transform="translate(120 2458.9)" fill="#121212" font-family="Arial-BoldMT, Arial" font-size="49.4" font-weight="700" isolation="isolate"><tspan x="0" y="0">Informatie</tspan></text>
              </g>
              <g id="Lorem_ipsum_dolor_sit_amet_consectetur_adipiscing_elit._Vivamus_nec_sem_nibh._Vivamus_id_venenatis_quam._Donec_eu_turpis_eu_massa_pellentesque_aliquet_sit_amet_et_orci._Vestibulum_eget_turpis_consectetur_fermentum_tellus_non_faucibus_sem._Donec_et" isolation="isolate">
                <text transform="translate(120 2587.2)" fill="#121212" font-family="ArialMT, Arial" font-size="48.4" isolation="isolate"><tspan x="0" y="0">Lorem ipsum dolor sit amet, consectetur adipiscing </tspan></text>
                <text transform="translate(120 2642.5)" fill="#121212" font-family="ArialMT, Arial" font-size="48.4" isolation="isolate"><tspan x="0" y="0">elit. Vivamus nec sem nibh. Vivamus id venenatis </tspan></text>
                <text transform="translate(120 2697.8)" fill="#121212" font-family="ArialMT, Arial" font-size="48.4" isolation="isolate"><tspan x="0" y="0">quam. </tspan></text>
                <text transform="translate(120 2808.5)" fill="#121212" font-family="ArialMT, Arial" font-size="48.4" isolation="isolate"><tspan x="0" y="0">Donec eu turpis eu massa pellentesque aliquet sit </tspan></text>
                <text transform="translate(120 2863.8)" fill="#121212" font-family="ArialMT, Arial" font-size="48.4" isolation="isolate"><tspan x="0" y="0">amet et orci. Vestibulum eget turpis consectetur, </tspan></text>
                <text transform="translate(120 2919.2)" fill="#121212" font-family="ArialMT, Arial" font-size="48.4" isolation="isolate"><tspan x="0" y="0">fermentum tellus non, faucibus sem. Donec et </tspan></text>
                <text transform="translate(120 2974.5)" fill="#121212" font-family="ArialMT, Arial" font-size="48.4" isolation="isolate"><tspan x="0" y="0">sagittis ex. Suspendisse sed interdum mauris. Sed </tspan></text>
                <text transform="translate(120 3029.8)" fill="#121212" font-family="ArialMT, Arial" font-size="48.4" isolation="isolate"><tspan x="0" y="0">vestibulum urna eget ante lacinia ultrices.</tspan></text>
              </g>
              <g id="Trainer_" isolation="isolate">
                <text transform="translate(240.5 2162.1)" fill="#121212" font-family="Arial-BoldMT, Arial" font-size="49.4" font-weight="700" isolation="isolate"><tspan x="0" y="0" class="trainer">Trainer</tspan></text>
              </g>
              <g id="Toegang_Betaling_via_lidmaatschap" isolation="isolate">
                <text transform="translate(788.4 2163.1)" fill="#121212" font-family="Arial-BoldMT, Arial" font-size="49.4" font-weight="700" isolation="isolate"><tspan x="0" y="0">Toegang</tspan></text>
                <text transform="translate(788.4 2217.5)" fill="#121212" font-family="ArialMT, Arial" font-size="45.5" isolation="isolate"><tspan x="0" y="0">Betaling via lidmaatschap</tspan></text>
              </g>
              <path id="Icon_awesome-chalkboard-teacher" d="M144.7,2189.4c-.3,0-.6,0-.9.1-1.7.6-3.4.9-5.2.9-1.8,0-3.5-.3-5.2-.9-.3,0-.6-.1-.9-.1-7.9,0-14.2,6.4-14.2,14.2,0,0,0,0,0,0,0,3.3,2.8,6,6.1,6h28.5c3.3,0,6.1-2.7,6.1-6,0-7.9-6.3-14.3-14.2-14.3,0,0,0,0,0,0ZM138.6,2185.4c6.7,0,12.2-5.5,12.2-12.2s-5.5-12.2-12.2-12.2c-6.7,0-12.2,5.5-12.2,12.2,0,6.7,5.5,12.2,12.2,12.2h0ZM193.5,2144.7h-48.8c-3.4,0-6.2,2.9-6.1,6.3v5.9c2.9,0,5.7.8,8.1,2.3v-6.3h44.8v36.6h-8.1v-8.1h-16.3v8.1h-9.7c2.5,2.1,4.2,5,5,8.1h31.1c3.4,0,6.2-2.9,6.1-6.3v-40.3c0-3.4-2.7-6.2-6.1-6.3Z" fill="#121212"/>
              <rect x="738.9" y="1644.6" width="1" height="1358.2" transform="translate(-1586.2 3057) rotate(-89.8)" fill="#7f7f7f" isolation="isolate" opacity=".2"/>
              <rect x="738.9" y="1358.9" width="1" height="1358.2" transform="translate(-1300.5 2772) rotate(-89.8)" fill="#7f7f7f" isolation="isolate" opacity=".2"/>
              <path class="brandbutton" id="Path_1506" d="M129.9,1758.4h1202.8c5.5,0,9.9,4.4,9.9,9.9v153.9c0,5.5-4.4,9.9-9.9,9.9H129.9c-5.5,0-9.9-4.4-9.9-9.9v-153.9c0-5.5,4.4-9.9,9.9-9.9Z" />
              <g id="Aanmelden" isolation="isolate">
                <text transform="translate(568.5 1868.3)" fill="#fff" font-family="Arial-BoldMT, Arial" font-size="61.3" font-weight="700" isolation="isolate"><tspan x="0" y="0">Aanmelden</tspan></text>
              </g>
              <g id="Groepslessen" isolation="isolate">
                <text transform="translate(120 1598)" fill="#121212" font-family="ArialMT, Arial" font-size="50.4" isolation="isolate"><tspan x="0" y="0">Groepslessen</tspan></text>
              </g>
              <g id="_1_2_Credits" isolation="isolate">
                <text transform="translate(1053.2 1598)" fill="#121212" font-family="ArialMT, Arial" font-size="50.4" isolation="isolate"><tspan x="0" y="0">1 / 2 Credits</tspan></text>
              </g>
              <g id="_01-09-2024_tot_01-10-2024" isolation="isolate">
                <text transform="translate(720.5 1667.3)" fill="#121212" font-family="ArialMT, Arial" font-size="48.4" isolation="isolate"><tspan x="0" y="0" class="year">01-09-{year} tot 01-10-{year}</tspan></text>
              </g>
              <g id="_2x_per_week" isolation="isolate">
                <text transform="translate(120 1663.7)" fill="#121212" font-family="ArialMT, Arial" font-size="48.4" isolation="isolate"><tspan x="0" y="0">2x per week</tspan></text>
              </g>
              <path id="Path_1512" class="tabbarColor" d="M121,78.5l29.8-20.2h1159.9l44.3,38.8,59.9,58.5v228.2H58.6v-237.7l62.5-67.7Z" />
              <g id="Event-3" isolation="isolate">
                <text transform="translate(646.7 313)" fill="#fff" font-family="Arial-BoldMT, Arial" font-size="61.3" font-weight="700" isolation="isolate"><tspan x="0" y="0">Event</tspan></text>
              </g>
              <path id="Icon_ionic-md-arrow-back-2" d="M192.9,285.4h-55.6l25.6-25.6-6.6-6.4-36.6,36.6,36.6,36.6,6.4-6.4-25.4-25.6h55.6v-9.1Z" fill="#fff"/>
              <g id="Rectangle_104" opacity="0">
                <rect x="80.3" y="235.6" width="115.7" height="108.5" fill="#fff"/>
                <path d="M196,344.1h-115.8v-108.5h115.8v108.5ZM81.2,343.1h113.8v-106.5h-113.8v106.5Z" fill="#7f7f7f"/>
              </g>
              <g id="Deelnemers_1_1" isolation="isolate">
                <text transform="translate(120 3300.2)" fill="#121212" font-family="ArialMT, Arial" font-size="55.3" isolation="isolate"><tspan x="0" y="0">Deelnemers 1 / 1</tspan></text>
              </g>
              <rect x="60.4" y="3158.7" width="1356.4" height="1" fill="#7f7f7f" isolation="isolate" opacity=".3"/>
              <path id="Icon_material-keyboard-arrow-right" d="M1306,3303.5l24.8-24.9-24.8-24.9,7.6-7.6,32.6,32.5-32.6,32.6-7.6-7.7Z" fill="#121212"/>
              <rect x="60.4" y="3399.3" width="1356.4" height="1" fill="#7f7f7f" isolation="isolate" opacity=".3"/>
              <g id="Event_locatie">
                <g id="Health_Club_Kickfit" isolation="isolate">
                  <text transform="translate(164 711.4)" fill="#121212" font-family="ArialMT, Arial" font-size="41.5" isolation="isolate"><tspan x="0" y="0" class="brandname">SportBit Manager</tspan></text>
                </g>
              </g>
              <g id="Trainer_naam">
                <g id="Trainer" isolation="isolate">
                  <text transform="translate(240.5 2217.2)" font-family="ArialMT, Arial" font-size="45.5" isolation="isolate"><tspan x="0" y="0">Tim</tspan></text>
                </g>
              </g>
            </g>
          </g>
        </g>
      </g>
    </g>
    <path id="Subtraction_5" d="M1238.2,3004.6H219.6c-40.2,0-79.4-11.9-112.7-34.4-32.4-21.9-57.8-52.7-73-88.7-10.5-24.8-15.9-51.5-15.8-78.5V234.6c0-40.2,11.9-79.4,34.4-112.7,21.9-32.4,52.7-57.8,88.7-73,24.8-10.5,51.5-15.9,78.5-15.8h1018.6c40.2,0,79.4,11.9,112.7,34.4,32.4,21.9,57.8,52.7,73,88.7,10.5,24.8,15.9,51.5,15.8,78.4v2568.5c0,40.2-11.9,79.4-34.4,112.7-21.9,32.4-52.7,57.8-88.7,73-24.8,10.5-51.5,15.9-78.5,15.8ZM205.6,74.9h0c-4.4,0-8.8.3-13.1,1-.9,0-9,.8-12.4,1.8-1.2.3-2.6.7-4,1-4.5,1-8.9,2.4-13.2,4l-1.7.7c-12.8,4.9-28.8,11.1-45,24.2-9.1,7.4-17.2,16-24,25.5-8.7,12.3-15.9,25.7-21.3,39.8-8.5,21.6-9.9,47.1-11.4,71.7,0,1.6-.2,3.2-.3,4.8.2,33.1.1,61.8,0,80.1-.4,4.8-.7,9.7-.7,14.5v2465.4c0,85.4,69.1,154.6,154.4,154.7h1034.5c85.4,0,154.6-69.1,154.7-154.4,0,0,0-.2,0-.3V344.7h.3l-3.7-131.8c0-.3-2.7-25.8-9.2-40.4-3.6-8.3-7.7-16.4-12.3-24.2-5.2-8.9-11.4-17.1-18.4-24.7-10.4-11.1-24.7-21.7-41.4-30.5-4.6-2.4-20.8-10.7-36.3-14.8-4.5-1.2-4.8-1.2-6.4-1.3h0c-.7,0-1.6-.1-3.2-.3-5.3-.6-11.7-.8-11.8-.8l-187.8-.5c0,0-.3,0-.6,0-2.6,0-10.9.7-11.4,9.4-.1,3.8.1,7.6.7,11.3.5,3.8.9,7.4.5,10.2-2.2,16.7-5.8,23.5-13.1,36-3.2,5.7-7.3,10.9-12,15.4-3.5,3.3-7.4,6.1-11.6,8.4-3.8,2.1-8,3.5-12.3,4.1h0s0,0,0,0c0,0-.1,0-.1,0s0,0,.1,0c-3.2,1.6-7.5,2.5-11,3.2-3.9.6-7.8.9-11.7.9h0l-502,.7h0c-.3,0-11.7,0-19.2-.6-3.9-.2-7.7-.8-11.5-1.7-6-1.7-11.7-4.2-17.2-7.2-5.3-2.9-10.3-6.4-14.8-10.5-5.2-4.7-9.6-10.2-12.9-16.4-6.6-12.3-9.5-28.5-10.8-40-.2-1.9-.4-3.7-.6-5.4h0c-.7-7-1.2-11.6-3.1-14.4s-5.4-4-12.2-4h-2.2c-9.8,0-41,0-70.1,0-40.7,0-86.7,0-107.2,0Z"/>
    <path id="Rectangle_81" d="M671.1,88.3h123.3c9.6,0,17.5,7.8,17.5,17.5h0c0,9.6-7.8,17.5-17.5,17.5h-123.3c-9.6,0-17.5-7.8-17.5-17.5h0c0-9.6,7.8-17.5,17.5-17.5Z" fill="#fff" isolation="isolate" opacity=".2"/>
    <ellipse id="Ellipse_27" cx="867.5" cy="105.8" rx="26.2" ry="29.5" fill="#fff" isolation="isolate" opacity=".2"/>
  </g>
</svg>