<svg id="Laag_1" xmlns="http://www.w3.org/2000/svg" version="1.1"
  xmlns:xlink="http://www.w3.org/1999/xlink" class="svgviewbox"> 
  <defs>
    <clipPath id="clippath">
      <path
        d="M640.2,618.2l1056.2,283.2c76.3,20.5,121.6,98.9,101.1,175.2l-694.2,2589.2c-20.5,76.3-98.9,121.6-175.2,101.1l-1056.2-283.2c-76.3-20.5-121.6-98.9-101.1-175.2L465,719.3c20.5-76.3,98.9-121.6,175.2-101.1Z"
        fill="none" />
    </clipPath>
  </defs>
  <rect class="background" transform="translate(-150 -150)" width="150%" height="150%" opacity="0.1" />

  <g clip-path="url(#clippath)" class="shadowtext" transform="translate(3% 5.25%)" transform-origin="top left">
    <g id="Component_22_2" opacity=".5">
      <g isolation="isolate">
        <path d="M81.1,222.1h20.7v7.7h-20.7v19.2h24l2.1,8.2h-35.5v-57.1h35l-2.1,7.8h-23.5v14.2Z" />
        <path
          d="M121.2,237.3v4.4c0,3,.7,5.3,2,6.9,1.4,1.6,3.3,2.4,6,2.4s3.9-.6,5.3-1.8c1.3-1.2,2.5-2.9,3.4-5.1l7.9,2.1c-1.8,4.1-3.9,7.1-6.5,9-2.6,1.9-6,2.9-10.1,2.9s-9.6-1.6-12.4-4.7c-2.9-3.1-4.3-8.2-4.3-15.2v-3.6c0-6.6,1.5-11.6,4.4-14.9,2.9-3.3,6.8-5,11.6-5s8.6,1.7,11.4,5,4.3,8.2,4.3,14.8v2.9h-23ZM123.2,223.8c-1.3,1.7-2,4-2,7h0c0,0,14.3,0,14.3,0h0c0-3-.7-5.3-2-7-1.3-1.7-3-2.5-5.2-2.5s-3.9.8-5.2,2.5Z" />
        <path
          d="M181.4,217.8c2.1,2.1,3.2,5.1,3.2,9.2v30.2h-8.6v-28.7c0-4.3-1.8-6.5-5.3-6.5s-2.8.4-4,1.3c-1.3.9-2.5,2-3.8,3.4l-1.4,1.4v29.1h-8.6v-41.5h8v5.4l1.5-1.6c3-3.2,6.5-4.8,10.4-4.8s6.3,1,8.5,3.1Z" />
        <path
          d="M224.7,256.6c-1.6-1-3-2.4-4.3-4.2v18.4h-8.6v-55.2h8.1v4.6c1.2-1.8,2.7-3.1,4.6-4.1,1.8-1,3.8-1.5,5.9-1.5,4.3,0,7.7,1.6,10.2,4.7,2.5,3.1,3.7,8.2,3.7,15.2v3.6c0,7-1.2,12.1-3.7,15.2-2.5,3.1-5.9,4.7-10.2,4.7s-4.1-.5-5.7-1.5ZM228.3,221.6c-1.7,0-3.2.6-4.6,1.7-1.4,1.1-2.5,2.6-3.3,4.3v17.5c.9,1.8,2,3.2,3.4,4.3,1.4,1.1,2.9,1.7,4.5,1.7,4.8,0,7.2-3.1,7.2-9.3v-11c0-6.2-2.4-9.3-7.2-9.3Z" />
        <path
          d="M253,200h8.6v50.5h2.6l2.1,6.6c-1.9.2-3.7.3-5.4.3s-3.5-.2-4.6-.6c-1.1-.4-1.9-1.2-2.5-2.4-.6-1.2-.8-3.1-.8-5.6v-48.8Z" />
        <path
          d="M279.4,237.3v4.4c0,3,.7,5.3,2,6.9,1.4,1.6,3.3,2.4,6,2.4s3.9-.6,5.3-1.8c1.3-1.2,2.5-2.9,3.4-5.1l7.9,2.1c-1.8,4.1-3.9,7.1-6.5,9-2.6,1.9-6,2.9-10.1,2.9s-9.6-1.6-12.4-4.7c-2.9-3.1-4.3-8.2-4.3-15.2v-3.6c0-6.6,1.5-11.6,4.4-14.9,2.9-3.3,6.8-5,11.6-5s8.6,1.7,11.4,5,4.3,8.2,4.3,14.8v2.9h-23ZM281.4,223.8c-1.3,1.7-2,4-2,7h0c0,0,14.3,0,14.3,0h0c0-3-.7-5.3-2-7-1.3-1.7-3-2.5-5.2-2.5s-3.9.8-5.2,2.5Z" />
        <path
          d="M334.2,257.1l-10.8-21.7-3.7,4.2v17.5h-8.6v-57.1h8.6v29l11.8-13.4h10.1l-12.3,13.9,13.8,27.6h-8.9Z" />
        <path
          d="M348.9,264.3v-48.6h8.6v46.9c0,2.6-.3,4.4-.8,5.6-.6,1.2-1.5,2-2.8,2.4-1.3.4-3.3.6-5.9.6s-4.9,0-6.1-.2l2-6.6h5ZM348.9,200h8.6v8.2h-8.6v-8.2Z" />
        <path
          d="M375,237.3v4.4c0,3,.7,5.3,2,6.9,1.4,1.6,3.3,2.4,6,2.4s3.9-.6,5.3-1.8c1.3-1.2,2.5-2.9,3.4-5.1l7.9,2.1c-1.8,4.1-3.9,7.1-6.5,9-2.6,1.9-6,2.9-10.1,2.9s-9.6-1.6-12.4-4.7c-2.9-3.1-4.3-8.2-4.3-15.2v-3.6c0-6.6,1.5-11.6,4.4-14.9,2.9-3.3,6.8-5,11.6-5s8.6,1.7,11.4,5,4.3,8.2,4.3,14.8v2.9h-23ZM377,223.8c-1.3,1.7-2,4-2,7h0c0,0,14.3,0,14.3,0h0c0-3-.7-5.3-2-7-1.3-1.7-3-2.5-5.2-2.5s-3.9.8-5.2,2.5Z" />
        <path d="M452.2,215.6l-12.6,41.5h-7.8l-12.6-41.5h8l8.3,28.4,8.2-28.4h8.5Z" />
        <path
          d="M473.6,215.9c1.9-.8,4.3-1.2,7.3-1.2l-2.7,9.1c-2.1,0-3.9.4-5.6,1.2-1.6.8-2.9,1.7-3.9,2.9l-1.3,1.5v27.8h-8.6v-41.5h8v6.2l1.4-1.7c1.7-2,3.4-3.5,5.3-4.3Z" />
        <path d="M487.3,200h8.6v8.2h-8.6v-8.2ZM487.3,215.6h8.6v41.5h-8.6v-41.5Z" />
        <path
          d="M506.7,264.3v-48.6h8.6v46.9c0,2.6-.3,4.4-.8,5.6-.6,1.2-1.5,2-2.8,2.4-1.3.4-3.3.6-5.9.6s-4.9,0-6.1-.2l2-6.6h5ZM506.7,200h8.6v8.2h-8.6v-8.2Z" />
        <path
          d="M548.9,202.1c2.7,2.2,4,5.3,4,9.3s-.5,4.7-1.4,6.6c-1,1.9-2.6,4-4.9,6.4l-2.3,2.6c-2.7,2.9-4,6.1-4,9.5v3.8h-6.7v-4.7c0-2.8.4-5.1,1.1-6.9.7-1.8,2-3.7,3.8-5.9l1.6-2c1.2-1.5,2.1-3,2.7-4.4.6-1.4.9-2.9.9-4.4s-.6-3-1.8-4c-1.2-1-2.7-1.6-4.6-1.6-3.5,0-6.2,1.9-8.1,5.8l-6.2-3.3c1.4-3.4,3.5-5.9,6.2-7.6,2.7-1.7,5.8-2.6,9.2-2.6s7.7,1.1,10.4,3.3ZM532,246.8h9.9v10.3h-9.9v-10.3Z" />
      </g>
      <g isolation="isolate">
        <path
          d="M108.7,340.8c1.2,2.3,1.8,5.3,1.8,9,0,6-1.3,10.4-4,13.2-2.7,2.7-6.6,4.1-11.8,4.1h-23v-57.1h21.4c10.4,0,15.6,4.7,15.6,14.2s-.5,5.3-1.6,7.2c-1.1,1.9-2.7,3.3-4.7,4.2,3,1.2,5.1,2.9,6.3,5.2ZM81.1,317.7v14.7h10.6c2.7,0,4.6-.5,5.8-1.6,1.2-1,1.8-3,1.8-5.8s-.6-4.8-1.8-5.8c-1.2-1-3.1-1.6-5.8-1.6h-10.6ZM97.6,358.7c1.1-.5,1.9-1.5,2.4-2.9.5-1.4.8-3.4.8-5.9,0-3.8-.6-6.4-1.8-7.7-1.2-1.4-3.1-2-5.8-2h-12.1v19.4h12.1c1.8,0,3.3-.3,4.4-.8Z" />
        <path
          d="M126.2,347.3v4.4c0,3,.7,5.3,2,6.9,1.4,1.6,3.3,2.4,6,2.4s3.9-.6,5.3-1.8c1.3-1.2,2.5-2.9,3.4-5.1l7.9,2.1c-1.8,4.1-3.9,7.1-6.5,9-2.6,1.9-6,2.9-10.1,2.9s-9.6-1.6-12.4-4.7c-2.9-3.1-4.3-8.2-4.3-15.2v-3.6c0-6.6,1.5-11.6,4.4-14.9,2.9-3.3,6.8-5,11.6-5s8.6,1.7,11.4,5,4.3,8.2,4.3,14.8v2.9h-23ZM128.2,333.8c-1.3,1.7-2,4-2,7h0c0,0,14.3,0,14.3,0h0c0-3-.7-5.3-2-7-1.3-1.7-3-2.5-5.2-2.5s-3.9.8-5.2,2.5Z" />
        <path
          d="M181,367.1l-10.8-21.7-3.7,4.2v17.5h-8.6v-57.1h8.6v29l11.8-13.4h10.1l-12.3,13.9,13.8,27.6h-8.9Z" />
        <path d="M195.7,310h8.6v8.2h-8.6v-8.2ZM195.7,325.6h8.6v41.5h-8.6v-41.5Z" />
        <path
          d="M215,374.3v-48.6h8.6v46.9c0,2.6-.3,4.4-.8,5.6-.6,1.2-1.5,2-2.8,2.4-1.3.4-3.3.6-5.9.6s-4.9,0-6.1-.2l2-6.6h5ZM215,310h8.6v8.2h-8.6v-8.2Z" />
        <path
          d="M257.4,367.1l-10.8-21.7-3.7,4.2v17.5h-8.6v-57.1h8.6v29l11.8-13.4h10.1l-12.3,13.9,13.8,27.6h-8.9Z" />
        <path
          d="M317.1,327.7c2.2,2.1,3.2,5.1,3.2,9.2v30.2h-8.6v-28.7c0-2.2-.5-3.9-1.4-5-.9-1.1-2.2-1.6-3.9-1.6-2.5,0-5.1,1.5-7.8,4.6l-1.4,1.5v29.1h-8.6v-57.1h8.6v20.6l1-1.1c2.9-3.3,6.4-5,10.3-5s6.3,1,8.4,3.1Z" />
        <path
          d="M337.8,347.3v4.4c0,3,.7,5.3,2,6.9,1.4,1.6,3.3,2.4,6,2.4s3.9-.6,5.3-1.8c1.3-1.2,2.5-2.9,3.4-5.1l7.9,2.1c-1.8,4.1-3.9,7.1-6.5,9-2.6,1.9-6,2.9-10.1,2.9s-9.6-1.6-12.4-4.7c-2.9-3.1-4.3-8.2-4.3-15.2v-3.6c0-6.6,1.5-11.6,4.4-14.9,2.9-3.3,6.8-5,11.6-5s8.6,1.7,11.4,5,4.3,8.2,4.3,14.8v2.9h-23ZM339.8,333.8c-1.3,1.7-2,4-2,7h0c0,0,14.3,0,14.3,0h0c0-3-.7-5.3-2-7-1.3-1.7-3-2.5-5.2-2.5s-3.9.8-5.2,2.5Z" />
        <path
          d="M388.7,367.1c-2.4.2-4.8.2-7.2.2s-4.6-.2-5.9-.6c-1.3-.4-2.2-1.2-2.8-2.4-.6-1.2-.8-3.1-.8-5.6v-26.6h-5l-2-6.6h7v-11.9h8.6v11.9h8.2l-2,6.6h-6.2v28.3h6.2l2,6.6Z" />
        <path d="M411.8,310h8.6v8.2h-8.6v-8.2ZM411.8,325.6h8.6v41.5h-8.6v-41.5Z" />
        <path
          d="M459.6,327.8c2.1,2.1,3.2,5.1,3.2,9.2v30.2h-8.6v-28.7c0-4.3-1.8-6.5-5.3-6.5s-2.8.4-4,1.3c-1.3.9-2.5,2-3.8,3.4l-1.4,1.4v29.1h-8.6v-41.5h8v5.4l1.5-1.6c3-3.2,6.5-4.8,10.4-4.8s6.3,1,8.5,3.1Z" />
        <path
          d="M518.4,327.7c2.2,2.1,3.2,5.1,3.2,9.2v30.2h-8.6v-28.7c0-2.2-.5-3.9-1.4-5-.9-1.1-2.2-1.6-3.9-1.6-2.5,0-5.1,1.5-7.8,4.6l-1.4,1.5v29.1h-8.6v-57.1h8.6v20.6l1-1.1c2.9-3.3,6.4-5,10.3-5s6.3,1,8.4,3.1Z" />
        <path
          d="M539.1,347.3v4.4c0,3,.7,5.3,2,6.9s3.3,2.4,6,2.4,3.9-.6,5.3-1.8c1.3-1.2,2.5-2.9,3.4-5.1l7.9,2.1c-1.8,4.1-3.9,7.1-6.5,9-2.6,1.9-6,2.9-10.1,2.9s-9.6-1.6-12.4-4.7c-2.9-3.1-4.3-8.2-4.3-15.2v-3.6c0-6.6,1.5-11.6,4.4-14.9,2.9-3.3,6.8-5,11.6-5s8.6,1.7,11.4,5c2.9,3.3,4.3,8.2,4.3,14.8v2.9h-23ZM541.1,333.8c-1.3,1.7-2,4-2,7h0c0,0,14.3,0,14.3,0h0c0-3-.7-5.3-2-7-1.3-1.7-3-2.5-5.2-2.5s-3.9.8-5.2,2.5Z" />
        <path
          d="M590.1,367.1c-2.4.2-4.8.2-7.2.2s-4.6-.2-5.9-.6c-1.3-.4-2.2-1.2-2.8-2.4-.6-1.2-.8-3.1-.8-5.6v-26.6h-5l-2-6.6h7v-11.9h8.6v11.9h8.2l-2,6.6h-6.2v28.3h6.2l2,6.6Z" />
        <path
          d="M644.5,344.6v3.6c0,13.3-5.5,19.9-16.6,19.9s-16.6-6.6-16.6-19.9v-3.6c0-13.3,5.5-19.9,16.6-19.9s16.6,6.6,16.6,19.9ZM622.1,333.8c-1.5,1.5-2.2,3.9-2.2,7.1v11c0,3.2.7,5.6,2.2,7.1,1.5,1.5,3.4,2.3,5.7,2.3s4.2-.8,5.6-2.3c1.5-1.5,2.2-3.9,2.2-7v-11c0-3.1-.7-5.5-2.2-7-1.5-1.5-3.3-2.3-5.6-2.3s-4.3.8-5.7,2.3Z" />
        <path d="M681.6,325.6l-12.6,41.5h-7.8l-12.6-41.5h8l8.3,28.4,8.2-28.4h8.5Z" />
        <path
          d="M694.4,347.3v4.4c0,3,.7,5.3,2,6.9s3.3,2.4,6,2.4,3.9-.6,5.3-1.8c1.3-1.2,2.5-2.9,3.4-5.1l7.9,2.1c-1.8,4.1-3.9,7.1-6.5,9-2.6,1.9-6,2.9-10.1,2.9s-9.6-1.6-12.4-4.7c-2.9-3.1-4.3-8.2-4.3-15.2v-3.6c0-6.6,1.5-11.6,4.4-14.9,2.9-3.3,6.8-5,11.6-5s8.6,1.7,11.4,5c2.9,3.3,4.3,8.2,4.3,14.8v2.9h-23ZM696.4,333.8c-1.3,1.7-2,4-2,7h0c0,0,14.3,0,14.3,0h0c0-3-.7-5.3-2-7-1.3-1.7-3-2.5-5.2-2.5s-3.9.8-5.2,2.5Z" />
        <path
          d="M740.9,325.9c1.9-.8,4.3-1.2,7.3-1.2l-2.7,9.1c-2.1,0-3.9.4-5.6,1.2-1.6.8-2.9,1.7-3.9,2.9l-1.3,1.5v27.8h-8.6v-41.5h8v6.2l1.4-1.7c1.7-2,3.4-3.5,5.3-4.3Z" />
        <path d="M751.7,367.1v-5.5l18.7-29h-16l-2-7h28.8v5.5l-18.8,29h17l2.1,7h-29.8Z" />
        <path d="M789.3,310h8.6v8.2h-8.6v-8.2ZM789.3,325.6h8.6v41.5h-8.6v-41.5Z" />
        <path
          d="M838.9,355.6c-1.5,4.3-3.5,7.4-6,9.4-2.5,2-5.7,3-9.7,3-11.1,0-16.6-6.6-16.6-19.9v-3.6c0-7,1.5-12.1,4.4-15.2,3-3.1,7-4.7,12.2-4.7s7.1,1,9.6,3c2.5,2,4.2,4.9,5.1,8.8l-8.1,2.1c-.4-2.1-1.2-3.8-2.4-5-1.1-1.3-2.5-1.9-4.2-1.9-2.3,0-4.3.8-5.7,2.3-1.5,1.5-2.2,3.9-2.2,7.1v11c0,3.2.7,5.6,2.2,7.1,1.5,1.5,3.4,2.3,5.7,2.3s3.8-.7,5-2.2c1.3-1.5,2.2-3.4,2.8-5.6l7.8,2.2Z" />
        <path
          d="M875,327.7c2.2,2.1,3.2,5.1,3.2,9.2v30.2h-8.6v-28.7c0-2.2-.5-3.9-1.4-5-.9-1.1-2.2-1.6-3.9-1.6-2.5,0-5.1,1.5-7.8,4.6l-1.4,1.5v29.1h-8.6v-57.1h8.6v20.6l1-1.1c2.9-3.3,6.4-5,10.3-5s6.3,1,8.4,3.1Z" />
        <path
          d="M907.6,367.1c-2.4.2-4.8.2-7.2.2s-4.6-.2-5.9-.6c-1.3-.4-2.2-1.2-2.8-2.4-.6-1.2-.8-3.1-.8-5.6v-26.6h-5l-2-6.6h7v-11.9h8.6v11.9h8.2l-2,6.6h-6.2v28.3h6.2l2,6.6Z" />
      </g>
      <g isolation="isolate">
        <path
          d="M87.6,142.1l-8-16.8h-4.5v16.8h-5.9v-35.7h13.7c2.3,0,4.2.3,5.7.8,1.5.5,2.6,1.5,3.4,2.8.8,1.4,1.2,3.2,1.2,5.7s-.7,4.9-2,6.5-3.1,2.5-5.5,2.9l8.2,17h-6.4ZM75.2,120.5h7c1.9,0,3.2-.3,4-1s1.2-1.9,1.2-3.7-.4-3-1.2-3.7c-.8-.6-2.1-1-4-1h-7v9.2Z" />
        <path
          d="M111.1,142.9c-4.2,0-7.5-1.3-9.8-4-2.3-2.7-3.5-7-3.5-13.1v-3c0-6.1,1.2-10.5,3.5-13.1,2.3-2.7,5.6-4,9.8-4s7.5,1.3,9.8,4c2.3,2.6,3.5,7,3.5,13.1v3c0,6.1-1.2,10.5-3.5,13.1-2.3,2.6-5.6,4-9.8,4ZM111.1,110.7c-4.9,0-7.3,3-7.3,9v9.1c0,6,2.4,9,7.3,9s4-.7,5.3-2.2c1.3-1.4,1.9-3.7,1.9-6.8v-9.1c0-3.1-.6-5.4-1.9-6.8-1.3-1.4-3.1-2.2-5.3-2.2Z" />
        <path
          d="M143,142.9c-4.2,0-7.5-1.3-9.8-4-2.3-2.7-3.5-7-3.5-13.1v-3c0-6.1,1.2-10.5,3.5-13.1,2.3-2.7,5.6-4,9.8-4s7.5,1.3,9.8,4c2.3,2.6,3.5,7,3.5,13.1v3c0,6.1-1.2,10.5-3.5,13.1-2.3,2.6-5.6,4-9.8,4ZM143,110.7c-4.9,0-7.3,3-7.3,9v9.1c0,6,2.4,9,7.3,9s4-.7,5.3-2.2c1.3-1.4,1.9-3.7,1.9-6.8v-9.1c0-3.1-.6-5.4-1.9-6.8-1.3-1.4-3.1-2.2-5.3-2.2Z" />
        <path
          d="M164.2,131.9l1.3,1.8c2.2,2.8,4.6,4.2,7.2,4.2s2.8-.5,3.8-1.5c1-1,1.4-2.2,1.4-3.7s-.4-2.1-1.1-3c-.7-.9-1.9-1.8-3.7-2.7l-4.6-2.8c-2.5-1.5-4.3-2.9-5.5-4.4-1.1-1.5-1.6-3.2-1.6-5.2s1-4.9,3.1-6.5c2.1-1.6,4.6-2.4,7.8-2.4s7.4,1.6,10.4,4.8l1.4,1.5-4.5,3.5-1.2-1.3c-1.1-1.2-2.1-2-3.1-2.5-.9-.5-1.9-.8-3-.8-1.5,0-2.7.4-3.6,1.1-.9.7-1.4,1.6-1.4,2.6s.3,1.8.9,2.4c.6.6,1.6,1.3,3.2,2.2l4.6,2.7c2.7,1.5,4.7,3.1,5.9,4.8,1.2,1.7,1.9,3.7,1.9,5.9s-.5,4-1.4,5.5c-1,1.5-2.3,2.7-4,3.6-1.7.8-3.6,1.2-5.8,1.2-4.7,0-8.6-1.9-11.6-5.6l-1.8-2.2,4.9-3.2Z" />
        <path d="M211.3,111.4h-8.7v30.7h-5.9v-30.7h-8.7l-1.3-5h25.8l-1.2,5Z" />
        <path d="M223.2,120.2h13v4.8h-13v12h15l1.3,5.1h-22.2v-35.7h21.9l-1.3,4.9h-14.7v8.9Z" />
        <path
          d="M263.2,142.1l-8-16.8h-4.5v16.8h-5.9v-35.7h13.7c2.3,0,4.2.3,5.7.8,1.5.5,2.6,1.5,3.4,2.8.8,1.4,1.2,3.2,1.2,5.7s-.7,4.9-2,6.5-3.1,2.5-5.5,2.9l8.2,17h-6.4ZM250.7,120.5h7c1.9,0,3.2-.3,4-1s1.2-1.9,1.2-3.7-.4-3-1.2-3.7c-.8-.6-2.1-1-4-1h-7v9.2Z" />
      </g>
    </g>

  </g>
  <g id="Component_22_21" data-name="Component_22_2">

    <g class="text" transform="translate({position})" transform-origin="top left">
      <g isolation="isolate" >
        <path d="M81.4,219.5h20.7v7.7h-20.7v19.2h24l2.1,8.2h-35.5v-57.1h35l-2.1,7.8h-23.5v14.2Z"
          fill="#fff" />
        <path
          d="M121.5,234.7v4.4c0,3,.7,5.3,2,6.9,1.4,1.6,3.3,2.4,6,2.4s3.9-.6,5.3-1.8c1.3-1.2,2.5-2.9,3.4-5.1l7.9,2.1c-1.8,4.1-3.9,7.1-6.5,9-2.6,1.9-6,2.9-10.1,2.9s-9.6-1.6-12.4-4.7c-2.9-3.1-4.3-8.2-4.3-15.2v-3.6c0-6.6,1.5-11.6,4.4-14.9,2.9-3.3,6.8-5,11.6-5s8.6,1.7,11.4,5,4.3,8.2,4.3,14.8v2.9h-23ZM123.5,221.2c-1.3,1.7-2,4-2,7h0c0,0,14.3,0,14.3,0h0c0-3-.7-5.3-2-7-1.3-1.7-3-2.5-5.2-2.5s-3.9.8-5.2,2.5Z"
          fill="#fff" />
        <path
          d="M181.7,215.2c2.1,2.1,3.2,5.1,3.2,9.2v30.2h-8.6v-28.7c0-4.3-1.8-6.5-5.3-6.5s-2.8.4-4,1.3c-1.3.9-2.5,2-3.8,3.4l-1.4,1.4v29.1h-8.6v-41.5h8v5.4l1.5-1.6c3-3.2,6.5-4.8,10.4-4.8s6.3,1,8.5,3.1Z"
          fill="#fff" />
        <path
          d="M225,254c-1.6-1-3-2.4-4.3-4.2v18.4h-8.6v-55.2h8.1v4.6c1.2-1.8,2.7-3.1,4.6-4.1,1.8-1,3.8-1.5,5.9-1.5,4.3,0,7.7,1.6,10.2,4.7,2.5,3.1,3.7,8.2,3.7,15.2v3.6c0,7-1.2,12.1-3.7,15.2-2.5,3.1-5.9,4.7-10.2,4.7s-4.1-.5-5.7-1.5ZM228.6,219c-1.7,0-3.2.6-4.6,1.7-1.4,1.1-2.5,2.6-3.3,4.3v17.5c.9,1.8,2,3.2,3.4,4.3,1.4,1.1,2.9,1.7,4.5,1.7,4.8,0,7.2-3.1,7.2-9.3v-11c0-6.2-2.4-9.3-7.2-9.3Z"
          fill="#fff" />
        <path
          d="M253.3,197.4h8.6v50.5h2.6l2.1,6.6c-1.9.2-3.7.3-5.4.3s-3.5-.2-4.6-.6c-1.1-.4-1.9-1.2-2.5-2.4-.6-1.2-.8-3.1-.8-5.6v-48.8Z"
          fill="#fff" />
        <path
          d="M279.7,234.7v4.4c0,3,.7,5.3,2,6.9,1.4,1.6,3.3,2.4,6,2.4s3.9-.6,5.3-1.8c1.3-1.2,2.5-2.9,3.4-5.1l7.9,2.1c-1.8,4.1-3.9,7.1-6.5,9-2.6,1.9-6,2.9-10.1,2.9s-9.6-1.6-12.4-4.7c-2.9-3.1-4.3-8.2-4.3-15.2v-3.6c0-6.6,1.5-11.6,4.4-14.9,2.9-3.3,6.8-5,11.6-5s8.6,1.7,11.4,5,4.3,8.2,4.3,14.8v2.9h-23ZM281.7,221.2c-1.3,1.7-2,4-2,7h0c0,0,14.3,0,14.3,0h0c0-3-.7-5.3-2-7-1.3-1.7-3-2.5-5.2-2.5s-3.9.8-5.2,2.5Z"
          fill="#fff" />
        <path
          d="M334.4,254.5l-10.8-21.7-3.7,4.2v17.5h-8.6v-57.1h8.6v29l11.8-13.4h10.1l-12.3,13.9,13.8,27.6h-8.9Z"
          fill="#fff" />
        <path
          d="M349.2,261.7v-48.6h8.6v46.9c0,2.6-.3,4.4-.8,5.6-.6,1.2-1.5,2-2.8,2.4-1.3.4-3.3.6-5.9.6s-4.9,0-6.1-.2l2-6.6h5ZM349.2,197.4h8.6v8.2h-8.6v-8.2Z"
          fill="#fff" />
        <path
          d="M375.2,234.7v4.4c0,3,.7,5.3,2,6.9,1.4,1.6,3.3,2.4,6,2.4s3.9-.6,5.3-1.8c1.3-1.2,2.5-2.9,3.4-5.1l7.9,2.1c-1.8,4.1-3.9,7.1-6.5,9-2.6,1.9-6,2.9-10.1,2.9s-9.6-1.6-12.4-4.7c-2.9-3.1-4.3-8.2-4.3-15.2v-3.6c0-6.6,1.5-11.6,4.4-14.9,2.9-3.3,6.8-5,11.6-5s8.6,1.7,11.4,5,4.3,8.2,4.3,14.8v2.9h-23ZM377.2,221.2c-1.3,1.7-2,4-2,7h0c0,0,14.3,0,14.3,0h0c0-3-.7-5.3-2-7-1.3-1.7-3-2.5-5.2-2.5s-3.9.8-5.2,2.5Z"
          fill="#fff" />
        <path d="M452.5,213l-12.6,41.5h-7.8l-12.6-41.5h8l8.3,28.4,8.2-28.4h8.5Z" fill="#fff" />
        <path
          d="M473.9,213.3c1.9-.8,4.3-1.2,7.3-1.2l-2.7,9.1c-2.1,0-3.9.4-5.6,1.2-1.6.8-2.9,1.7-3.9,2.9l-1.3,1.5v27.8h-8.6v-41.5h8v6.2l1.4-1.7c1.7-2,3.4-3.5,5.3-4.3Z"
          fill="#fff" />
        <path d="M487.6,197.4h8.6v8.2h-8.6v-8.2ZM487.6,213h8.6v41.5h-8.6v-41.5Z" fill="#fff" />
        <path
          d="M507,261.7v-48.6h8.6v46.9c0,2.6-.3,4.4-.8,5.6-.6,1.2-1.5,2-2.8,2.4-1.3.4-3.3.6-5.9.6s-4.9,0-6.1-.2l2-6.6h5ZM507,197.4h8.6v8.2h-8.6v-8.2Z"
          fill="#fff" />
        <path
          d="M549.2,199.5c2.7,2.2,4,5.3,4,9.3s-.5,4.7-1.4,6.6c-1,1.9-2.6,4-4.9,6.4l-2.3,2.6c-2.7,2.9-4,6.1-4,9.5v3.8h-6.7v-4.7c0-2.8.4-5.1,1.1-6.9.7-1.8,2-3.7,3.8-5.9l1.6-2c1.2-1.5,2.1-3,2.7-4.4.6-1.4.9-2.9.9-4.4s-.6-3-1.8-4c-1.2-1-2.7-1.6-4.6-1.6-3.5,0-6.2,1.9-8.1,5.8l-6.2-3.3c1.4-3.4,3.5-5.9,6.2-7.6,2.7-1.7,5.8-2.6,9.2-2.6s7.7,1.1,10.4,3.3ZM532.3,244.2h9.9v10.3h-9.9v-10.3Z"
          fill="#fff" />
      </g>
      <g isolation="isolate">
        <path
          d="M109,338.2c1.2,2.3,1.8,5.3,1.8,9,0,6-1.3,10.4-4,13.2-2.7,2.7-6.6,4.1-11.8,4.1h-23v-57.1h21.4c10.4,0,15.6,4.7,15.6,14.2s-.5,5.3-1.6,7.2c-1.1,1.9-2.7,3.3-4.7,4.2,3,1.2,5.1,2.9,6.3,5.2ZM81.4,315.1v14.7h10.6c2.7,0,4.6-.5,5.8-1.6,1.2-1,1.8-3,1.8-5.8s-.6-4.8-1.8-5.8c-1.2-1-3.1-1.6-5.8-1.6h-10.6ZM97.9,356.1c1.1-.5,1.9-1.5,2.4-2.9.5-1.4.8-3.4.8-5.9,0-3.8-.6-6.4-1.8-7.7-1.2-1.4-3.1-2-5.8-2h-12.1v19.4h12.1c1.8,0,3.3-.3,4.4-.8Z"
          fill="#fff" />
        <path
          d="M126.5,344.7v4.4c0,3,.7,5.3,2,6.9,1.4,1.6,3.3,2.4,6,2.4s3.9-.6,5.3-1.8c1.3-1.2,2.5-2.9,3.4-5.1l7.9,2.1c-1.8,4.1-3.9,7.1-6.5,9-2.6,1.9-6,2.9-10.1,2.9s-9.6-1.6-12.4-4.7c-2.9-3.1-4.3-8.2-4.3-15.2v-3.6c0-6.6,1.5-11.6,4.4-14.9,2.9-3.3,6.8-5,11.6-5s8.6,1.7,11.4,5,4.3,8.2,4.3,14.8v2.9h-23ZM128.5,331.2c-1.3,1.7-2,4-2,7h0c0,0,14.3,0,14.3,0h0c0-3-.7-5.3-2-7-1.3-1.7-3-2.5-5.2-2.5s-3.9.8-5.2,2.5Z"
          fill="#fff" />
        <path
          d="M181.3,364.5l-10.8-21.7-3.7,4.2v17.5h-8.6v-57.1h8.6v29l11.8-13.4h10.1l-12.3,13.9,13.8,27.6h-8.9Z"
          fill="#fff" />
        <path d="M196,307.4h8.6v8.2h-8.6v-8.2ZM196,323h8.6v41.5h-8.6v-41.5Z" fill="#fff" />
        <path
          d="M215.3,371.7v-48.6h8.6v46.9c0,2.6-.3,4.4-.8,5.6-.6,1.2-1.5,2-2.8,2.4-1.3.4-3.3.6-5.9.6s-4.9,0-6.1-.2l2-6.6h5ZM215.3,307.4h8.6v8.2h-8.6v-8.2Z"
          fill="#fff" />
        <path
          d="M257.7,364.5l-10.8-21.7-3.7,4.2v17.5h-8.6v-57.1h8.6v29l11.8-13.4h10.1l-12.3,13.9,13.8,27.6h-8.9Z"
          fill="#fff" />
        <path
          d="M317.4,325.1c2.2,2.1,3.2,5.1,3.2,9.2v30.2h-8.6v-28.7c0-2.2-.5-3.9-1.4-5-.9-1.1-2.2-1.6-3.9-1.6-2.5,0-5.1,1.5-7.8,4.6l-1.4,1.5v29.1h-8.6v-57.1h8.6v20.6l1-1.1c2.9-3.3,6.4-5,10.3-5s6.3,1,8.4,3.1Z"
          fill="#fff" />
        <path
          d="M338,344.7v4.4c0,3,.7,5.3,2,6.9,1.4,1.6,3.3,2.4,6,2.4s3.9-.6,5.3-1.8c1.3-1.2,2.5-2.9,3.4-5.1l7.9,2.1c-1.8,4.1-3.9,7.1-6.5,9-2.6,1.9-6,2.9-10.1,2.9s-9.6-1.6-12.4-4.7c-2.9-3.1-4.3-8.2-4.3-15.2v-3.6c0-6.6,1.5-11.6,4.4-14.9,2.9-3.3,6.8-5,11.6-5s8.6,1.7,11.4,5,4.3,8.2,4.3,14.8v2.9h-23ZM340,331.2c-1.3,1.7-2,4-2,7h0c0,0,14.3,0,14.3,0h0c0-3-.7-5.3-2-7-1.3-1.7-3-2.5-5.2-2.5s-3.9.8-5.2,2.5Z"
          fill="#fff" />
        <path
          d="M389,364.5c-2.4.2-4.8.2-7.2.2s-4.6-.2-5.9-.6c-1.3-.4-2.2-1.2-2.8-2.4-.6-1.2-.8-3.1-.8-5.6v-26.6h-5l-2-6.6h7v-11.9h8.6v11.9h8.2l-2,6.6h-6.2v28.3h6.2l2,6.6Z"
          fill="#fff" />
        <path d="M412.1,307.4h8.6v8.2h-8.6v-8.2ZM412.1,323h8.6v41.5h-8.6v-41.5Z" fill="#fff" />
        <path
          d="M459.9,325.2c2.1,2.1,3.2,5.1,3.2,9.2v30.2h-8.6v-28.7c0-4.3-1.8-6.5-5.3-6.5s-2.8.4-4,1.3c-1.3.9-2.5,2-3.8,3.4l-1.4,1.4v29.1h-8.6v-41.5h8v5.4l1.5-1.6c3-3.2,6.5-4.8,10.4-4.8s6.3,1,8.5,3.1Z"
          fill="#fff" />
        <path
          d="M518.7,325.1c2.2,2.1,3.2,5.1,3.2,9.2v30.2h-8.6v-28.7c0-2.2-.5-3.9-1.4-5-.9-1.1-2.2-1.6-3.9-1.6-2.5,0-5.1,1.5-7.8,4.6l-1.4,1.5v29.1h-8.6v-57.1h8.6v20.6l1-1.1c2.9-3.3,6.4-5,10.3-5s6.3,1,8.4,3.1Z"
          fill="#fff" />
        <path
          d="M539.4,344.7v4.4c0,3,.7,5.3,2,6.9s3.3,2.4,6,2.4,3.9-.6,5.3-1.8c1.3-1.2,2.5-2.9,3.4-5.1l7.9,2.1c-1.8,4.1-3.9,7.1-6.5,9-2.6,1.9-6,2.9-10.1,2.9s-9.6-1.6-12.4-4.7c-2.9-3.1-4.3-8.2-4.3-15.2v-3.6c0-6.6,1.5-11.6,4.4-14.9,2.9-3.3,6.8-5,11.6-5s8.6,1.7,11.4,5c2.9,3.3,4.3,8.2,4.3,14.8v2.9h-23ZM541.4,331.2c-1.3,1.7-2,4-2,7h0c0,0,14.3,0,14.3,0h0c0-3-.7-5.3-2-7-1.3-1.7-3-2.5-5.2-2.5s-3.9.8-5.2,2.5Z"
          fill="#fff" />
        <path
          d="M590.4,364.5c-2.4.2-4.8.2-7.2.2s-4.6-.2-5.9-.6c-1.3-.4-2.2-1.2-2.8-2.4-.6-1.2-.8-3.1-.8-5.6v-26.6h-5l-2-6.6h7v-11.9h8.6v11.9h8.2l-2,6.6h-6.2v28.3h6.2l2,6.6Z"
          fill="#fff" />
        <path
          d="M644.8,342v3.6c0,13.3-5.5,19.9-16.6,19.9s-16.6-6.6-16.6-19.9v-3.6c0-13.3,5.5-19.9,16.6-19.9s16.6,6.6,16.6,19.9ZM622.4,331.2c-1.5,1.5-2.2,3.9-2.2,7.1v11c0,3.2.7,5.6,2.2,7.1,1.5,1.5,3.4,2.3,5.7,2.3s4.2-.8,5.6-2.3c1.5-1.5,2.2-3.9,2.2-7v-11c0-3.1-.7-5.5-2.2-7-1.5-1.5-3.3-2.3-5.6-2.3s-4.3.8-5.7,2.3Z"
          fill="#fff" />
        <path d="M681.9,323l-12.6,41.5h-7.8l-12.6-41.5h8l8.3,28.4,8.2-28.4h8.5Z" fill="#fff" />
        <path
          d="M694.7,344.7v4.4c0,3,.7,5.3,2,6.9s3.3,2.4,6,2.4,3.9-.6,5.3-1.8c1.3-1.2,2.5-2.9,3.4-5.1l7.9,2.1c-1.8,4.1-3.9,7.1-6.5,9-2.6,1.9-6,2.9-10.1,2.9s-9.6-1.6-12.4-4.7c-2.9-3.1-4.3-8.2-4.3-15.2v-3.6c0-6.6,1.5-11.6,4.4-14.9,2.9-3.3,6.8-5,11.6-5s8.6,1.7,11.4,5c2.9,3.3,4.3,8.2,4.3,14.8v2.9h-23ZM696.7,331.2c-1.3,1.7-2,4-2,7h0c0,0,14.3,0,14.3,0h0c0-3-.7-5.3-2-7-1.3-1.7-3-2.5-5.2-2.5s-3.9.8-5.2,2.5Z"
          fill="#fff" />
        <path
          d="M741.2,323.3c1.9-.8,4.3-1.2,7.3-1.2l-2.7,9.1c-2.1,0-3.9.4-5.6,1.2-1.6.8-2.9,1.7-3.9,2.9l-1.3,1.5v27.8h-8.6v-41.5h8v6.2l1.4-1.7c1.7-2,3.4-3.5,5.3-4.3Z"
          fill="#fff" />
        <path d="M752,364.5v-5.5l18.7-29h-16l-2-7h28.8v5.5l-18.8,29h17l2.1,7h-29.8Z" fill="#fff" />
        <path d="M789.6,307.4h8.6v8.2h-8.6v-8.2ZM789.6,323h8.6v41.5h-8.6v-41.5Z" fill="#fff" />
        <path
          d="M839.2,353c-1.5,4.3-3.5,7.4-6,9.4-2.5,2-5.7,3-9.7,3-11.1,0-16.6-6.6-16.6-19.9v-3.6c0-7,1.5-12.1,4.4-15.2,3-3.1,7-4.7,12.2-4.7s7.1,1,9.6,3c2.5,2,4.2,4.9,5.1,8.8l-8.1,2.1c-.4-2.1-1.2-3.8-2.4-5-1.1-1.3-2.5-1.9-4.2-1.9-2.3,0-4.3.8-5.7,2.3-1.5,1.5-2.2,3.9-2.2,7.1v11c0,3.2.7,5.6,2.2,7.1,1.5,1.5,3.4,2.3,5.7,2.3s3.8-.7,5-2.2c1.3-1.5,2.2-3.4,2.8-5.6l7.8,2.2Z"
          fill="#fff" />
        <path
          d="M875.3,325.1c2.2,2.1,3.2,5.1,3.2,9.2v30.2h-8.6v-28.7c0-2.2-.5-3.9-1.4-5-.9-1.1-2.2-1.6-3.9-1.6-2.5,0-5.1,1.5-7.8,4.6l-1.4,1.5v29.1h-8.6v-57.1h8.6v20.6l1-1.1c2.9-3.3,6.4-5,10.3-5s6.3,1,8.4,3.1Z"
          fill="#fff" />
        <path
          d="M907.9,364.5c-2.4.2-4.8.2-7.2.2s-4.6-.2-5.9-.6c-1.3-.4-2.2-1.2-2.8-2.4-.6-1.2-.8-3.1-.8-5.6v-26.6h-5l-2-6.6h7v-11.9h8.6v11.9h8.2l-2,6.6h-6.2v28.3h6.2l2,6.6Z"
          fill="#fff" />
      </g>
      <g isolation="isolate" opacity="0.5">
        <path
          d="M87.9,139.5l-8-16.8h-4.5v16.8h-5.9v-35.7h13.7c2.3,0,4.2.3,5.7.8,1.5.5,2.6,1.5,3.4,2.8.8,1.4,1.2,3.2,1.2,5.7s-.7,4.9-2,6.5-3.1,2.5-5.5,2.9l8.2,17h-6.4ZM75.5,117.9h7c1.9,0,3.2-.3,4-1s1.2-1.9,1.2-3.7-.4-3-1.2-3.7c-.8-.6-2.1-1-4-1h-7v9.2Z"
          fill="#fff" />
        <path
          d="M111.4,140.3c-4.2,0-7.5-1.3-9.8-4-2.3-2.7-3.5-7-3.5-13.1v-3c0-6.1,1.2-10.5,3.5-13.1,2.3-2.7,5.6-4,9.8-4s7.5,1.3,9.8,4c2.3,2.6,3.5,7,3.5,13.1v3c0,6.1-1.2,10.5-3.5,13.1-2.3,2.6-5.6,4-9.8,4ZM111.4,108.1c-4.9,0-7.3,3-7.3,9v9.1c0,6,2.4,9,7.3,9s4-.7,5.3-2.2c1.3-1.4,1.9-3.7,1.9-6.8v-9.1c0-3.1-.6-5.4-1.9-6.8-1.3-1.4-3.1-2.2-5.3-2.2Z"
          fill="#fff" />
        <path
          d="M143.3,140.3c-4.2,0-7.5-1.3-9.8-4-2.3-2.7-3.5-7-3.5-13.1v-3c0-6.1,1.2-10.5,3.5-13.1,2.3-2.7,5.6-4,9.8-4s7.5,1.3,9.8,4c2.3,2.6,3.5,7,3.5,13.1v3c0,6.1-1.2,10.5-3.5,13.1-2.3,2.6-5.6,4-9.8,4ZM143.3,108.1c-4.9,0-7.3,3-7.3,9v9.1c0,6,2.4,9,7.3,9s4-.7,5.3-2.2c1.3-1.4,1.9-3.7,1.9-6.8v-9.1c0-3.1-.6-5.4-1.9-6.8-1.3-1.4-3.1-2.2-5.3-2.2Z"
          fill="#fff" />
        <path
          d="M164.5,129.3l1.3,1.8c2.2,2.8,4.6,4.2,7.2,4.2s2.8-.5,3.8-1.5c1-1,1.4-2.2,1.4-3.7s-.4-2.1-1.1-3c-.7-.9-1.9-1.8-3.7-2.7l-4.6-2.8c-2.5-1.5-4.3-2.9-5.5-4.4-1.1-1.5-1.6-3.2-1.6-5.2s1-4.9,3.1-6.5c2.1-1.6,4.6-2.4,7.8-2.4s7.4,1.6,10.4,4.8l1.4,1.5-4.5,3.5-1.2-1.3c-1.1-1.2-2.1-2-3.1-2.5-.9-.5-1.9-.8-3-.8-1.5,0-2.7.4-3.6,1.1-.9.7-1.4,1.6-1.4,2.6s.3,1.8.9,2.4c.6.6,1.6,1.3,3.2,2.2l4.6,2.7c2.7,1.5,4.7,3.1,5.9,4.8,1.2,1.7,1.9,3.7,1.9,5.9s-.5,4-1.4,5.5c-1,1.5-2.3,2.7-4,3.6-1.7.8-3.6,1.2-5.8,1.2-4.7,0-8.6-1.9-11.6-5.6l-1.8-2.2,4.9-3.2Z"
          fill="#fff" />
        <path d="M211.6,108.8h-8.7v30.7h-5.9v-30.7h-8.7l-1.3-5h25.8l-1.2,5Z" fill="#fff" />
        <path d="M223.5,117.6h13v4.8h-13v12h15l1.3,5.1h-22.2v-35.7h21.9l-1.3,4.9h-14.7v8.9Z"
          fill="#fff" />
        <path
          d="M263.5,139.5l-8-16.8h-4.5v16.8h-5.9v-35.7h13.7c2.3,0,4.2.3,5.7.8,1.5.5,2.6,1.5,3.4,2.8.8,1.4,1.2,3.2,1.2,5.7s-.7,4.9-2,6.5-3.1,2.5-5.5,2.9l8.2,17h-6.4ZM251,117.9h7c1.9,0,3.2-.3,4-1s1.2-1.9,1.2-3.7-.4-3-1.2-3.7c-.8-.6-2.1-1-4-1h-7v9.2Z"
          fill="#fff" />
      </g>
    </g>

    <g transform="rotate(15, 0, 0) translate({positionX} {positionY})" id="device-container" class="device-container"></g>

  </g>
</svg>