<svg id="Laag_1" xmlns="http://www.w3.org/2000/svg" version="1.1"
  xmlns:xlink="http://www.w3.org/1999/xlink" class="svgviewbox"> 
  <defs>
    <clipPath id="clippath">
      <path
        d="M640.2,618.2l1056.2,283.2c76.3,20.5,121.6,98.9,101.1,175.2l-694.2,2589.2c-20.5,76.3-98.9,121.6-175.2,101.1l-1056.2-283.2c-76.3-20.5-121.6-98.9-101.1-175.2L465,719.3c20.5-76.3,98.9-121.6,175.2-101.1Z"
        fill="none" />
    </clipPath>
  </defs>
  <rect class="background" transform="translate(-150 -150)" width="150%" height="150%" opacity="0.1" />

  <g transform="translate(6.5% 10.75%)" transform-origin="top left">
    <g enable-background="new    " opacity="0.5">
      <path fill="#000000"
        d="M33.3,139.5H13l-3.7,11.9H0l18.2-57.1h9.7L46,151.5h-9L33.3,139.5z M30.8,131.6l-7.7-24.5l-7.7,24.5H30.8z"
      />
      <path fill="#000000"
        d="M85.5,151.5c-1.9,0.3-3.6,0.4-5.3,0.4c-2.6,0-4.3-0.3-5.4-1c-1-0.7-1.7-1.9-2-3.8c-1.9,1.8-3.8,3.2-5.6,4
		c-1.8,0.9-3.9,1.3-6.3,1.3c-2.9,0-5.5-1-7.6-2.9c-2.1-1.9-3.2-4.5-3.2-7.8c0-3,0.9-5.6,2.6-7.6c1.8-2.1,4.2-3.9,7.4-5.6l11.9-6
		v-1.4c0-1.9-0.5-3.2-1.4-4c-0.9-0.8-2.3-1.2-4.2-1.2c-2,0-3.7,0.7-4.9,2.2c-1.2,1.4-2,3.3-2.4,5.4l-7.7-2c0.9-4.5,2.7-7.7,5.4-9.6
		c2.7-1.9,5.9-2.8,9.6-2.8c4.2,0,7.6,0.9,10.2,2.8c2.6,1.8,3.9,5,3.9,9.4v23.8h2.6L85.5,151.5z M67.1,144.4c1.3-0.8,2.8-2,4.4-3.6
		l0.8-0.8v-10.5l-8.3,5c-1.8,1.1-3,2.1-3.8,3.2c-0.8,1.1-1.2,2.4-1.2,3.8c0,1.3,0.4,2.3,1.2,3c0.8,0.7,1.7,1.1,2.8,1.1
		C64.4,145.6,65.8,145.2,67.1,144.4z" />
      <path fill="#000000"
        d="M120.2,112.1c2.1,2.1,3.2,5.1,3.2,9.2v30.2h-8.6v-28.7c0-4.3-1.8-6.5-5.3-6.5c-1.4,0-2.8,0.4-4,1.3
		c-1.3,0.9-2.5,2-3.8,3.4l-1.4,1.4v29.1h-8.6v-41.5h8v5.4l1.5-1.6c3-3.2,6.5-4.8,10.4-4.8C115.3,109,118.1,110,120.2,112.1z" />
      <path fill="#000000"
        d="M182.5,112.1c2,2.1,3,5.1,3,9.2v30.2H177v-28.7c0-4.3-1.5-6.5-4.6-6.5c-1.3,0-2.5,0.4-3.5,1.3
		c-1.1,0.9-2.2,2-3.4,3.4l-1.3,1.4v29.1h-8.6v-28.7c0-4.3-1.6-6.5-4.7-6.5c-1.2,0-2.3,0.4-3.3,1.2c-1,0.8-2.2,1.9-3.6,3.4l-1.3,1.4
		v29.1h-8.6v-41.5h8v5.4l1.4-1.6c2.8-3.2,6-4.8,9.5-4.8c2.3,0,4.3,0.5,6.1,1.6c1.8,1,3.1,2.6,3.9,4.7l1.2-1.4c1.4-1.6,3-2.8,4.8-3.6
		c1.8-0.8,3.6-1.2,5.4-1.2C177.9,109,180.5,110,182.5,112.1z" />
      <path fill="#000000"
        d="M203,131.6v4.4c0,3,0.7,5.3,2,6.9c1.4,1.6,3.3,2.4,6,2.4c2.2,0,3.9-0.6,5.3-1.8c1.3-1.2,2.5-2.9,3.4-5.1
		l7.9,2.1c-1.8,4.1-3.9,7.1-6.5,9c-2.6,1.9-6,2.9-10.1,2.9c-5.4,0-9.6-1.6-12.4-4.7c-2.9-3.1-4.3-8.2-4.3-15.2v-3.6
		c0-6.6,1.5-11.6,4.4-14.9c2.9-3.3,6.8-5,11.6-5c4.7,0,8.6,1.7,11.4,5c2.9,3.3,4.3,8.2,4.3,14.8v2.9H203z M205,118.1
		c-1.3,1.7-2,4-2,7v0.1h14.3V125c0-2.9-0.7-5.2-2-6.9c-1.3-1.7-3-2.5-5.2-2.5C208,115.6,206.3,116.4,205,118.1z" />
      <path fill="#000000"
        d="M234.7,94.3h8.6v50.5h2.6l2.1,6.6c-1.9,0.2-3.7,0.3-5.4,0.3c-2,0-3.5-0.2-4.6-0.6c-1.1-0.4-1.9-1.2-2.5-2.4
		c-0.6-1.2-0.8-3.1-0.8-5.6V94.3z" />
      <path fill="#000000"
        d="M271.9,110.5c1.6,1,3,2.4,4.3,4.2V94.3h8.6v57.1h-8v-4.6c-1.2,1.7-2.7,3.1-4.6,4.1c-1.8,1-3.8,1.5-5.9,1.5
		c-4.3,0-7.7-1.6-10.2-4.7s-3.7-8.2-3.7-15.2v-3.6c0-7,1.2-12.1,3.7-15.2s5.9-4.7,10.2-4.7C268.4,109,270.3,109.5,271.9,110.5z
		 M263,143.2c1.3,1.5,3,2.2,5.3,2.2c1.7,0,3.2-0.6,4.6-1.7c1.4-1.1,2.5-2.6,3.3-4.3v-17.5c-0.9-1.7-2-3.1-3.3-4.3
		c-1.4-1.1-2.9-1.7-4.6-1.7c-2.2,0-4,0.7-5.3,2.2c-1.3,1.5-1.9,3.8-1.9,7v11C261,139.4,261.7,141.7,263,143.2z" />
      <path fill="#000000"
        d="M302.2,131.6v4.4c0,3,0.7,5.3,2,6.9c1.4,1.6,3.3,2.4,6,2.4c2.2,0,3.9-0.6,5.3-1.8c1.3-1.2,2.5-2.9,3.4-5.1
		l7.9,2.1c-1.8,4.1-3.9,7.1-6.5,9c-2.6,1.9-6,2.9-10.1,2.9c-5.4,0-9.6-1.6-12.4-4.7c-2.9-3.1-4.3-8.2-4.3-15.2v-3.6
		c0-6.6,1.5-11.6,4.4-14.9c2.9-3.3,6.8-5,11.6-5c4.7,0,8.6,1.7,11.4,5c2.9,3.3,4.3,8.2,4.3,14.8v2.9H302.2z M304.2,118.1
		c-1.3,1.7-2,4-2,7v0.1h14.3V125c0-2.9-0.7-5.2-2-6.9c-1.3-1.7-3-2.5-5.2-2.5C307.3,115.6,305.6,116.4,304.2,118.1z" />
      <path fill="#000000"
        d="M362.4,112.1c2.1,2.1,3.2,5.1,3.2,9.2v30.2H357v-28.7c0-4.3-1.8-6.5-5.3-6.5c-1.4,0-2.8,0.4-4,1.3
		c-1.3,0.9-2.5,2-3.8,3.4l-1.4,1.4v29.1H334v-41.5h8v5.4l1.5-1.6c3-3.2,6.5-4.8,10.4-4.8C357.4,109,360.3,110,362.4,112.1z" />
      <path fill="#000000" d="M421.8,109.9l-12.6,41.5h-7.8l-12.6-41.5h8l8.3,28.4l8.2-28.4H421.8z" />
      <path fill="#000000"
        d="M459.2,128.9v3.6c0,13.3-5.5,19.9-16.6,19.9c-11.1,0-16.6-6.6-16.6-19.9v-3.6c0-13.3,5.5-19.9,16.6-19.9
		C453.6,109,459.2,115.6,459.2,128.9z M436.8,118.1c-1.5,1.5-2.2,3.9-2.2,7.1v11c0,3.2,0.7,5.6,2.2,7.1c1.5,1.5,3.4,2.3,5.7,2.3
		c2.3,0,4.2-0.8,5.6-2.3c1.5-1.5,2.2-3.9,2.2-7v-11c0-3.1-0.7-5.5-2.2-7c-1.5-1.5-3.3-2.3-5.6-2.3
		C440.2,115.9,438.3,116.6,436.8,118.1z" />
      <path fill="#000000"
        d="M499.2,128.9v3.6c0,13.3-5.5,19.9-16.6,19.9c-11.1,0-16.6-6.6-16.6-19.9v-3.6c0-13.3,5.5-19.9,16.6-19.9
		C493.6,109,499.2,115.6,499.2,128.9z M476.8,118.1c-1.5,1.5-2.2,3.9-2.2,7.1v11c0,3.2,0.7,5.6,2.2,7.1c1.5,1.5,3.4,2.3,5.7,2.3
		c2.3,0,4.2-0.8,5.6-2.3c1.5-1.5,2.2-3.9,2.2-7v-11c0-3.1-0.7-5.5-2.2-7c-1.5-1.5-3.3-2.3-5.6-2.3
		C480.2,115.9,478.3,116.6,476.8,118.1z" />
      <path fill="#000000"
        d="M522.6,110.2c1.9-0.8,4.3-1.2,7.3-1.2l-2.7,9.1c-2.1,0-3.9,0.4-5.6,1.2c-1.6,0.8-2.9,1.7-3.9,2.9l-1.3,1.5
		v27.8h-8.6v-41.5h8v6.2l1.4-1.7C519,112.5,520.8,111,522.6,110.2z" />
    </g>
    <g enable-background="new    " opacity="0.5">
      <path fill="#000000"
        d="M36.3,245.3c0,6.4-1.5,10.9-4.5,13.5c-3,2.6-7.3,3.9-12.8,3.9c-4.8,0-8.8-1.3-12-3.8
		c-3.2-2.5-5.1-6.4-5.5-11.6c-0.1-1.5-0.3-3.7-0.6-6.7l8.8-1l0.6,6.3c0.3,3.3,1.2,5.5,2.7,6.8c1.5,1.3,3.4,2,5.8,2
		c2.6,0,4.5-0.7,6-2.1c1.4-1.4,2.1-3.9,2.1-7.3v-40.9h9.4V245.3z" />
      <path fill="#000000"
        d="M79.4,238.9v3.6c0,13.3-5.5,19.9-16.6,19.9c-11.1,0-16.6-6.6-16.6-19.9v-3.6c0-13.3,5.5-19.9,16.6-19.9
		C73.9,219,79.4,225.6,79.4,238.9z M57.1,228.1c-1.5,1.5-2.2,3.9-2.2,7.1v11c0,3.2,0.7,5.6,2.2,7.1c1.5,1.5,3.4,2.3,5.7,2.3
		c2.3,0,4.2-0.8,5.6-2.3c1.5-1.5,2.2-3.9,2.2-7v-11c0-3.1-0.7-5.5-2.2-7c-1.5-1.5-3.3-2.3-5.6-2.3C60.5,225.9,58.5,226.6,57.1,228.1
		z" />
      <path fill="#000000"
        d="M91.4,259.3c-2.2-2.1-3.2-5.1-3.2-9.2v-30.2h8.6v28.7c0,4.3,1.8,6.5,5.4,6.5c1.4,0,2.8-0.4,4-1.3
		c1.2-0.9,2.5-2,3.8-3.4l1.4-1.4v-29.1h8.6v41.5h-8V256l-1.5,1.6c-3,3.2-6.4,4.8-10.3,4.8C96.4,262.4,93.6,261.4,91.4,259.3z" />
      <path fill="#000000"
        d="M180.4,219.9l-10.6,41.5H162l-8.8-31l-8.4,31H137l-10.6-41.5h8.2l6.8,28.5l7.4-28.5h8.9l7.5,27.8l6.6-27.8
		H180.4z" />
      <path fill="#000000"
        d="M214.7,219.9h8.2l-2,6.6h-6.2v35h-8.6v-35h-5l-2-6.6h7v-7.4c0-2.6,0.3-4.5,0.8-5.7c0.6-1.2,1.5-2,2.8-2.4
		c1.3-0.4,3.3-0.6,5.9-0.6c2.4,0,4.8,0.1,7.2,0.2l-2,6.6h-6.2V219.9z" />
      <path fill="#000000"
        d="M260.6,261.5c-1.9,0.3-3.6,0.4-5.3,0.4c-2.6,0-4.3-0.3-5.4-1c-1-0.7-1.7-1.9-2-3.8c-1.9,1.8-3.8,3.2-5.6,4
		c-1.8,0.9-3.9,1.3-6.3,1.3c-2.9,0-5.5-1-7.6-2.9c-2.1-1.9-3.2-4.5-3.2-7.8c0-3,0.9-5.6,2.6-7.6c1.8-2.1,4.2-3.9,7.4-5.6l11.9-6
		v-1.4c0-1.9-0.5-3.2-1.4-4c-0.9-0.8-2.3-1.2-4.2-1.2c-2,0-3.7,0.7-4.9,2.2c-1.2,1.4-2,3.3-2.4,5.4l-7.7-2c0.9-4.5,2.7-7.7,5.4-9.6
		c2.7-1.9,5.9-2.8,9.6-2.8c4.2,0,7.6,0.9,10.2,2.8c2.6,1.8,3.9,5,3.9,9.4v23.8h2.6L260.6,261.5z M242.2,254.4c1.3-0.8,2.8-2,4.4-3.6
		l0.8-0.8v-10.5l-8.3,5c-1.8,1.1-3,2.1-3.8,3.2c-0.8,1.1-1.2,2.4-1.2,3.8c0,1.3,0.4,2.3,1.2,3c0.8,0.7,1.7,1.1,2.8,1.1
		C239.4,255.6,240.8,255.2,242.2,254.4z" />
      <path fill="#000000" d="M294.9,219.9l-12.6,41.5h-7.8l-12.6-41.5h8l8.3,28.4l8.2-28.4H294.9z" />
      <path fill="#000000"
        d="M332.2,238.9v3.6c0,13.3-5.5,19.9-16.6,19.9c-11.1,0-16.6-6.6-16.6-19.9v-3.6c0-13.3,5.5-19.9,16.6-19.9
		C326.7,219,332.2,225.6,332.2,238.9z M309.9,228.1c-1.5,1.5-2.2,3.9-2.2,7.1v11c0,3.2,0.7,5.6,2.2,7.1c1.5,1.5,3.4,2.3,5.7,2.3
		c2.3,0,4.2-0.8,5.6-2.3c1.5-1.5,2.2-3.9,2.2-7v-11c0-3.1-0.7-5.5-2.2-7c-1.5-1.5-3.3-2.3-5.6-2.3
		C313.2,225.9,311.3,226.6,309.9,228.1z" />
      <path fill="#000000"
        d="M355.7,220.2c1.9-0.8,4.3-1.2,7.3-1.2l-2.7,9.1c-2.1,0-3.9,0.4-5.6,1.2c-1.6,0.8-2.9,1.7-3.9,2.9l-1.3,1.5
		v27.8H341v-41.5h8v6.2l1.4-1.7C352.1,222.5,353.8,221,355.7,220.2z" />
      <path fill="#000000" d="M369.4,204.3h8.6v8.2h-8.6V204.3z M369.4,219.9h8.6v41.5h-8.6V219.9z" />
      <path fill="#000000"
        d="M395.5,241.6v4.4c0,3,0.7,5.3,2,6.9c1.4,1.6,3.3,2.4,6,2.4c2.2,0,3.9-0.6,5.3-1.8c1.3-1.2,2.5-2.9,3.4-5.1
		l7.9,2.1c-1.8,4.1-3.9,7.1-6.5,9c-2.6,1.9-6,2.9-10.1,2.9c-5.4,0-9.6-1.6-12.4-4.7c-2.9-3.1-4.3-8.2-4.3-15.2v-3.6
		c0-6.6,1.5-11.6,4.4-14.9c2.9-3.3,6.8-5,11.6-5c4.7,0,8.6,1.7,11.4,5c2.9,3.3,4.3,8.2,4.3,14.8v2.9H395.5z M397.5,228.1
		c-1.3,1.7-2,4-2,7v0.1h14.3V235c0-2.9-0.7-5.2-2-6.9c-1.3-1.7-3-2.5-5.2-2.5C400.6,225.6,398.8,226.4,397.5,228.1z" />
      <path fill="#000000"
        d="M446.5,261.5c-2.4,0.2-4.8,0.2-7.2,0.2c-2.7,0-4.6-0.2-5.9-0.6c-1.3-0.4-2.2-1.2-2.8-2.4
		c-0.6-1.2-0.8-3.1-0.8-5.6v-26.6h-5l-2-6.6h7V208h8.6v11.9h8.2l-2,6.6h-6.2v28.3h6.2L446.5,261.5z" />
      <path fill="#000000"
        d="M459.6,241.6v4.4c0,3,0.7,5.3,2,6.9c1.4,1.6,3.3,2.4,6,2.4c2.2,0,3.9-0.6,5.3-1.8c1.3-1.2,2.5-2.9,3.4-5.1
		l7.9,2.1c-1.8,4.1-3.9,7.1-6.5,9c-2.6,1.9-6,2.9-10.1,2.9c-5.4,0-9.6-1.6-12.4-4.7c-2.9-3.1-4.3-8.2-4.3-15.2v-3.6
		c0-6.6,1.5-11.6,4.4-14.9c2.9-3.3,6.8-5,11.6-5c4.7,0,8.6,1.7,11.4,5c2.9,3.3,4.3,8.2,4.3,14.8v2.9H459.6z M461.6,228.1
		c-1.3,1.7-2,4-2,7v0.1h14.3V235c0-2.9-0.7-5.2-2-6.9c-1.3-1.7-3-2.5-5.2-2.5C464.7,225.6,462.9,226.4,461.6,228.1z" />
      <path fill="#000000"
        d="M540.8,261.5c-1.9,0.3-3.6,0.4-5.3,0.4c-2.6,0-4.3-0.3-5.4-1c-1-0.7-1.7-1.9-2-3.8c-1.9,1.8-3.8,3.2-5.6,4
		c-1.8,0.9-3.9,1.3-6.3,1.3c-2.9,0-5.5-1-7.6-2.9c-2.1-1.9-3.2-4.5-3.2-7.8c0-3,0.9-5.6,2.6-7.6c1.8-2.1,4.2-3.9,7.4-5.6l11.9-6
		v-1.4c0-1.9-0.5-3.2-1.4-4c-0.9-0.8-2.3-1.2-4.2-1.2c-2,0-3.7,0.7-4.9,2.2c-1.2,1.4-2,3.3-2.4,5.4l-7.7-2c0.9-4.5,2.7-7.7,5.4-9.6
		c2.7-1.9,5.9-2.8,9.6-2.8c4.2,0,7.6,0.9,10.2,2.8c2.6,1.8,3.9,5,3.9,9.4v23.8h2.6L540.8,261.5z M522.4,254.4c1.3-0.8,2.8-2,4.4-3.6
		l0.8-0.8v-10.5l-8.3,5c-1.8,1.1-3,2.1-3.8,3.2c-0.8,1.1-1.2,2.4-1.2,3.8c0,1.3,0.4,2.3,1.2,3c0.8,0.7,1.7,1.1,2.8,1.1
		C519.6,255.6,521.1,255.2,522.4,254.4z" />
      <path fill="#000000"
        d="M577.4,249.9c-1.5,4.3-3.5,7.4-6,9.4c-2.5,2-5.7,3-9.7,3c-11.1,0-16.6-6.6-16.6-19.9v-3.6
		c0-7,1.5-12.1,4.4-15.2c3-3.1,7-4.7,12.2-4.7c3.9,0,7.1,1,9.6,3c2.5,2,4.2,4.9,5.1,8.8l-8.1,2.1c-0.4-2.1-1.2-3.8-2.4-5
		c-1.1-1.3-2.5-1.9-4.2-1.9c-2.3,0-4.3,0.8-5.7,2.3c-1.5,1.5-2.2,3.9-2.2,7.1v11c0,3.2,0.7,5.6,2.2,7.1c1.5,1.5,3.4,2.3,5.7,2.3
		c2.1,0,3.8-0.7,5-2.2c1.3-1.5,2.2-3.4,2.8-5.6L577.4,249.9z" />
      <path fill="#000000"
        d="M604.5,261.5c-2.4,0.2-4.8,0.2-7.2,0.2c-2.7,0-4.6-0.2-5.9-0.6c-1.3-0.4-2.2-1.2-2.8-2.4
		c-0.6-1.2-0.8-3.1-0.8-5.6v-26.6h-5l-2-6.6h7V208h8.6v11.9h8.2l-2,6.6h-6.2v28.3h6.2L604.5,261.5z" />
      <path fill="#000000" d="M611,204.3h8.6v8.2H611V204.3z M611,219.9h8.6v41.5H611V219.9z" />
      <path fill="#000000" d="M659.3,219.9l-12.6,41.5h-7.8l-12.6-41.5h8l8.3,28.4l8.2-28.4H659.3z" />
      <path fill="#000000" d="M666,204.3h8.6v8.2H666V204.3z M666,219.9h8.6v41.5H666V219.9z" />
      <path fill="#000000"
        d="M704.7,261.5c-2.4,0.2-4.8,0.2-7.2,0.2c-2.7,0-4.6-0.2-5.9-0.6c-1.3-0.4-2.2-1.2-2.8-2.4
		c-0.6-1.2-0.8-3.1-0.8-5.6v-26.6h-5l-2-6.6h7V208h8.6v11.9h8.2l-2,6.6h-6.2v28.3h6.2L704.7,261.5z" />
      <path fill="#000000"
        d="M717.8,241.6v4.4c0,3,0.7,5.3,2,6.9s3.3,2.4,6,2.4c2.2,0,3.9-0.6,5.3-1.8c1.3-1.2,2.5-2.9,3.4-5.1l7.9,2.1
		c-1.8,4.1-3.9,7.1-6.5,9c-2.6,1.9-6,2.9-10.1,2.9c-5.4,0-9.6-1.6-12.4-4.7c-2.9-3.1-4.3-8.2-4.3-15.2v-3.6c0-6.6,1.5-11.6,4.4-14.9
		c2.9-3.3,6.8-5,11.6-5c4.7,0,8.6,1.7,11.4,5s4.3,8.2,4.3,14.8v2.9H717.8z M719.8,228.1c-1.3,1.7-2,4-2,7v0.1h14.3V235
		c0-2.9-0.7-5.2-2-6.9c-1.3-1.7-3-2.5-5.2-2.5C722.9,225.6,721.2,226.4,719.8,228.1z" />
      <path fill="#000000" d="M749.6,204.3h8.6v8.2h-8.6V204.3z M749.6,219.9h8.6v41.5h-8.6V219.9z" />
      <path fill="#000000"
        d="M788.3,261.5c-2.4,0.2-4.8,0.2-7.2,0.2c-2.7,0-4.6-0.2-5.9-0.6c-1.3-0.4-2.2-1.2-2.8-2.4
		c-0.6-1.2-0.8-3.1-0.8-5.6v-26.6h-5l-2-6.6h7V208h8.6v11.9h8.2l-2,6.6h-6.2v28.3h6.2L788.3,261.5z" />
      <path fill="#000000"
        d="M801.4,241.6v4.4c0,3,0.7,5.3,2,6.9s3.3,2.4,6,2.4c2.2,0,3.9-0.6,5.3-1.8c1.3-1.2,2.5-2.9,3.4-5.1l7.9,2.1
		c-1.8,4.1-3.9,7.1-6.5,9c-2.6,1.9-6,2.9-10.1,2.9c-5.4,0-9.6-1.6-12.4-4.7c-2.9-3.1-4.3-8.2-4.3-15.2v-3.6c0-6.6,1.5-11.6,4.4-14.9
		c2.9-3.3,6.8-5,11.6-5c4.7,0,8.6,1.7,11.4,5s4.3,8.2,4.3,14.8v2.9H801.4z M803.4,228.1c-1.3,1.7-2,4-2,7v0.1h14.3V235
		c0-2.9-0.7-5.2-2-6.9c-1.3-1.7-3-2.5-5.2-2.5C806.5,225.6,804.8,226.4,803.4,228.1z" />
      <path fill="#000000"
        d="M861.6,222.1c2.1,2.1,3.2,5.1,3.2,9.2v30.2h-8.6v-28.7c0-4.3-1.8-6.5-5.3-6.5c-1.4,0-2.8,0.4-4,1.3
		c-1.3,0.9-2.5,2-3.8,3.4l-1.4,1.4v29.1h-8.6v-41.5h8v5.4l1.5-1.6c3-3.2,6.5-4.8,10.4-4.8C856.6,219,859.4,220,861.6,222.1z" />
    </g>
    <g enable-background="new    " opacity=".5">
      <path fill="#000000"
        d="M21.1,36.5l-8-16.8H8.6v16.8H2.7V0.8h13.7c2.3,0,4.2,0.3,5.7,0.8c1.5,0.5,2.6,1.5,3.4,2.8
		c0.8,1.4,1.2,3.2,1.2,5.7c0,2.7-0.6,4.9-2,6.5c-1.3,1.6-3.1,2.5-5.4,2.9l8.1,17H21.1z M8.6,14.8h7c1.9,0,3.2-0.3,4-1
		c0.8-0.7,1.2-1.9,1.2-3.7s-0.4-3-1.2-3.7c-0.8-0.6-2.1-1-4-1h-7V14.8z" />
      <path fill="#000000"
        d="M38.5,14.5h13v4.8h-13v12h15l1.3,5.1H32.6V0.8h21.9l-1.3,4.9H38.5V14.5z" />
      <path fill="#000000"
        d="M61.5,26.2l1.3,1.8c2.2,2.8,4.6,4.2,7.2,4.2c1.5,0,2.8-0.5,3.8-1.5c1-1,1.4-2.2,1.4-3.7
		c0-1.1-0.4-2.1-1.1-3c-0.7-0.9-1.9-1.8-3.7-2.7l-4.6-2.8c-2.5-1.5-4.4-2.9-5.5-4.4c-1.1-1.5-1.6-3.2-1.6-5.2c0-2.8,1-4.9,3.1-6.5
		C63.8,0.8,66.4,0,69.6,0C73.5,0,77,1.6,80,4.8l1.4,1.5l-4.5,3.5l-1.2-1.3c-1.1-1.2-2.1-2-3.1-2.5c-0.9-0.5-1.9-0.8-3-0.8
		c-1.5,0-2.7,0.4-3.6,1.1c-0.9,0.7-1.4,1.6-1.4,2.6c0,1,0.3,1.8,0.9,2.4c0.6,0.6,1.6,1.3,3.2,2.2l4.6,2.7c2.7,1.5,4.7,3.1,5.9,4.8
		c1.2,1.7,1.9,3.7,1.9,5.9c0,2.1-0.5,4-1.4,5.5c-1,1.5-2.3,2.7-4,3.6c-1.7,0.8-3.6,1.2-5.8,1.2c-4.7,0-8.6-1.9-11.6-5.6l-1.8-2.2
		L61.5,26.2z" />
      <path fill="#000000"
        d="M93.2,14.5h13v4.8h-13v12h15l1.3,5.1H87.3V0.8h21.9l-1.3,4.9H93.2V14.5z" />
      <path fill="#000000"
        d="M133.2,36.5l-8-16.8h-4.5v16.8h-5.9V0.8h13.7c2.3,0,4.2,0.3,5.7,0.8c1.5,0.5,2.6,1.5,3.4,2.8
		c0.8,1.4,1.2,3.2,1.2,5.7c0,2.7-0.6,4.9-2,6.5c-1.3,1.6-3.1,2.5-5.4,2.9l8.1,17H133.2z M120.7,14.8h7c1.9,0,3.2-0.3,4-1
		c0.8-0.7,1.2-1.9,1.2-3.7s-0.4-3-1.2-3.7c-0.8-0.6-2.1-1-4-1h-7V14.8z" />
      <path fill="#000000" d="M168.3,0.8l-10.6,35.7h-5.1L141.9,0.8h5.6l7.5,25.6l7.5-25.6H168.3z" />
      <path fill="#000000"
        d="M178.9,14.5h13v4.8h-13v12h15l1.3,5.1H173V0.8h21.9l-1.3,4.9h-14.7V14.5z" />
      <path fill="#000000"
        d="M218.8,36.5l-8-16.8h-4.5v16.8h-5.9V0.8h13.7c2.3,0,4.2,0.3,5.7,0.8c1.5,0.5,2.6,1.5,3.4,2.8
		c0.8,1.4,1.2,3.2,1.2,5.7c0,2.7-0.6,4.9-2,6.5c-1.3,1.6-3.1,2.5-5.4,2.9l8.1,17H218.8z M206.4,14.8h7c1.9,0,3.2-0.3,4-1
		c0.8-0.7,1.2-1.9,1.2-3.7s-0.4-3-1.2-3.7c-0.8-0.6-2.1-1-4-1h-7V14.8z" />
      <path fill="#000000"
        d="M236.3,14.5h13v4.8h-13v12h15l1.3,5.1h-22.2V0.8h21.9L251,5.7h-14.7V14.5z" />
      <path fill="#000000"
        d="M283.4,0.8v35.7h-4.7l-15.3-24.7v24.7h-5.5V0.8h5.1l14.9,24v-24H283.4z" />
    </g>



    <g enable-background="new    ">
      <path fill="#FFFFFF"
        d="M33.3,139.5H13l-3.7,11.9H0l18.2-57.1h9.7L46,151.5h-9L33.3,139.5z M30.8,131.6l-7.7-24.5l-7.7,24.5H30.8z"
      />
      <path fill="#FFFFFF"
        d="M85.5,151.5c-1.9,0.3-3.6,0.4-5.3,0.4c-2.6,0-4.3-0.3-5.4-1c-1-0.7-1.7-1.9-2-3.8c-1.9,1.8-3.8,3.2-5.6,4
		c-1.8,0.9-3.9,1.3-6.3,1.3c-2.9,0-5.5-1-7.6-2.9c-2.1-1.9-3.2-4.5-3.2-7.8c0-3,0.9-5.6,2.6-7.6c1.8-2.1,4.2-3.9,7.4-5.6l11.9-6
		v-1.4c0-1.9-0.5-3.2-1.4-4c-0.9-0.8-2.3-1.2-4.2-1.2c-2,0-3.7,0.7-4.9,2.2c-1.2,1.4-2,3.3-2.4,5.4l-7.7-2c0.9-4.5,2.7-7.7,5.4-9.6
		c2.7-1.9,5.9-2.8,9.6-2.8c4.2,0,7.6,0.9,10.2,2.8c2.6,1.8,3.9,5,3.9,9.4v23.8h2.6L85.5,151.5z M67.1,144.4c1.3-0.8,2.8-2,4.4-3.6
		l0.8-0.8v-10.5l-8.3,5c-1.8,1.1-3,2.1-3.8,3.2c-0.8,1.1-1.2,2.4-1.2,3.8c0,1.3,0.4,2.3,1.2,3c0.8,0.7,1.7,1.1,2.8,1.1
		C64.4,145.6,65.8,145.2,67.1,144.4z" />
      <path fill="#FFFFFF"
        d="M120.2,112.1c2.1,2.1,3.2,5.1,3.2,9.2v30.2h-8.6v-28.7c0-4.3-1.8-6.5-5.3-6.5c-1.4,0-2.8,0.4-4,1.3
		c-1.3,0.9-2.5,2-3.8,3.4l-1.4,1.4v29.1h-8.6v-41.5h8v5.4l1.5-1.6c3-3.2,6.5-4.8,10.4-4.8C115.3,109,118.1,110,120.2,112.1z" />
      <path fill="#FFFFFF"
        d="M182.5,112.1c2,2.1,3,5.1,3,9.2v30.2H177v-28.7c0-4.3-1.5-6.5-4.6-6.5c-1.3,0-2.5,0.4-3.5,1.3
		c-1.1,0.9-2.2,2-3.4,3.4l-1.3,1.4v29.1h-8.6v-28.7c0-4.3-1.6-6.5-4.7-6.5c-1.2,0-2.3,0.4-3.3,1.2c-1,0.8-2.2,1.9-3.6,3.4l-1.3,1.4
		v29.1h-8.6v-41.5h8v5.4l1.4-1.6c2.8-3.2,6-4.8,9.5-4.8c2.3,0,4.3,0.5,6.1,1.6c1.8,1,3.1,2.6,3.9,4.7l1.2-1.4c1.4-1.6,3-2.8,4.8-3.6
		c1.8-0.8,3.6-1.2,5.4-1.2C177.9,109,180.5,110,182.5,112.1z" />
      <path fill="#FFFFFF"
        d="M203,131.6v4.4c0,3,0.7,5.3,2,6.9c1.4,1.6,3.3,2.4,6,2.4c2.2,0,3.9-0.6,5.3-1.8c1.3-1.2,2.5-2.9,3.4-5.1
		l7.9,2.1c-1.8,4.1-3.9,7.1-6.5,9c-2.6,1.9-6,2.9-10.1,2.9c-5.4,0-9.6-1.6-12.4-4.7c-2.9-3.1-4.3-8.2-4.3-15.2v-3.6
		c0-6.6,1.5-11.6,4.4-14.9c2.9-3.3,6.8-5,11.6-5c4.7,0,8.6,1.7,11.4,5c2.9,3.3,4.3,8.2,4.3,14.8v2.9H203z M205,118.1
		c-1.3,1.7-2,4-2,7v0.1h14.3V125c0-2.9-0.7-5.2-2-6.9c-1.3-1.7-3-2.5-5.2-2.5C208,115.6,206.3,116.4,205,118.1z" />
      <path fill="#FFFFFF"
        d="M234.7,94.3h8.6v50.5h2.6l2.1,6.6c-1.9,0.2-3.7,0.3-5.4,0.3c-2,0-3.5-0.2-4.6-0.6c-1.1-0.4-1.9-1.2-2.5-2.4
		c-0.6-1.2-0.8-3.1-0.8-5.6V94.3z" />
      <path fill="#FFFFFF"
        d="M271.9,110.5c1.6,1,3,2.4,4.3,4.2V94.3h8.6v57.1h-8v-4.6c-1.2,1.7-2.7,3.1-4.6,4.1c-1.8,1-3.8,1.5-5.9,1.5
		c-4.3,0-7.7-1.6-10.2-4.7s-3.7-8.2-3.7-15.2v-3.6c0-7,1.2-12.1,3.7-15.2s5.9-4.7,10.2-4.7C268.4,109,270.3,109.5,271.9,110.5z
		 M263,143.2c1.3,1.5,3,2.2,5.3,2.2c1.7,0,3.2-0.6,4.6-1.7c1.4-1.1,2.5-2.6,3.3-4.3v-17.5c-0.9-1.7-2-3.1-3.3-4.3
		c-1.4-1.1-2.9-1.7-4.6-1.7c-2.2,0-4,0.7-5.3,2.2c-1.3,1.5-1.9,3.8-1.9,7v11C261,139.4,261.7,141.7,263,143.2z" />
      <path fill="#FFFFFF"
        d="M302.2,131.6v4.4c0,3,0.7,5.3,2,6.9c1.4,1.6,3.3,2.4,6,2.4c2.2,0,3.9-0.6,5.3-1.8c1.3-1.2,2.5-2.9,3.4-5.1
		l7.9,2.1c-1.8,4.1-3.9,7.1-6.5,9c-2.6,1.9-6,2.9-10.1,2.9c-5.4,0-9.6-1.6-12.4-4.7c-2.9-3.1-4.3-8.2-4.3-15.2v-3.6
		c0-6.6,1.5-11.6,4.4-14.9c2.9-3.3,6.8-5,11.6-5c4.7,0,8.6,1.7,11.4,5c2.9,3.3,4.3,8.2,4.3,14.8v2.9H302.2z M304.2,118.1
		c-1.3,1.7-2,4-2,7v0.1h14.3V125c0-2.9-0.7-5.2-2-6.9c-1.3-1.7-3-2.5-5.2-2.5C307.3,115.6,305.6,116.4,304.2,118.1z" />
      <path fill="#FFFFFF"
        d="M362.4,112.1c2.1,2.1,3.2,5.1,3.2,9.2v30.2H357v-28.7c0-4.3-1.8-6.5-5.3-6.5c-1.4,0-2.8,0.4-4,1.3
		c-1.3,0.9-2.5,2-3.8,3.4l-1.4,1.4v29.1H334v-41.5h8v5.4l1.5-1.6c3-3.2,6.5-4.8,10.4-4.8C357.4,109,360.3,110,362.4,112.1z" />
      <path fill="#FFFFFF" d="M421.8,109.9l-12.6,41.5h-7.8l-12.6-41.5h8l8.3,28.4l8.2-28.4H421.8z" />
      <path fill="#FFFFFF"
        d="M459.2,128.9v3.6c0,13.3-5.5,19.9-16.6,19.9c-11.1,0-16.6-6.6-16.6-19.9v-3.6c0-13.3,5.5-19.9,16.6-19.9
		C453.6,109,459.2,115.6,459.2,128.9z M436.8,118.1c-1.5,1.5-2.2,3.9-2.2,7.1v11c0,3.2,0.7,5.6,2.2,7.1c1.5,1.5,3.4,2.3,5.7,2.3
		c2.3,0,4.2-0.8,5.6-2.3c1.5-1.5,2.2-3.9,2.2-7v-11c0-3.1-0.7-5.5-2.2-7c-1.5-1.5-3.3-2.3-5.6-2.3
		C440.2,115.9,438.3,116.6,436.8,118.1z" />
      <path fill="#FFFFFF"
        d="M499.2,128.9v3.6c0,13.3-5.5,19.9-16.6,19.9c-11.1,0-16.6-6.6-16.6-19.9v-3.6c0-13.3,5.5-19.9,16.6-19.9
		C493.6,109,499.2,115.6,499.2,128.9z M476.8,118.1c-1.5,1.5-2.2,3.9-2.2,7.1v11c0,3.2,0.7,5.6,2.2,7.1c1.5,1.5,3.4,2.3,5.7,2.3
		c2.3,0,4.2-0.8,5.6-2.3c1.5-1.5,2.2-3.9,2.2-7v-11c0-3.1-0.7-5.5-2.2-7c-1.5-1.5-3.3-2.3-5.6-2.3
		C480.2,115.9,478.3,116.6,476.8,118.1z" />
      <path fill="#FFFFFF"
        d="M522.6,110.2c1.9-0.8,4.3-1.2,7.3-1.2l-2.7,9.1c-2.1,0-3.9,0.4-5.6,1.2c-1.6,0.8-2.9,1.7-3.9,2.9l-1.3,1.5
		v27.8h-8.6v-41.5h8v6.2l1.4-1.7C519,112.5,520.8,111,522.6,110.2z" />
    </g>
    <g enable-background="new    ">
      <path fill="#FFFFFF"
        d="M36.3,245.3c0,6.4-1.5,10.9-4.5,13.5c-3,2.6-7.3,3.9-12.8,3.9c-4.8,0-8.8-1.3-12-3.8
		c-3.2-2.5-5.1-6.4-5.5-11.6c-0.1-1.5-0.3-3.7-0.6-6.7l8.8-1l0.6,6.3c0.3,3.3,1.2,5.5,2.7,6.8c1.5,1.3,3.4,2,5.8,2
		c2.6,0,4.5-0.7,6-2.1c1.4-1.4,2.1-3.9,2.1-7.3v-40.9h9.4V245.3z" />
      <path fill="#FFFFFF"
        d="M79.4,238.9v3.6c0,13.3-5.5,19.9-16.6,19.9c-11.1,0-16.6-6.6-16.6-19.9v-3.6c0-13.3,5.5-19.9,16.6-19.9
		C73.9,219,79.4,225.6,79.4,238.9z M57.1,228.1c-1.5,1.5-2.2,3.9-2.2,7.1v11c0,3.2,0.7,5.6,2.2,7.1c1.5,1.5,3.4,2.3,5.7,2.3
		c2.3,0,4.2-0.8,5.6-2.3c1.5-1.5,2.2-3.9,2.2-7v-11c0-3.1-0.7-5.5-2.2-7c-1.5-1.5-3.3-2.3-5.6-2.3C60.5,225.9,58.5,226.6,57.1,228.1
		z" />
      <path fill="#FFFFFF"
        d="M91.4,259.3c-2.2-2.1-3.2-5.1-3.2-9.2v-30.2h8.6v28.7c0,4.3,1.8,6.5,5.4,6.5c1.4,0,2.8-0.4,4-1.3
		c1.2-0.9,2.5-2,3.8-3.4l1.4-1.4v-29.1h8.6v41.5h-8V256l-1.5,1.6c-3,3.2-6.4,4.8-10.3,4.8C96.4,262.4,93.6,261.4,91.4,259.3z" />
      <path fill="#FFFFFF"
        d="M180.4,219.9l-10.6,41.5H162l-8.8-31l-8.4,31H137l-10.6-41.5h8.2l6.8,28.5l7.4-28.5h8.9l7.5,27.8l6.6-27.8
		H180.4z" />
      <path fill="#FFFFFF"
        d="M214.7,219.9h8.2l-2,6.6h-6.2v35h-8.6v-35h-5l-2-6.6h7v-7.4c0-2.6,0.3-4.5,0.8-5.7c0.6-1.2,1.5-2,2.8-2.4
		c1.3-0.4,3.3-0.6,5.9-0.6c2.4,0,4.8,0.1,7.2,0.2l-2,6.6h-6.2V219.9z" />
      <path fill="#FFFFFF"
        d="M260.6,261.5c-1.9,0.3-3.6,0.4-5.3,0.4c-2.6,0-4.3-0.3-5.4-1c-1-0.7-1.7-1.9-2-3.8c-1.9,1.8-3.8,3.2-5.6,4
		c-1.8,0.9-3.9,1.3-6.3,1.3c-2.9,0-5.5-1-7.6-2.9c-2.1-1.9-3.2-4.5-3.2-7.8c0-3,0.9-5.6,2.6-7.6c1.8-2.1,4.2-3.9,7.4-5.6l11.9-6
		v-1.4c0-1.9-0.5-3.2-1.4-4c-0.9-0.8-2.3-1.2-4.2-1.2c-2,0-3.7,0.7-4.9,2.2c-1.2,1.4-2,3.3-2.4,5.4l-7.7-2c0.9-4.5,2.7-7.7,5.4-9.6
		c2.7-1.9,5.9-2.8,9.6-2.8c4.2,0,7.6,0.9,10.2,2.8c2.6,1.8,3.9,5,3.9,9.4v23.8h2.6L260.6,261.5z M242.2,254.4c1.3-0.8,2.8-2,4.4-3.6
		l0.8-0.8v-10.5l-8.3,5c-1.8,1.1-3,2.1-3.8,3.2c-0.8,1.1-1.2,2.4-1.2,3.8c0,1.3,0.4,2.3,1.2,3c0.8,0.7,1.7,1.1,2.8,1.1
		C239.4,255.6,240.8,255.2,242.2,254.4z" />
      <path fill="#FFFFFF" d="M294.9,219.9l-12.6,41.5h-7.8l-12.6-41.5h8l8.3,28.4l8.2-28.4H294.9z" />
      <path fill="#FFFFFF"
        d="M332.2,238.9v3.6c0,13.3-5.5,19.9-16.6,19.9c-11.1,0-16.6-6.6-16.6-19.9v-3.6c0-13.3,5.5-19.9,16.6-19.9
		C326.7,219,332.2,225.6,332.2,238.9z M309.9,228.1c-1.5,1.5-2.2,3.9-2.2,7.1v11c0,3.2,0.7,5.6,2.2,7.1c1.5,1.5,3.4,2.3,5.7,2.3
		c2.3,0,4.2-0.8,5.6-2.3c1.5-1.5,2.2-3.9,2.2-7v-11c0-3.1-0.7-5.5-2.2-7c-1.5-1.5-3.3-2.3-5.6-2.3
		C313.2,225.9,311.3,226.6,309.9,228.1z" />
      <path fill="#FFFFFF"
        d="M355.7,220.2c1.9-0.8,4.3-1.2,7.3-1.2l-2.7,9.1c-2.1,0-3.9,0.4-5.6,1.2c-1.6,0.8-2.9,1.7-3.9,2.9l-1.3,1.5
		v27.8H341v-41.5h8v6.2l1.4-1.7C352.1,222.5,353.8,221,355.7,220.2z" />
      <path fill="#FFFFFF" d="M369.4,204.3h8.6v8.2h-8.6V204.3z M369.4,219.9h8.6v41.5h-8.6V219.9z" />
      <path fill="#FFFFFF"
        d="M395.5,241.6v4.4c0,3,0.7,5.3,2,6.9c1.4,1.6,3.3,2.4,6,2.4c2.2,0,3.9-0.6,5.3-1.8c1.3-1.2,2.5-2.9,3.4-5.1
		l7.9,2.1c-1.8,4.1-3.9,7.1-6.5,9c-2.6,1.9-6,2.9-10.1,2.9c-5.4,0-9.6-1.6-12.4-4.7c-2.9-3.1-4.3-8.2-4.3-15.2v-3.6
		c0-6.6,1.5-11.6,4.4-14.9c2.9-3.3,6.8-5,11.6-5c4.7,0,8.6,1.7,11.4,5c2.9,3.3,4.3,8.2,4.3,14.8v2.9H395.5z M397.5,228.1
		c-1.3,1.7-2,4-2,7v0.1h14.3V235c0-2.9-0.7-5.2-2-6.9c-1.3-1.7-3-2.5-5.2-2.5C400.6,225.6,398.8,226.4,397.5,228.1z" />
      <path fill="#FFFFFF"
        d="M446.5,261.5c-2.4,0.2-4.8,0.2-7.2,0.2c-2.7,0-4.6-0.2-5.9-0.6c-1.3-0.4-2.2-1.2-2.8-2.4
		c-0.6-1.2-0.8-3.1-0.8-5.6v-26.6h-5l-2-6.6h7V208h8.6v11.9h8.2l-2,6.6h-6.2v28.3h6.2L446.5,261.5z" />
      <path fill="#FFFFFF"
        d="M459.6,241.6v4.4c0,3,0.7,5.3,2,6.9c1.4,1.6,3.3,2.4,6,2.4c2.2,0,3.9-0.6,5.3-1.8c1.3-1.2,2.5-2.9,3.4-5.1
		l7.9,2.1c-1.8,4.1-3.9,7.1-6.5,9c-2.6,1.9-6,2.9-10.1,2.9c-5.4,0-9.6-1.6-12.4-4.7c-2.9-3.1-4.3-8.2-4.3-15.2v-3.6
		c0-6.6,1.5-11.6,4.4-14.9c2.9-3.3,6.8-5,11.6-5c4.7,0,8.6,1.7,11.4,5c2.9,3.3,4.3,8.2,4.3,14.8v2.9H459.6z M461.6,228.1
		c-1.3,1.7-2,4-2,7v0.1h14.3V235c0-2.9-0.7-5.2-2-6.9c-1.3-1.7-3-2.5-5.2-2.5C464.7,225.6,462.9,226.4,461.6,228.1z" />
      <path fill="#FFFFFF"
        d="M540.8,261.5c-1.9,0.3-3.6,0.4-5.3,0.4c-2.6,0-4.3-0.3-5.4-1c-1-0.7-1.7-1.9-2-3.8c-1.9,1.8-3.8,3.2-5.6,4
		c-1.8,0.9-3.9,1.3-6.3,1.3c-2.9,0-5.5-1-7.6-2.9c-2.1-1.9-3.2-4.5-3.2-7.8c0-3,0.9-5.6,2.6-7.6c1.8-2.1,4.2-3.9,7.4-5.6l11.9-6
		v-1.4c0-1.9-0.5-3.2-1.4-4c-0.9-0.8-2.3-1.2-4.2-1.2c-2,0-3.7,0.7-4.9,2.2c-1.2,1.4-2,3.3-2.4,5.4l-7.7-2c0.9-4.5,2.7-7.7,5.4-9.6
		c2.7-1.9,5.9-2.8,9.6-2.8c4.2,0,7.6,0.9,10.2,2.8c2.6,1.8,3.9,5,3.9,9.4v23.8h2.6L540.8,261.5z M522.4,254.4c1.3-0.8,2.8-2,4.4-3.6
		l0.8-0.8v-10.5l-8.3,5c-1.8,1.1-3,2.1-3.8,3.2c-0.8,1.1-1.2,2.4-1.2,3.8c0,1.3,0.4,2.3,1.2,3c0.8,0.7,1.7,1.1,2.8,1.1
		C519.6,255.6,521.1,255.2,522.4,254.4z" />
      <path fill="#FFFFFF"
        d="M577.4,249.9c-1.5,4.3-3.5,7.4-6,9.4c-2.5,2-5.7,3-9.7,3c-11.1,0-16.6-6.6-16.6-19.9v-3.6
		c0-7,1.5-12.1,4.4-15.2c3-3.1,7-4.7,12.2-4.7c3.9,0,7.1,1,9.6,3c2.5,2,4.2,4.9,5.1,8.8l-8.1,2.1c-0.4-2.1-1.2-3.8-2.4-5
		c-1.1-1.3-2.5-1.9-4.2-1.9c-2.3,0-4.3,0.8-5.7,2.3c-1.5,1.5-2.2,3.9-2.2,7.1v11c0,3.2,0.7,5.6,2.2,7.1c1.5,1.5,3.4,2.3,5.7,2.3
		c2.1,0,3.8-0.7,5-2.2c1.3-1.5,2.2-3.4,2.8-5.6L577.4,249.9z" />
      <path fill="#FFFFFF"
        d="M604.5,261.5c-2.4,0.2-4.8,0.2-7.2,0.2c-2.7,0-4.6-0.2-5.9-0.6c-1.3-0.4-2.2-1.2-2.8-2.4
		c-0.6-1.2-0.8-3.1-0.8-5.6v-26.6h-5l-2-6.6h7V208h8.6v11.9h8.2l-2,6.6h-6.2v28.3h6.2L604.5,261.5z" />
      <path fill="#FFFFFF" d="M611,204.3h8.6v8.2H611V204.3z M611,219.9h8.6v41.5H611V219.9z" />
      <path fill="#FFFFFF" d="M659.3,219.9l-12.6,41.5h-7.8l-12.6-41.5h8l8.3,28.4l8.2-28.4H659.3z" />
      <path fill="#FFFFFF" d="M666,204.3h8.6v8.2H666V204.3z M666,219.9h8.6v41.5H666V219.9z" />
      <path fill="#FFFFFF"
        d="M704.7,261.5c-2.4,0.2-4.8,0.2-7.2,0.2c-2.7,0-4.6-0.2-5.9-0.6c-1.3-0.4-2.2-1.2-2.8-2.4
		c-0.6-1.2-0.8-3.1-0.8-5.6v-26.6h-5l-2-6.6h7V208h8.6v11.9h8.2l-2,6.6h-6.2v28.3h6.2L704.7,261.5z" />
      <path fill="#FFFFFF"
        d="M717.8,241.6v4.4c0,3,0.7,5.3,2,6.9s3.3,2.4,6,2.4c2.2,0,3.9-0.6,5.3-1.8c1.3-1.2,2.5-2.9,3.4-5.1l7.9,2.1
		c-1.8,4.1-3.9,7.1-6.5,9c-2.6,1.9-6,2.9-10.1,2.9c-5.4,0-9.6-1.6-12.4-4.7c-2.9-3.1-4.3-8.2-4.3-15.2v-3.6c0-6.6,1.5-11.6,4.4-14.9
		c2.9-3.3,6.8-5,11.6-5c4.7,0,8.6,1.7,11.4,5s4.3,8.2,4.3,14.8v2.9H717.8z M719.8,228.1c-1.3,1.7-2,4-2,7v0.1h14.3V235
		c0-2.9-0.7-5.2-2-6.9c-1.3-1.7-3-2.5-5.2-2.5C722.9,225.6,721.2,226.4,719.8,228.1z" />
      <path fill="#FFFFFF" d="M749.6,204.3h8.6v8.2h-8.6V204.3z M749.6,219.9h8.6v41.5h-8.6V219.9z" />
      <path fill="#FFFFFF"
        d="M788.3,261.5c-2.4,0.2-4.8,0.2-7.2,0.2c-2.7,0-4.6-0.2-5.9-0.6c-1.3-0.4-2.2-1.2-2.8-2.4
		c-0.6-1.2-0.8-3.1-0.8-5.6v-26.6h-5l-2-6.6h7V208h8.6v11.9h8.2l-2,6.6h-6.2v28.3h6.2L788.3,261.5z" />
      <path fill="#FFFFFF"
        d="M801.4,241.6v4.4c0,3,0.7,5.3,2,6.9s3.3,2.4,6,2.4c2.2,0,3.9-0.6,5.3-1.8c1.3-1.2,2.5-2.9,3.4-5.1l7.9,2.1
		c-1.8,4.1-3.9,7.1-6.5,9c-2.6,1.9-6,2.9-10.1,2.9c-5.4,0-9.6-1.6-12.4-4.7c-2.9-3.1-4.3-8.2-4.3-15.2v-3.6c0-6.6,1.5-11.6,4.4-14.9
		c2.9-3.3,6.8-5,11.6-5c4.7,0,8.6,1.7,11.4,5s4.3,8.2,4.3,14.8v2.9H801.4z M803.4,228.1c-1.3,1.7-2,4-2,7v0.1h14.3V235
		c0-2.9-0.7-5.2-2-6.9c-1.3-1.7-3-2.5-5.2-2.5C806.5,225.6,804.8,226.4,803.4,228.1z" />
      <path fill="#FFFFFF"
        d="M861.6,222.1c2.1,2.1,3.2,5.1,3.2,9.2v30.2h-8.6v-28.7c0-4.3-1.8-6.5-5.3-6.5c-1.4,0-2.8,0.4-4,1.3
		c-1.3,0.9-2.5,2-3.8,3.4l-1.4,1.4v29.1h-8.6v-41.5h8v5.4l1.5-1.6c3-3.2,6.5-4.8,10.4-4.8C856.6,219,859.4,220,861.6,222.1z" />
    </g>
    <g enable-background="new    " opacity=".5">
      <path fill="#FFFFFF"
        d="M21.1,36.5l-8-16.8H8.6v16.8H2.7V0.8h13.7c2.3,0,4.2,0.3,5.7,0.8c1.5,0.5,2.6,1.5,3.4,2.8
		c0.8,1.4,1.2,3.2,1.2,5.7c0,2.7-0.6,4.9-2,6.5c-1.3,1.6-3.1,2.5-5.4,2.9l8.1,17H21.1z M8.6,14.8h7c1.9,0,3.2-0.3,4-1
		c0.8-0.7,1.2-1.9,1.2-3.7s-0.4-3-1.2-3.7c-0.8-0.6-2.1-1-4-1h-7V14.8z" />
      <path fill="#FFFFFF"
        d="M38.5,14.5h13v4.8h-13v12h15l1.3,5.1H32.6V0.8h21.9l-1.3,4.9H38.5V14.5z" />
      <path fill="#FFFFFF"
        d="M61.5,26.2l1.3,1.8c2.2,2.8,4.6,4.2,7.2,4.2c1.5,0,2.8-0.5,3.8-1.5c1-1,1.4-2.2,1.4-3.7
		c0-1.1-0.4-2.1-1.1-3c-0.7-0.9-1.9-1.8-3.7-2.7l-4.6-2.8c-2.5-1.5-4.4-2.9-5.5-4.4c-1.1-1.5-1.6-3.2-1.6-5.2c0-2.8,1-4.9,3.1-6.5
		C63.8,0.8,66.4,0,69.6,0C73.5,0,77,1.6,80,4.8l1.4,1.5l-4.5,3.5l-1.2-1.3c-1.1-1.2-2.1-2-3.1-2.5c-0.9-0.5-1.9-0.8-3-0.8
		c-1.5,0-2.7,0.4-3.6,1.1c-0.9,0.7-1.4,1.6-1.4,2.6c0,1,0.3,1.8,0.9,2.4c0.6,0.6,1.6,1.3,3.2,2.2l4.6,2.7c2.7,1.5,4.7,3.1,5.9,4.8
		c1.2,1.7,1.9,3.7,1.9,5.9c0,2.1-0.5,4-1.4,5.5c-1,1.5-2.3,2.7-4,3.6c-1.7,0.8-3.6,1.2-5.8,1.2c-4.7,0-8.6-1.9-11.6-5.6l-1.8-2.2
		L61.5,26.2z" />
      <path fill="#FFFFFF"
        d="M93.2,14.5h13v4.8h-13v12h15l1.3,5.1H87.3V0.8h21.9l-1.3,4.9H93.2V14.5z" />
      <path fill="#FFFFFF"
        d="M133.2,36.5l-8-16.8h-4.5v16.8h-5.9V0.8h13.7c2.3,0,4.2,0.3,5.7,0.8c1.5,0.5,2.6,1.5,3.4,2.8
		c0.8,1.4,1.2,3.2,1.2,5.7c0,2.7-0.6,4.9-2,6.5c-1.3,1.6-3.1,2.5-5.4,2.9l8.1,17H133.2z M120.7,14.8h7c1.9,0,3.2-0.3,4-1
		c0.8-0.7,1.2-1.9,1.2-3.7s-0.4-3-1.2-3.7c-0.8-0.6-2.1-1-4-1h-7V14.8z" />
      <path fill="#FFFFFF" d="M168.3,0.8l-10.6,35.7h-5.1L141.9,0.8h5.6l7.5,25.6l7.5-25.6H168.3z" />
      <path fill="#FFFFFF"
        d="M178.9,14.5h13v4.8h-13v12h15l1.3,5.1H173V0.8h21.9l-1.3,4.9h-14.7V14.5z" />
      <path fill="#FFFFFF"
        d="M218.8,36.5l-8-16.8h-4.5v16.8h-5.9V0.8h13.7c2.3,0,4.2,0.3,5.7,0.8c1.5,0.5,2.6,1.5,3.4,2.8
		c0.8,1.4,1.2,3.2,1.2,5.7c0,2.7-0.6,4.9-2,6.5c-1.3,1.6-3.1,2.5-5.4,2.9l8.1,17H218.8z M206.4,14.8h7c1.9,0,3.2-0.3,4-1
		c0.8-0.7,1.2-1.9,1.2-3.7s-0.4-3-1.2-3.7c-0.8-0.6-2.1-1-4-1h-7V14.8z" />
      <path fill="#FFFFFF"
        d="M236.3,14.5h13v4.8h-13v12h15l1.3,5.1h-22.2V0.8h21.9L251,5.7h-14.7V14.5z" />
      <path fill="#FFFFFF"
        d="M283.4,0.8v35.7h-4.7l-15.3-24.7v24.7h-5.5V0.8h5.1l14.9,24v-24H283.4z" />
    </g>

    </g>

    <g transform="rotate(15, 0, 0) translate({positionX} {positionY})" id="device-container" class="device-container"></g>

  </g>
</svg>