<svg id="Laag_1" xmlns="http://www.w3.org/2000/svg" version="1.1"
  xmlns:xlink="http://www.w3.org/1999/xlink" viewBox="0 0 1290 2796">
  <defs>
    <clipPath id="clippath">
      <path
        d="M640.2,618.2l1056.2,283.2c76.3,20.5,121.6,98.9,101.1,175.2l-694.2,2589.2c-20.5,76.3-98.9,121.6-175.2,101.1l-1056.2-283.2c-76.3-20.5-121.6-98.9-101.1-175.2L465,719.3c20.5-76.3,98.9-121.6,175.2-101.1Z"
        fill="none" />
    </clipPath>
  </defs>
  <rect class="background" x="-311" y="-46" width="1917" height="2913" opacity="0.1" />

  <g transform="translate(-100 55)">
    <g id="Component_22_2" opacity=".5">
      <g isolation="isolate">
        <path d="M81.1,222.1h20.7v7.7h-20.7v19.2h24l2.1,8.2h-35.5v-57.1h35l-2.1,7.8h-23.5v14.2Z" />
        <path
          d="M121.2,237.3v4.4c0,3,.7,5.3,2,6.9,1.4,1.6,3.3,2.4,6,2.4s3.9-.6,5.3-1.8c1.3-1.2,2.5-2.9,3.4-5.1l7.9,2.1c-1.8,4.1-3.9,7.1-6.5,9-2.6,1.9-6,2.9-10.1,2.9s-9.6-1.6-12.4-4.7c-2.9-3.1-4.3-8.2-4.3-15.2v-3.6c0-6.6,1.5-11.6,4.4-14.9,2.9-3.3,6.8-5,11.6-5s8.6,1.7,11.4,5,4.3,8.2,4.3,14.8v2.9h-23ZM123.2,223.8c-1.3,1.7-2,4-2,7h0c0,0,14.3,0,14.3,0h0c0-3-.7-5.3-2-7-1.3-1.7-3-2.5-5.2-2.5s-3.9.8-5.2,2.5Z" />
        <path
          d="M181.4,217.8c2.1,2.1,3.2,5.1,3.2,9.2v30.2h-8.6v-28.7c0-4.3-1.8-6.5-5.3-6.5s-2.8.4-4,1.3c-1.3.9-2.5,2-3.8,3.4l-1.4,1.4v29.1h-8.6v-41.5h8v5.4l1.5-1.6c3-3.2,6.5-4.8,10.4-4.8s6.3,1,8.5,3.1Z" />
        <path
          d="M224.7,256.6c-1.6-1-3-2.4-4.3-4.2v18.4h-8.6v-55.2h8.1v4.6c1.2-1.8,2.7-3.1,4.6-4.1,1.8-1,3.8-1.5,5.9-1.5,4.3,0,7.7,1.6,10.2,4.7,2.5,3.1,3.7,8.2,3.7,15.2v3.6c0,7-1.2,12.1-3.7,15.2-2.5,3.1-5.9,4.7-10.2,4.7s-4.1-.5-5.7-1.5ZM228.3,221.6c-1.7,0-3.2.6-4.6,1.7-1.4,1.1-2.5,2.6-3.3,4.3v17.5c.9,1.8,2,3.2,3.4,4.3,1.4,1.1,2.9,1.7,4.5,1.7,4.8,0,7.2-3.1,7.2-9.3v-11c0-6.2-2.4-9.3-7.2-9.3Z" />
        <path
          d="M253,200h8.6v50.5h2.6l2.1,6.6c-1.9.2-3.7.3-5.4.3s-3.5-.2-4.6-.6c-1.1-.4-1.9-1.2-2.5-2.4-.6-1.2-.8-3.1-.8-5.6v-48.8Z" />
        <path
          d="M279.4,237.3v4.4c0,3,.7,5.3,2,6.9,1.4,1.6,3.3,2.4,6,2.4s3.9-.6,5.3-1.8c1.3-1.2,2.5-2.9,3.4-5.1l7.9,2.1c-1.8,4.1-3.9,7.1-6.5,9-2.6,1.9-6,2.9-10.1,2.9s-9.6-1.6-12.4-4.7c-2.9-3.1-4.3-8.2-4.3-15.2v-3.6c0-6.6,1.5-11.6,4.4-14.9,2.9-3.3,6.8-5,11.6-5s8.6,1.7,11.4,5,4.3,8.2,4.3,14.8v2.9h-23ZM281.4,223.8c-1.3,1.7-2,4-2,7h0c0,0,14.3,0,14.3,0h0c0-3-.7-5.3-2-7-1.3-1.7-3-2.5-5.2-2.5s-3.9.8-5.2,2.5Z" />
        <path
          d="M334.2,257.1l-10.8-21.7-3.7,4.2v17.5h-8.6v-57.1h8.6v29l11.8-13.4h10.1l-12.3,13.9,13.8,27.6h-8.9Z" />
        <path
          d="M348.9,264.3v-48.6h8.6v46.9c0,2.6-.3,4.4-.8,5.6-.6,1.2-1.5,2-2.8,2.4-1.3.4-3.3.6-5.9.6s-4.9,0-6.1-.2l2-6.6h5ZM348.9,200h8.6v8.2h-8.6v-8.2Z" />
        <path
          d="M375,237.3v4.4c0,3,.7,5.3,2,6.9,1.4,1.6,3.3,2.4,6,2.4s3.9-.6,5.3-1.8c1.3-1.2,2.5-2.9,3.4-5.1l7.9,2.1c-1.8,4.1-3.9,7.1-6.5,9-2.6,1.9-6,2.9-10.1,2.9s-9.6-1.6-12.4-4.7c-2.9-3.1-4.3-8.2-4.3-15.2v-3.6c0-6.6,1.5-11.6,4.4-14.9,2.9-3.3,6.8-5,11.6-5s8.6,1.7,11.4,5,4.3,8.2,4.3,14.8v2.9h-23ZM377,223.8c-1.3,1.7-2,4-2,7h0c0,0,14.3,0,14.3,0h0c0-3-.7-5.3-2-7-1.3-1.7-3-2.5-5.2-2.5s-3.9.8-5.2,2.5Z" />
        <path d="M452.2,215.6l-12.6,41.5h-7.8l-12.6-41.5h8l8.3,28.4,8.2-28.4h8.5Z" />
        <path
          d="M473.6,215.9c1.9-.8,4.3-1.2,7.3-1.2l-2.7,9.1c-2.1,0-3.9.4-5.6,1.2-1.6.8-2.9,1.7-3.9,2.9l-1.3,1.5v27.8h-8.6v-41.5h8v6.2l1.4-1.7c1.7-2,3.4-3.5,5.3-4.3Z" />
        <path d="M487.3,200h8.6v8.2h-8.6v-8.2ZM487.3,215.6h8.6v41.5h-8.6v-41.5Z" />
        <path
          d="M506.7,264.3v-48.6h8.6v46.9c0,2.6-.3,4.4-.8,5.6-.6,1.2-1.5,2-2.8,2.4-1.3.4-3.3.6-5.9.6s-4.9,0-6.1-.2l2-6.6h5ZM506.7,200h8.6v8.2h-8.6v-8.2Z" />
        <path
          d="M548.9,202.1c2.7,2.2,4,5.3,4,9.3s-.5,4.7-1.4,6.6c-1,1.9-2.6,4-4.9,6.4l-2.3,2.6c-2.7,2.9-4,6.1-4,9.5v3.8h-6.7v-4.7c0-2.8.4-5.1,1.1-6.9.7-1.8,2-3.7,3.8-5.9l1.6-2c1.2-1.5,2.1-3,2.7-4.4.6-1.4.9-2.9.9-4.4s-.6-3-1.8-4c-1.2-1-2.7-1.6-4.6-1.6-3.5,0-6.2,1.9-8.1,5.8l-6.2-3.3c1.4-3.4,3.5-5.9,6.2-7.6,2.7-1.7,5.8-2.6,9.2-2.6s7.7,1.1,10.4,3.3ZM532,246.8h9.9v10.3h-9.9v-10.3Z" />
      </g>
      <g isolation="isolate">
        <path
          d="M108.7,340.8c1.2,2.3,1.8,5.3,1.8,9,0,6-1.3,10.4-4,13.2-2.7,2.7-6.6,4.1-11.8,4.1h-23v-57.1h21.4c10.4,0,15.6,4.7,15.6,14.2s-.5,5.3-1.6,7.2c-1.1,1.9-2.7,3.3-4.7,4.2,3,1.2,5.1,2.9,6.3,5.2ZM81.1,317.7v14.7h10.6c2.7,0,4.6-.5,5.8-1.6,1.2-1,1.8-3,1.8-5.8s-.6-4.8-1.8-5.8c-1.2-1-3.1-1.6-5.8-1.6h-10.6ZM97.6,358.7c1.1-.5,1.9-1.5,2.4-2.9.5-1.4.8-3.4.8-5.9,0-3.8-.6-6.4-1.8-7.7-1.2-1.4-3.1-2-5.8-2h-12.1v19.4h12.1c1.8,0,3.3-.3,4.4-.8Z" />
        <path
          d="M126.2,347.3v4.4c0,3,.7,5.3,2,6.9,1.4,1.6,3.3,2.4,6,2.4s3.9-.6,5.3-1.8c1.3-1.2,2.5-2.9,3.4-5.1l7.9,2.1c-1.8,4.1-3.9,7.1-6.5,9-2.6,1.9-6,2.9-10.1,2.9s-9.6-1.6-12.4-4.7c-2.9-3.1-4.3-8.2-4.3-15.2v-3.6c0-6.6,1.5-11.6,4.4-14.9,2.9-3.3,6.8-5,11.6-5s8.6,1.7,11.4,5,4.3,8.2,4.3,14.8v2.9h-23ZM128.2,333.8c-1.3,1.7-2,4-2,7h0c0,0,14.3,0,14.3,0h0c0-3-.7-5.3-2-7-1.3-1.7-3-2.5-5.2-2.5s-3.9.8-5.2,2.5Z" />
        <path
          d="M181,367.1l-10.8-21.7-3.7,4.2v17.5h-8.6v-57.1h8.6v29l11.8-13.4h10.1l-12.3,13.9,13.8,27.6h-8.9Z" />
        <path d="M195.7,310h8.6v8.2h-8.6v-8.2ZM195.7,325.6h8.6v41.5h-8.6v-41.5Z" />
        <path
          d="M215,374.3v-48.6h8.6v46.9c0,2.6-.3,4.4-.8,5.6-.6,1.2-1.5,2-2.8,2.4-1.3.4-3.3.6-5.9.6s-4.9,0-6.1-.2l2-6.6h5ZM215,310h8.6v8.2h-8.6v-8.2Z" />
        <path
          d="M257.4,367.1l-10.8-21.7-3.7,4.2v17.5h-8.6v-57.1h8.6v29l11.8-13.4h10.1l-12.3,13.9,13.8,27.6h-8.9Z" />
        <path
          d="M317.1,327.7c2.2,2.1,3.2,5.1,3.2,9.2v30.2h-8.6v-28.7c0-2.2-.5-3.9-1.4-5-.9-1.1-2.2-1.6-3.9-1.6-2.5,0-5.1,1.5-7.8,4.6l-1.4,1.5v29.1h-8.6v-57.1h8.6v20.6l1-1.1c2.9-3.3,6.4-5,10.3-5s6.3,1,8.4,3.1Z" />
        <path
          d="M337.8,347.3v4.4c0,3,.7,5.3,2,6.9,1.4,1.6,3.3,2.4,6,2.4s3.9-.6,5.3-1.8c1.3-1.2,2.5-2.9,3.4-5.1l7.9,2.1c-1.8,4.1-3.9,7.1-6.5,9-2.6,1.9-6,2.9-10.1,2.9s-9.6-1.6-12.4-4.7c-2.9-3.1-4.3-8.2-4.3-15.2v-3.6c0-6.6,1.5-11.6,4.4-14.9,2.9-3.3,6.8-5,11.6-5s8.6,1.7,11.4,5,4.3,8.2,4.3,14.8v2.9h-23ZM339.8,333.8c-1.3,1.7-2,4-2,7h0c0,0,14.3,0,14.3,0h0c0-3-.7-5.3-2-7-1.3-1.7-3-2.5-5.2-2.5s-3.9.8-5.2,2.5Z" />
        <path
          d="M388.7,367.1c-2.4.2-4.8.2-7.2.2s-4.6-.2-5.9-.6c-1.3-.4-2.2-1.2-2.8-2.4-.6-1.2-.8-3.1-.8-5.6v-26.6h-5l-2-6.6h7v-11.9h8.6v11.9h8.2l-2,6.6h-6.2v28.3h6.2l2,6.6Z" />
        <path d="M411.8,310h8.6v8.2h-8.6v-8.2ZM411.8,325.6h8.6v41.5h-8.6v-41.5Z" />
        <path
          d="M459.6,327.8c2.1,2.1,3.2,5.1,3.2,9.2v30.2h-8.6v-28.7c0-4.3-1.8-6.5-5.3-6.5s-2.8.4-4,1.3c-1.3.9-2.5,2-3.8,3.4l-1.4,1.4v29.1h-8.6v-41.5h8v5.4l1.5-1.6c3-3.2,6.5-4.8,10.4-4.8s6.3,1,8.5,3.1Z" />
        <path
          d="M518.4,327.7c2.2,2.1,3.2,5.1,3.2,9.2v30.2h-8.6v-28.7c0-2.2-.5-3.9-1.4-5-.9-1.1-2.2-1.6-3.9-1.6-2.5,0-5.1,1.5-7.8,4.6l-1.4,1.5v29.1h-8.6v-57.1h8.6v20.6l1-1.1c2.9-3.3,6.4-5,10.3-5s6.3,1,8.4,3.1Z" />
        <path
          d="M539.1,347.3v4.4c0,3,.7,5.3,2,6.9s3.3,2.4,6,2.4,3.9-.6,5.3-1.8c1.3-1.2,2.5-2.9,3.4-5.1l7.9,2.1c-1.8,4.1-3.9,7.1-6.5,9-2.6,1.9-6,2.9-10.1,2.9s-9.6-1.6-12.4-4.7c-2.9-3.1-4.3-8.2-4.3-15.2v-3.6c0-6.6,1.5-11.6,4.4-14.9,2.9-3.3,6.8-5,11.6-5s8.6,1.7,11.4,5c2.9,3.3,4.3,8.2,4.3,14.8v2.9h-23ZM541.1,333.8c-1.3,1.7-2,4-2,7h0c0,0,14.3,0,14.3,0h0c0-3-.7-5.3-2-7-1.3-1.7-3-2.5-5.2-2.5s-3.9.8-5.2,2.5Z" />
        <path
          d="M590.1,367.1c-2.4.2-4.8.2-7.2.2s-4.6-.2-5.9-.6c-1.3-.4-2.2-1.2-2.8-2.4-.6-1.2-.8-3.1-.8-5.6v-26.6h-5l-2-6.6h7v-11.9h8.6v11.9h8.2l-2,6.6h-6.2v28.3h6.2l2,6.6Z" />
        <path
          d="M644.5,344.6v3.6c0,13.3-5.5,19.9-16.6,19.9s-16.6-6.6-16.6-19.9v-3.6c0-13.3,5.5-19.9,16.6-19.9s16.6,6.6,16.6,19.9ZM622.1,333.8c-1.5,1.5-2.2,3.9-2.2,7.1v11c0,3.2.7,5.6,2.2,7.1,1.5,1.5,3.4,2.3,5.7,2.3s4.2-.8,5.6-2.3c1.5-1.5,2.2-3.9,2.2-7v-11c0-3.1-.7-5.5-2.2-7-1.5-1.5-3.3-2.3-5.6-2.3s-4.3.8-5.7,2.3Z" />
        <path d="M681.6,325.6l-12.6,41.5h-7.8l-12.6-41.5h8l8.3,28.4,8.2-28.4h8.5Z" />
        <path
          d="M694.4,347.3v4.4c0,3,.7,5.3,2,6.9s3.3,2.4,6,2.4,3.9-.6,5.3-1.8c1.3-1.2,2.5-2.9,3.4-5.1l7.9,2.1c-1.8,4.1-3.9,7.1-6.5,9-2.6,1.9-6,2.9-10.1,2.9s-9.6-1.6-12.4-4.7c-2.9-3.1-4.3-8.2-4.3-15.2v-3.6c0-6.6,1.5-11.6,4.4-14.9,2.9-3.3,6.8-5,11.6-5s8.6,1.7,11.4,5c2.9,3.3,4.3,8.2,4.3,14.8v2.9h-23ZM696.4,333.8c-1.3,1.7-2,4-2,7h0c0,0,14.3,0,14.3,0h0c0-3-.7-5.3-2-7-1.3-1.7-3-2.5-5.2-2.5s-3.9.8-5.2,2.5Z" />
        <path
          d="M740.9,325.9c1.9-.8,4.3-1.2,7.3-1.2l-2.7,9.1c-2.1,0-3.9.4-5.6,1.2-1.6.8-2.9,1.7-3.9,2.9l-1.3,1.5v27.8h-8.6v-41.5h8v6.2l1.4-1.7c1.7-2,3.4-3.5,5.3-4.3Z" />
        <path d="M751.7,367.1v-5.5l18.7-29h-16l-2-7h28.8v5.5l-18.8,29h17l2.1,7h-29.8Z" />
        <path d="M789.3,310h8.6v8.2h-8.6v-8.2ZM789.3,325.6h8.6v41.5h-8.6v-41.5Z" />
        <path
          d="M838.9,355.6c-1.5,4.3-3.5,7.4-6,9.4-2.5,2-5.7,3-9.7,3-11.1,0-16.6-6.6-16.6-19.9v-3.6c0-7,1.5-12.1,4.4-15.2,3-3.1,7-4.7,12.2-4.7s7.1,1,9.6,3c2.5,2,4.2,4.9,5.1,8.8l-8.1,2.1c-.4-2.1-1.2-3.8-2.4-5-1.1-1.3-2.5-1.9-4.2-1.9-2.3,0-4.3.8-5.7,2.3-1.5,1.5-2.2,3.9-2.2,7.1v11c0,3.2.7,5.6,2.2,7.1,1.5,1.5,3.4,2.3,5.7,2.3s3.8-.7,5-2.2c1.3-1.5,2.2-3.4,2.8-5.6l7.8,2.2Z" />
        <path
          d="M875,327.7c2.2,2.1,3.2,5.1,3.2,9.2v30.2h-8.6v-28.7c0-2.2-.5-3.9-1.4-5-.9-1.1-2.2-1.6-3.9-1.6-2.5,0-5.1,1.5-7.8,4.6l-1.4,1.5v29.1h-8.6v-57.1h8.6v20.6l1-1.1c2.9-3.3,6.4-5,10.3-5s6.3,1,8.4,3.1Z" />
        <path
          d="M907.6,367.1c-2.4.2-4.8.2-7.2.2s-4.6-.2-5.9-.6c-1.3-.4-2.2-1.2-2.8-2.4-.6-1.2-.8-3.1-.8-5.6v-26.6h-5l-2-6.6h7v-11.9h8.6v11.9h8.2l-2,6.6h-6.2v28.3h6.2l2,6.6Z" />
      </g>
      <g isolation="isolate">
        <path
          d="M87.6,142.1l-8-16.8h-4.5v16.8h-5.9v-35.7h13.7c2.3,0,4.2.3,5.7.8,1.5.5,2.6,1.5,3.4,2.8.8,1.4,1.2,3.2,1.2,5.7s-.7,4.9-2,6.5-3.1,2.5-5.5,2.9l8.2,17h-6.4ZM75.2,120.5h7c1.9,0,3.2-.3,4-1s1.2-1.9,1.2-3.7-.4-3-1.2-3.7c-.8-.6-2.1-1-4-1h-7v9.2Z" />
        <path
          d="M111.1,142.9c-4.2,0-7.5-1.3-9.8-4-2.3-2.7-3.5-7-3.5-13.1v-3c0-6.1,1.2-10.5,3.5-13.1,2.3-2.7,5.6-4,9.8-4s7.5,1.3,9.8,4c2.3,2.6,3.5,7,3.5,13.1v3c0,6.1-1.2,10.5-3.5,13.1-2.3,2.6-5.6,4-9.8,4ZM111.1,110.7c-4.9,0-7.3,3-7.3,9v9.1c0,6,2.4,9,7.3,9s4-.7,5.3-2.2c1.3-1.4,1.9-3.7,1.9-6.8v-9.1c0-3.1-.6-5.4-1.9-6.8-1.3-1.4-3.1-2.2-5.3-2.2Z" />
        <path
          d="M143,142.9c-4.2,0-7.5-1.3-9.8-4-2.3-2.7-3.5-7-3.5-13.1v-3c0-6.1,1.2-10.5,3.5-13.1,2.3-2.7,5.6-4,9.8-4s7.5,1.3,9.8,4c2.3,2.6,3.5,7,3.5,13.1v3c0,6.1-1.2,10.5-3.5,13.1-2.3,2.6-5.6,4-9.8,4ZM143,110.7c-4.9,0-7.3,3-7.3,9v9.1c0,6,2.4,9,7.3,9s4-.7,5.3-2.2c1.3-1.4,1.9-3.7,1.9-6.8v-9.1c0-3.1-.6-5.4-1.9-6.8-1.3-1.4-3.1-2.2-5.3-2.2Z" />
        <path
          d="M164.2,131.9l1.3,1.8c2.2,2.8,4.6,4.2,7.2,4.2s2.8-.5,3.8-1.5c1-1,1.4-2.2,1.4-3.7s-.4-2.1-1.1-3c-.7-.9-1.9-1.8-3.7-2.7l-4.6-2.8c-2.5-1.5-4.3-2.9-5.5-4.4-1.1-1.5-1.6-3.2-1.6-5.2s1-4.9,3.1-6.5c2.1-1.6,4.6-2.4,7.8-2.4s7.4,1.6,10.4,4.8l1.4,1.5-4.5,3.5-1.2-1.3c-1.1-1.2-2.1-2-3.1-2.5-.9-.5-1.9-.8-3-.8-1.5,0-2.7.4-3.6,1.1-.9.7-1.4,1.6-1.4,2.6s.3,1.8.9,2.4c.6.6,1.6,1.3,3.2,2.2l4.6,2.7c2.7,1.5,4.7,3.1,5.9,4.8,1.2,1.7,1.9,3.7,1.9,5.9s-.5,4-1.4,5.5c-1,1.5-2.3,2.7-4,3.6-1.7.8-3.6,1.2-5.8,1.2-4.7,0-8.6-1.9-11.6-5.6l-1.8-2.2,4.9-3.2Z" />
        <path d="M211.3,111.4h-8.7v30.7h-5.9v-30.7h-8.7l-1.3-5h25.8l-1.2,5Z" />
        <path d="M223.2,120.2h13v4.8h-13v12h15l1.3,5.1h-22.2v-35.7h21.9l-1.3,4.9h-14.7v8.9Z" />
        <path
          d="M263.2,142.1l-8-16.8h-4.5v16.8h-5.9v-35.7h13.7c2.3,0,4.2.3,5.7.8,1.5.5,2.6,1.5,3.4,2.8.8,1.4,1.2,3.2,1.2,5.7s-.7,4.9-2,6.5-3.1,2.5-5.5,2.9l8.2,17h-6.4ZM250.7,120.5h7c1.9,0,3.2-.3,4-1s1.2-1.9,1.2-3.7-.4-3-1.2-3.7c-.8-.6-2.1-1-4-1h-7v9.2Z" />
      </g>
    </g>

  </g>
  <g id="Component_22_21" data-name="Component_22_2">

    <g transform="translate(-100 50)">
      <g isolation="isolate" >
        <path d="M81.4,219.5h20.7v7.7h-20.7v19.2h24l2.1,8.2h-35.5v-57.1h35l-2.1,7.8h-23.5v14.2Z"
          fill="#fff" />
        <path
          d="M121.5,234.7v4.4c0,3,.7,5.3,2,6.9,1.4,1.6,3.3,2.4,6,2.4s3.9-.6,5.3-1.8c1.3-1.2,2.5-2.9,3.4-5.1l7.9,2.1c-1.8,4.1-3.9,7.1-6.5,9-2.6,1.9-6,2.9-10.1,2.9s-9.6-1.6-12.4-4.7c-2.9-3.1-4.3-8.2-4.3-15.2v-3.6c0-6.6,1.5-11.6,4.4-14.9,2.9-3.3,6.8-5,11.6-5s8.6,1.7,11.4,5,4.3,8.2,4.3,14.8v2.9h-23ZM123.5,221.2c-1.3,1.7-2,4-2,7h0c0,0,14.3,0,14.3,0h0c0-3-.7-5.3-2-7-1.3-1.7-3-2.5-5.2-2.5s-3.9.8-5.2,2.5Z"
          fill="#fff" />
        <path
          d="M181.7,215.2c2.1,2.1,3.2,5.1,3.2,9.2v30.2h-8.6v-28.7c0-4.3-1.8-6.5-5.3-6.5s-2.8.4-4,1.3c-1.3.9-2.5,2-3.8,3.4l-1.4,1.4v29.1h-8.6v-41.5h8v5.4l1.5-1.6c3-3.2,6.5-4.8,10.4-4.8s6.3,1,8.5,3.1Z"
          fill="#fff" />
        <path
          d="M225,254c-1.6-1-3-2.4-4.3-4.2v18.4h-8.6v-55.2h8.1v4.6c1.2-1.8,2.7-3.1,4.6-4.1,1.8-1,3.8-1.5,5.9-1.5,4.3,0,7.7,1.6,10.2,4.7,2.5,3.1,3.7,8.2,3.7,15.2v3.6c0,7-1.2,12.1-3.7,15.2-2.5,3.1-5.9,4.7-10.2,4.7s-4.1-.5-5.7-1.5ZM228.6,219c-1.7,0-3.2.6-4.6,1.7-1.4,1.1-2.5,2.6-3.3,4.3v17.5c.9,1.8,2,3.2,3.4,4.3,1.4,1.1,2.9,1.7,4.5,1.7,4.8,0,7.2-3.1,7.2-9.3v-11c0-6.2-2.4-9.3-7.2-9.3Z"
          fill="#fff" />
        <path
          d="M253.3,197.4h8.6v50.5h2.6l2.1,6.6c-1.9.2-3.7.3-5.4.3s-3.5-.2-4.6-.6c-1.1-.4-1.9-1.2-2.5-2.4-.6-1.2-.8-3.1-.8-5.6v-48.8Z"
          fill="#fff" />
        <path
          d="M279.7,234.7v4.4c0,3,.7,5.3,2,6.9,1.4,1.6,3.3,2.4,6,2.4s3.9-.6,5.3-1.8c1.3-1.2,2.5-2.9,3.4-5.1l7.9,2.1c-1.8,4.1-3.9,7.1-6.5,9-2.6,1.9-6,2.9-10.1,2.9s-9.6-1.6-12.4-4.7c-2.9-3.1-4.3-8.2-4.3-15.2v-3.6c0-6.6,1.5-11.6,4.4-14.9,2.9-3.3,6.8-5,11.6-5s8.6,1.7,11.4,5,4.3,8.2,4.3,14.8v2.9h-23ZM281.7,221.2c-1.3,1.7-2,4-2,7h0c0,0,14.3,0,14.3,0h0c0-3-.7-5.3-2-7-1.3-1.7-3-2.5-5.2-2.5s-3.9.8-5.2,2.5Z"
          fill="#fff" />
        <path
          d="M334.4,254.5l-10.8-21.7-3.7,4.2v17.5h-8.6v-57.1h8.6v29l11.8-13.4h10.1l-12.3,13.9,13.8,27.6h-8.9Z"
          fill="#fff" />
        <path
          d="M349.2,261.7v-48.6h8.6v46.9c0,2.6-.3,4.4-.8,5.6-.6,1.2-1.5,2-2.8,2.4-1.3.4-3.3.6-5.9.6s-4.9,0-6.1-.2l2-6.6h5ZM349.2,197.4h8.6v8.2h-8.6v-8.2Z"
          fill="#fff" />
        <path
          d="M375.2,234.7v4.4c0,3,.7,5.3,2,6.9,1.4,1.6,3.3,2.4,6,2.4s3.9-.6,5.3-1.8c1.3-1.2,2.5-2.9,3.4-5.1l7.9,2.1c-1.8,4.1-3.9,7.1-6.5,9-2.6,1.9-6,2.9-10.1,2.9s-9.6-1.6-12.4-4.7c-2.9-3.1-4.3-8.2-4.3-15.2v-3.6c0-6.6,1.5-11.6,4.4-14.9,2.9-3.3,6.8-5,11.6-5s8.6,1.7,11.4,5,4.3,8.2,4.3,14.8v2.9h-23ZM377.2,221.2c-1.3,1.7-2,4-2,7h0c0,0,14.3,0,14.3,0h0c0-3-.7-5.3-2-7-1.3-1.7-3-2.5-5.2-2.5s-3.9.8-5.2,2.5Z"
          fill="#fff" />
        <path d="M452.5,213l-12.6,41.5h-7.8l-12.6-41.5h8l8.3,28.4,8.2-28.4h8.5Z" fill="#fff" />
        <path
          d="M473.9,213.3c1.9-.8,4.3-1.2,7.3-1.2l-2.7,9.1c-2.1,0-3.9.4-5.6,1.2-1.6.8-2.9,1.7-3.9,2.9l-1.3,1.5v27.8h-8.6v-41.5h8v6.2l1.4-1.7c1.7-2,3.4-3.5,5.3-4.3Z"
          fill="#fff" />
        <path d="M487.6,197.4h8.6v8.2h-8.6v-8.2ZM487.6,213h8.6v41.5h-8.6v-41.5Z" fill="#fff" />
        <path
          d="M507,261.7v-48.6h8.6v46.9c0,2.6-.3,4.4-.8,5.6-.6,1.2-1.5,2-2.8,2.4-1.3.4-3.3.6-5.9.6s-4.9,0-6.1-.2l2-6.6h5ZM507,197.4h8.6v8.2h-8.6v-8.2Z"
          fill="#fff" />
        <path
          d="M549.2,199.5c2.7,2.2,4,5.3,4,9.3s-.5,4.7-1.4,6.6c-1,1.9-2.6,4-4.9,6.4l-2.3,2.6c-2.7,2.9-4,6.1-4,9.5v3.8h-6.7v-4.7c0-2.8.4-5.1,1.1-6.9.7-1.8,2-3.7,3.8-5.9l1.6-2c1.2-1.5,2.1-3,2.7-4.4.6-1.4.9-2.9.9-4.4s-.6-3-1.8-4c-1.2-1-2.7-1.6-4.6-1.6-3.5,0-6.2,1.9-8.1,5.8l-6.2-3.3c1.4-3.4,3.5-5.9,6.2-7.6,2.7-1.7,5.8-2.6,9.2-2.6s7.7,1.1,10.4,3.3ZM532.3,244.2h9.9v10.3h-9.9v-10.3Z"
          fill="#fff" />
      </g>
      <g isolation="isolate">
        <path
          d="M109,338.2c1.2,2.3,1.8,5.3,1.8,9,0,6-1.3,10.4-4,13.2-2.7,2.7-6.6,4.1-11.8,4.1h-23v-57.1h21.4c10.4,0,15.6,4.7,15.6,14.2s-.5,5.3-1.6,7.2c-1.1,1.9-2.7,3.3-4.7,4.2,3,1.2,5.1,2.9,6.3,5.2ZM81.4,315.1v14.7h10.6c2.7,0,4.6-.5,5.8-1.6,1.2-1,1.8-3,1.8-5.8s-.6-4.8-1.8-5.8c-1.2-1-3.1-1.6-5.8-1.6h-10.6ZM97.9,356.1c1.1-.5,1.9-1.5,2.4-2.9.5-1.4.8-3.4.8-5.9,0-3.8-.6-6.4-1.8-7.7-1.2-1.4-3.1-2-5.8-2h-12.1v19.4h12.1c1.8,0,3.3-.3,4.4-.8Z"
          fill="#fff" />
        <path
          d="M126.5,344.7v4.4c0,3,.7,5.3,2,6.9,1.4,1.6,3.3,2.4,6,2.4s3.9-.6,5.3-1.8c1.3-1.2,2.5-2.9,3.4-5.1l7.9,2.1c-1.8,4.1-3.9,7.1-6.5,9-2.6,1.9-6,2.9-10.1,2.9s-9.6-1.6-12.4-4.7c-2.9-3.1-4.3-8.2-4.3-15.2v-3.6c0-6.6,1.5-11.6,4.4-14.9,2.9-3.3,6.8-5,11.6-5s8.6,1.7,11.4,5,4.3,8.2,4.3,14.8v2.9h-23ZM128.5,331.2c-1.3,1.7-2,4-2,7h0c0,0,14.3,0,14.3,0h0c0-3-.7-5.3-2-7-1.3-1.7-3-2.5-5.2-2.5s-3.9.8-5.2,2.5Z"
          fill="#fff" />
        <path
          d="M181.3,364.5l-10.8-21.7-3.7,4.2v17.5h-8.6v-57.1h8.6v29l11.8-13.4h10.1l-12.3,13.9,13.8,27.6h-8.9Z"
          fill="#fff" />
        <path d="M196,307.4h8.6v8.2h-8.6v-8.2ZM196,323h8.6v41.5h-8.6v-41.5Z" fill="#fff" />
        <path
          d="M215.3,371.7v-48.6h8.6v46.9c0,2.6-.3,4.4-.8,5.6-.6,1.2-1.5,2-2.8,2.4-1.3.4-3.3.6-5.9.6s-4.9,0-6.1-.2l2-6.6h5ZM215.3,307.4h8.6v8.2h-8.6v-8.2Z"
          fill="#fff" />
        <path
          d="M257.7,364.5l-10.8-21.7-3.7,4.2v17.5h-8.6v-57.1h8.6v29l11.8-13.4h10.1l-12.3,13.9,13.8,27.6h-8.9Z"
          fill="#fff" />
        <path
          d="M317.4,325.1c2.2,2.1,3.2,5.1,3.2,9.2v30.2h-8.6v-28.7c0-2.2-.5-3.9-1.4-5-.9-1.1-2.2-1.6-3.9-1.6-2.5,0-5.1,1.5-7.8,4.6l-1.4,1.5v29.1h-8.6v-57.1h8.6v20.6l1-1.1c2.9-3.3,6.4-5,10.3-5s6.3,1,8.4,3.1Z"
          fill="#fff" />
        <path
          d="M338,344.7v4.4c0,3,.7,5.3,2,6.9,1.4,1.6,3.3,2.4,6,2.4s3.9-.6,5.3-1.8c1.3-1.2,2.5-2.9,3.4-5.1l7.9,2.1c-1.8,4.1-3.9,7.1-6.5,9-2.6,1.9-6,2.9-10.1,2.9s-9.6-1.6-12.4-4.7c-2.9-3.1-4.3-8.2-4.3-15.2v-3.6c0-6.6,1.5-11.6,4.4-14.9,2.9-3.3,6.8-5,11.6-5s8.6,1.7,11.4,5,4.3,8.2,4.3,14.8v2.9h-23ZM340,331.2c-1.3,1.7-2,4-2,7h0c0,0,14.3,0,14.3,0h0c0-3-.7-5.3-2-7-1.3-1.7-3-2.5-5.2-2.5s-3.9.8-5.2,2.5Z"
          fill="#fff" />
        <path
          d="M389,364.5c-2.4.2-4.8.2-7.2.2s-4.6-.2-5.9-.6c-1.3-.4-2.2-1.2-2.8-2.4-.6-1.2-.8-3.1-.8-5.6v-26.6h-5l-2-6.6h7v-11.9h8.6v11.9h8.2l-2,6.6h-6.2v28.3h6.2l2,6.6Z"
          fill="#fff" />
        <path d="M412.1,307.4h8.6v8.2h-8.6v-8.2ZM412.1,323h8.6v41.5h-8.6v-41.5Z" fill="#fff" />
        <path
          d="M459.9,325.2c2.1,2.1,3.2,5.1,3.2,9.2v30.2h-8.6v-28.7c0-4.3-1.8-6.5-5.3-6.5s-2.8.4-4,1.3c-1.3.9-2.5,2-3.8,3.4l-1.4,1.4v29.1h-8.6v-41.5h8v5.4l1.5-1.6c3-3.2,6.5-4.8,10.4-4.8s6.3,1,8.5,3.1Z"
          fill="#fff" />
        <path
          d="M518.7,325.1c2.2,2.1,3.2,5.1,3.2,9.2v30.2h-8.6v-28.7c0-2.2-.5-3.9-1.4-5-.9-1.1-2.2-1.6-3.9-1.6-2.5,0-5.1,1.5-7.8,4.6l-1.4,1.5v29.1h-8.6v-57.1h8.6v20.6l1-1.1c2.9-3.3,6.4-5,10.3-5s6.3,1,8.4,3.1Z"
          fill="#fff" />
        <path
          d="M539.4,344.7v4.4c0,3,.7,5.3,2,6.9s3.3,2.4,6,2.4,3.9-.6,5.3-1.8c1.3-1.2,2.5-2.9,3.4-5.1l7.9,2.1c-1.8,4.1-3.9,7.1-6.5,9-2.6,1.9-6,2.9-10.1,2.9s-9.6-1.6-12.4-4.7c-2.9-3.1-4.3-8.2-4.3-15.2v-3.6c0-6.6,1.5-11.6,4.4-14.9,2.9-3.3,6.8-5,11.6-5s8.6,1.7,11.4,5c2.9,3.3,4.3,8.2,4.3,14.8v2.9h-23ZM541.4,331.2c-1.3,1.7-2,4-2,7h0c0,0,14.3,0,14.3,0h0c0-3-.7-5.3-2-7-1.3-1.7-3-2.5-5.2-2.5s-3.9.8-5.2,2.5Z"
          fill="#fff" />
        <path
          d="M590.4,364.5c-2.4.2-4.8.2-7.2.2s-4.6-.2-5.9-.6c-1.3-.4-2.2-1.2-2.8-2.4-.6-1.2-.8-3.1-.8-5.6v-26.6h-5l-2-6.6h7v-11.9h8.6v11.9h8.2l-2,6.6h-6.2v28.3h6.2l2,6.6Z"
          fill="#fff" />
        <path
          d="M644.8,342v3.6c0,13.3-5.5,19.9-16.6,19.9s-16.6-6.6-16.6-19.9v-3.6c0-13.3,5.5-19.9,16.6-19.9s16.6,6.6,16.6,19.9ZM622.4,331.2c-1.5,1.5-2.2,3.9-2.2,7.1v11c0,3.2.7,5.6,2.2,7.1,1.5,1.5,3.4,2.3,5.7,2.3s4.2-.8,5.6-2.3c1.5-1.5,2.2-3.9,2.2-7v-11c0-3.1-.7-5.5-2.2-7-1.5-1.5-3.3-2.3-5.6-2.3s-4.3.8-5.7,2.3Z"
          fill="#fff" />
        <path d="M681.9,323l-12.6,41.5h-7.8l-12.6-41.5h8l8.3,28.4,8.2-28.4h8.5Z" fill="#fff" />
        <path
          d="M694.7,344.7v4.4c0,3,.7,5.3,2,6.9s3.3,2.4,6,2.4,3.9-.6,5.3-1.8c1.3-1.2,2.5-2.9,3.4-5.1l7.9,2.1c-1.8,4.1-3.9,7.1-6.5,9-2.6,1.9-6,2.9-10.1,2.9s-9.6-1.6-12.4-4.7c-2.9-3.1-4.3-8.2-4.3-15.2v-3.6c0-6.6,1.5-11.6,4.4-14.9,2.9-3.3,6.8-5,11.6-5s8.6,1.7,11.4,5c2.9,3.3,4.3,8.2,4.3,14.8v2.9h-23ZM696.7,331.2c-1.3,1.7-2,4-2,7h0c0,0,14.3,0,14.3,0h0c0-3-.7-5.3-2-7-1.3-1.7-3-2.5-5.2-2.5s-3.9.8-5.2,2.5Z"
          fill="#fff" />
        <path
          d="M741.2,323.3c1.9-.8,4.3-1.2,7.3-1.2l-2.7,9.1c-2.1,0-3.9.4-5.6,1.2-1.6.8-2.9,1.7-3.9,2.9l-1.3,1.5v27.8h-8.6v-41.5h8v6.2l1.4-1.7c1.7-2,3.4-3.5,5.3-4.3Z"
          fill="#fff" />
        <path d="M752,364.5v-5.5l18.7-29h-16l-2-7h28.8v5.5l-18.8,29h17l2.1,7h-29.8Z" fill="#fff" />
        <path d="M789.6,307.4h8.6v8.2h-8.6v-8.2ZM789.6,323h8.6v41.5h-8.6v-41.5Z" fill="#fff" />
        <path
          d="M839.2,353c-1.5,4.3-3.5,7.4-6,9.4-2.5,2-5.7,3-9.7,3-11.1,0-16.6-6.6-16.6-19.9v-3.6c0-7,1.5-12.1,4.4-15.2,3-3.1,7-4.7,12.2-4.7s7.1,1,9.6,3c2.5,2,4.2,4.9,5.1,8.8l-8.1,2.1c-.4-2.1-1.2-3.8-2.4-5-1.1-1.3-2.5-1.9-4.2-1.9-2.3,0-4.3.8-5.7,2.3-1.5,1.5-2.2,3.9-2.2,7.1v11c0,3.2.7,5.6,2.2,7.1,1.5,1.5,3.4,2.3,5.7,2.3s3.8-.7,5-2.2c1.3-1.5,2.2-3.4,2.8-5.6l7.8,2.2Z"
          fill="#fff" />
        <path
          d="M875.3,325.1c2.2,2.1,3.2,5.1,3.2,9.2v30.2h-8.6v-28.7c0-2.2-.5-3.9-1.4-5-.9-1.1-2.2-1.6-3.9-1.6-2.5,0-5.1,1.5-7.8,4.6l-1.4,1.5v29.1h-8.6v-57.1h8.6v20.6l1-1.1c2.9-3.3,6.4-5,10.3-5s6.3,1,8.4,3.1Z"
          fill="#fff" />
        <path
          d="M907.9,364.5c-2.4.2-4.8.2-7.2.2s-4.6-.2-5.9-.6c-1.3-.4-2.2-1.2-2.8-2.4-.6-1.2-.8-3.1-.8-5.6v-26.6h-5l-2-6.6h7v-11.9h8.6v11.9h8.2l-2,6.6h-6.2v28.3h6.2l2,6.6Z"
          fill="#fff" />
      </g>
      <g isolation="isolate" opacity="0.5">
        <path
          d="M87.9,139.5l-8-16.8h-4.5v16.8h-5.9v-35.7h13.7c2.3,0,4.2.3,5.7.8,1.5.5,2.6,1.5,3.4,2.8.8,1.4,1.2,3.2,1.2,5.7s-.7,4.9-2,6.5-3.1,2.5-5.5,2.9l8.2,17h-6.4ZM75.5,117.9h7c1.9,0,3.2-.3,4-1s1.2-1.9,1.2-3.7-.4-3-1.2-3.7c-.8-.6-2.1-1-4-1h-7v9.2Z"
          fill="#fff" />
        <path
          d="M111.4,140.3c-4.2,0-7.5-1.3-9.8-4-2.3-2.7-3.5-7-3.5-13.1v-3c0-6.1,1.2-10.5,3.5-13.1,2.3-2.7,5.6-4,9.8-4s7.5,1.3,9.8,4c2.3,2.6,3.5,7,3.5,13.1v3c0,6.1-1.2,10.5-3.5,13.1-2.3,2.6-5.6,4-9.8,4ZM111.4,108.1c-4.9,0-7.3,3-7.3,9v9.1c0,6,2.4,9,7.3,9s4-.7,5.3-2.2c1.3-1.4,1.9-3.7,1.9-6.8v-9.1c0-3.1-.6-5.4-1.9-6.8-1.3-1.4-3.1-2.2-5.3-2.2Z"
          fill="#fff" />
        <path
          d="M143.3,140.3c-4.2,0-7.5-1.3-9.8-4-2.3-2.7-3.5-7-3.5-13.1v-3c0-6.1,1.2-10.5,3.5-13.1,2.3-2.7,5.6-4,9.8-4s7.5,1.3,9.8,4c2.3,2.6,3.5,7,3.5,13.1v3c0,6.1-1.2,10.5-3.5,13.1-2.3,2.6-5.6,4-9.8,4ZM143.3,108.1c-4.9,0-7.3,3-7.3,9v9.1c0,6,2.4,9,7.3,9s4-.7,5.3-2.2c1.3-1.4,1.9-3.7,1.9-6.8v-9.1c0-3.1-.6-5.4-1.9-6.8-1.3-1.4-3.1-2.2-5.3-2.2Z"
          fill="#fff" />
        <path
          d="M164.5,129.3l1.3,1.8c2.2,2.8,4.6,4.2,7.2,4.2s2.8-.5,3.8-1.5c1-1,1.4-2.2,1.4-3.7s-.4-2.1-1.1-3c-.7-.9-1.9-1.8-3.7-2.7l-4.6-2.8c-2.5-1.5-4.3-2.9-5.5-4.4-1.1-1.5-1.6-3.2-1.6-5.2s1-4.9,3.1-6.5c2.1-1.6,4.6-2.4,7.8-2.4s7.4,1.6,10.4,4.8l1.4,1.5-4.5,3.5-1.2-1.3c-1.1-1.2-2.1-2-3.1-2.5-.9-.5-1.9-.8-3-.8-1.5,0-2.7.4-3.6,1.1-.9.7-1.4,1.6-1.4,2.6s.3,1.8.9,2.4c.6.6,1.6,1.3,3.2,2.2l4.6,2.7c2.7,1.5,4.7,3.1,5.9,4.8,1.2,1.7,1.9,3.7,1.9,5.9s-.5,4-1.4,5.5c-1,1.5-2.3,2.7-4,3.6-1.7.8-3.6,1.2-5.8,1.2-4.7,0-8.6-1.9-11.6-5.6l-1.8-2.2,4.9-3.2Z"
          fill="#fff" />
        <path d="M211.6,108.8h-8.7v30.7h-5.9v-30.7h-8.7l-1.3-5h25.8l-1.2,5Z" fill="#fff" />
        <path d="M223.5,117.6h13v4.8h-13v12h15l1.3,5.1h-22.2v-35.7h21.9l-1.3,4.9h-14.7v8.9Z"
          fill="#fff" />
        <path
          d="M263.5,139.5l-8-16.8h-4.5v16.8h-5.9v-35.7h13.7c2.3,0,4.2.3,5.7.8,1.5.5,2.6,1.5,3.4,2.8.8,1.4,1.2,3.2,1.2,5.7s-.7,4.9-2,6.5-3.1,2.5-5.5,2.9l8.2,17h-6.4ZM251,117.9h7c1.9,0,3.2-.3,4-1s1.2-1.9,1.2-3.7-.4-3-1.2-3.7c-.8-.6-2.1-1-4-1h-7v9.2Z"
          fill="#fff" />
      </g>
    </g>
    <g transform-origin="bottom left" transform="rotate(15) translate(-400 220)">
      <path id="Path_1440" data-name="Path 1440"
        d="M221.365-5H1244.431C1366.688-5,1465.8,89.109,1465.8,211.365V2809.8c0,122.256-99.109,221.365-221.365,221.365H221.365C99.109,3031.164,0,2932.055,0,2809.8V211.365C0,89.109,99.109-5,221.365-5Z"
        transform="translate(588.218 173.036)" fill="#fff" />
      <path id="NoPath_-_Copy_6_" data-name="NoPath - Copy (6)"
        d="M202.391,0H1211.184c111.778,0,202.391,90.614,202.391,202.391V2786.039c0,111.778-90.614,202.391-202.391,202.391H202.391C90.614,2988.43,0,2897.816,0,2786.039V202.391C0,90.614,90.614,0,202.391,0Z"
        transform="translate(602.844 184.767)" fill="#ffffff" />
      <g id="Group_1394" data-name="Group 1394" transform="translate(-980.748 -279.09)">
        <g id="Group_1391" data-name="Group 1391" transform="translate(1620 482)">
          <g id="Group_2" data-name="Group 2" transform="translate(0 0)">
            <g id="Group_1534" data-name="Group 1534" transform="translate(3.033 1.898)">
              <rect id="Rectangle_95" data-name="Rectangle 95" width="1376.381" height="2972.92"
                transform="translate(0 83.945)" fill="#fff" />
              <path
                id="Path_1508"
                data-name="Path 1508"
                class="tabbarColor"
                d="
              M0,150
              A150,150 0 0 1 150,0
              H1176
              A150,150 0 0 1 1376,150
              V330
              H0
              Z"
              />
              <path id="Icon_ionic-md-arrow-back" data-name="Icon ionic-md-arrow-back"
                d="M80.035,38.377H23.8L49.718,12.456l-6.712-6.48L5.977,43.006,43.006,80.035l6.479-6.48L23.8,47.634H80.035Z"
                transform="translate(55.919 191.365)" fill="#ffffff" />
              <path id="Icon_material-location-on" data-name="Icon material-location-on"
                d="M35.827,3A28.307,28.307,0,0,0,7.5,31.328c0,21.246,28.327,52.608,28.327,52.608S64.155,52.573,64.155,31.328A28.307,28.307,0,0,0,35.827,3Zm0,38.444A10.117,10.117,0,1,1,45.944,31.328,10.121,10.121,0,0,1,35.827,41.444Z"
                transform="translate(1228.943 190.817)" fill="#fff" />
              <g id="Group_34" data-name="Group 34" transform="translate(460.906 160.762)">
                <text id="Alle_roosters" data-name="Alle roosters" transform="translate(207.348 53)"
                  fill="#fff" font-size="54" font-family="Arial-BoldMT, Arial" font-weight="700">
                  <tspan x="-165.059" y="0">Alle roosters</tspan>
                </text>
                <text id="_-_Wijzig_roosterkeuze_-" data-name="- Wijzig roosterkeuze -"
                  transform="translate(211 116.818)" fill="#fff" font-size="42"
                  font-family="ArialMT, Arial">
                  <tspan x="-208.882" y="0">- Wijzig roosterkeuze -</tspan>
                </text>
              </g>
              <g id="Rectangle_104" data-name="Rectangle 104" transform="translate(22.174 179.769)"
                fill="#fff" stroke="#b24343" stroke-width="1" opacity="0">
                <rect width="117.206" height="109.287" stroke="none" />
                <rect x="0.5" y="0.5" width="116.206" height="108.287" fill="none" />
              </g>
              <path id="Path_125" data-name="Path 125" d="M0,0H1372.761V120.8H0Z"
                transform="translate(0 944.46)" class="divider" />
              <text id="Woensdag_28_aug._{year}" data-name="Woensdag, 28 aug. {year}"
                transform="translate(677.222 1022.079)" fill="#fff" font-size="49"
                font-family="Arial-BoldMT, Arial" font-weight="700">
                <tspan x="-282.767" y="0" class="year">Woensdag, 28 aug. {year}</tspan>
              </text>
              <path id="Path_83" data-name="Path 83" d="M0,0H688.211V172.053H0Z"
                transform="translate(0 329.463)" fill="#e0e0e0" />
              <g id="Group_5" data-name="Group 5" transform="translate(180.747 385.795)">
                <text id="Kalender" transform="translate(212.075 50.239)" fill="#041019"
                  font-size="49" font-family="Arial-BoldMT, Arial" font-weight="700">
                  <tspan x="-104.843" y="0">Kalender</tspan>
                </text>
                <g id="Icon_ionic-ios-calendar" data-name="Icon ionic-ios-calendar"
                  transform="translate(0)">
                  <path id="Path_16" data-name="Path 16"
                    d="M66.5,6.75H59.787v4.029a1.347,1.347,0,0,1-1.343,1.343H55.758a1.347,1.347,0,0,1-1.343-1.343V6.75H22.179v4.029a1.347,1.347,0,0,1-1.343,1.343H18.15a1.347,1.347,0,0,1-1.343-1.343V6.75H10.091a6.735,6.735,0,0,0-6.716,6.716V59.133a6.735,6.735,0,0,0,6.716,6.716H66.5a6.735,6.735,0,0,0,6.716-6.716V13.466A6.735,6.735,0,0,0,66.5,6.75Zm1.343,50.368a3.368,3.368,0,0,1-3.358,3.358H12.105a3.368,3.368,0,0,1-3.358-3.358V26.9a1.347,1.347,0,0,1,1.343-1.343H66.5A1.347,1.347,0,0,1,67.846,26.9Z"
                    transform="translate(-3.375 -1.377)" fill="#1c1c1a" />
                  <path id="Path_17" data-name="Path 17"
                    d="M14.373,5.843A1.347,1.347,0,0,0,13.029,4.5H10.343A1.347,1.347,0,0,0,9,5.843V9.873h5.373Z"
                    transform="translate(4.431 -4.5)" fill="#1c1c1a" />
                  <path id="Path_18" data-name="Path 18"
                    d="M30.123,5.843A1.347,1.347,0,0,0,28.779,4.5H26.093A1.347,1.347,0,0,0,24.75,5.843V9.873h5.373Z"
                    transform="translate(26.29 -4.5)" fill="#1c1c1a" />
                </g>
              </g>
              <rect id="Rectangle_9" data-name="Rectangle 9" width="688.191" height="171.85"
                transform="translate(688.191 329.444)" fill="#ccc" />
              <g id="Group_8" data-name="Group 8" transform="translate(825.975 388.048)">
                <text id="Lijstweergave" transform="translate(240.413 48)" fill="#041019"
                  font-size="49" font-family="Arial-BoldMT, Arial" font-weight="700">
                  <tspan x="-162.049" y="0">Lijstweergave</tspan>
                </text>
                <g id="Icon_ionic-ios-list" data-name="Icon ionic-ios-list"
                  transform="translate(0 11.202)">
                  <path id="Path_10" data-name="Path 10"
                    d="M11.832,19.7a3.666,3.666,0,1,1-3.666-3.666A3.666,3.666,0,0,1,11.832,19.7Z"
                    transform="translate(-4.5 0.203)" fill="#1c1c1a" />
                  <path id="Path_11" data-name="Path 11"
                    d="M11.832,10.978A3.666,3.666,0,1,1,8.166,7.313,3.666,3.666,0,0,1,11.832,10.978Z"
                    transform="translate(-4.5 -7.313)" fill="#1c1c1a" />
                  <path id="Path_12" data-name="Path 12"
                    d="M11.832,28.416A3.666,3.666,0,1,1,8.166,24.75,3.666,3.666,0,0,1,11.832,28.416Z"
                    transform="translate(-4.5 7.719)" fill="#1c1c1a" />
                  <path id="Path_13" data-name="Path 13"
                    d="M45.921,16.875H14.435a2.095,2.095,0,1,0,0,4.189H45.921a2.095,2.095,0,1,0,0-4.189Z"
                    transform="translate(2.258 0.93)" fill="#041019" />
                  <path id="Path_14" data-name="Path 14"
                    d="M45.921,25.594H14.435a2.095,2.095,0,1,0,0,4.189H45.921a2.095,2.095,0,1,0,0-4.189Z"
                    transform="translate(2.258 8.446)" fill="#1c1c1a" />
                  <path id="Path_15" data-name="Path 15"
                    d="M14.435,12.346H45.921a2.095,2.095,0,1,0,0-4.189H14.435a2.095,2.095,0,1,0,0,4.189Z"
                    transform="translate(2.258 -6.585)" fill="#1c1c1a" />
                </g>
              </g>
              <g id="Group_6" data-name="Group 6" transform="translate(0 501.294)">
                <rect id="Rectangle_99" data-name="Rectangle 99" width="1372.422" height="175.809"
                  transform="translate(0 0)" fill="#041019" />
                <path class="tabbarColor" id="Path_1507" data-name="Path 1507"
                  d="M0,0H1376.381V177.809H0Z" transform="translate(0 -1)" opacity="0.998" />
                <text id="Week_36_Augustus_{year}" data-name="Week 36, Augustus {year}"
                  transform="translate(675.007 106.603)" fill="#fff" font-size="49"
                  font-family="Arial-BoldMT, Arial" font-weight="700">
                  <tspan x="-284.597" y="0" class="year">Week 36, Augustus {year}</tspan>
                </text>
                <path id="Icon_awesome-caret-left" data-name="Icon awesome-caret-left"
                  d="M21.811,9.941V40.714A2.392,2.392,0,0,1,17.728,42.4L2.341,27.018a2.392,2.392,0,0,1,0-3.382L17.728,8.25a2.392,2.392,0,0,1,4.083,1.691Z"
                  transform="translate(116.377 66.411)" fill="#fff" />
                <path id="Icon_awesome-caret-left-2" data-name="Icon awesome-caret-left"
                  d="M20.17,2.4V33.169a2.392,2.392,0,0,1-4.083,1.691L.7,19.474a2.392,2.392,0,0,1,0-3.382L16.087.705A2.392,2.392,0,0,1,20.17,2.4Z"
                  transform="translate(1251.062 109.521) rotate(180)" fill="#fff" />
              </g>
              <g id="Group_9" data-name="Group 9" transform="translate(106.119 724.619)">
                <rect id="Rectangle_13" data-name="Rectangle 13" width="175.809" height="179.769"
                  rx="18" transform="translate(311.23 0)" fill="#ccc" />
                <g id="Group_1527" data-name="Group 1527" transform="translate(0 33.261)">
                  <text id="MA" transform="translate(35 44)" fill="#1c1c1a" font-size="46"
                    font-family="ArialMT, Arial">
                    <tspan x="-34.5" y="0">MA</tspan>
                  </text>
                  <text id="_26" data-name="26" transform="translate(36.087 104.771)" fill="#1c1c1a"
                    font-size="45" font-family="ArialMT, Arial">
                    <tspan x="-25.027" y="0">26</tspan>
                  </text>
                </g>
                <g id="Group_1528" data-name="Group 1528" transform="translate(190.064 33.261)">
                  <text id="DI" transform="translate(24.96 42)" fill="#1c1c1a" font-size="44"
                    font-family="ArialMT, Arial">
                    <tspan x="-22" y="0">DI</tspan>
                  </text>
                  <text id="_27" data-name="27" transform="translate(25 104.771)" fill="#1c1c1a"
                    font-size="45" font-family="ArialMT, Arial">
                    <tspan x="-25.027" y="0">27</tspan>
                  </text>
                </g>
                <g id="Group_1529" data-name="Group 1529" transform="translate(354.786 33.261)">
                  <text id="WO" transform="translate(39 44)" fill="#1c1c1a" font-size="46"
                    font-family="ArialMT, Arial">
                    <tspan x="-39.599" y="0">WO</tspan>
                  </text>
                  <text id="_28" data-name="28" transform="translate(41.302 103.771)" fill="#1c1c1a"
                    font-size="44" font-family="ArialMT, Arial">
                    <tspan x="-24.471" y="0">28</tspan>
                  </text>
                </g>
                <g id="Group_1530" data-name="Group 1530" transform="translate(541.683 33.261)">
                  <text id="DO" transform="translate(33 43)" fill="#1c1c1a" font-size="45"
                    font-family="ArialMT, Arial">
                    <tspan x="-33.75" y="0">DO</tspan>
                  </text>
                  <text id="_29" data-name="29" transform="translate(34.174 103.771)" fill="#1c1c1a"
                    font-size="44" font-family="ArialMT, Arial">
                    <tspan x="-24.471" y="0">29</tspan>
                  </text>
                </g>
                <g id="Group_1531" data-name="Group 1531" transform="translate(724.619 33.261)">
                  <text id="VR" transform="translate(30 44)" fill="#1c1c1a" font-size="46"
                    font-family="ArialMT, Arial">
                    <tspan x="-31.951" y="0">VR</tspan>
                  </text>
                  <text id="_30" data-name="30" transform="translate(30.214 103.771)" fill="#1c1c1a"
                    font-size="44" font-family="ArialMT, Arial">
                    <tspan x="-24.471" y="0">30</tspan>
                  </text>
                </g>
                <g id="Group_1532" data-name="Group 1532" transform="translate(904.389 33.261)">
                  <text id="ZA" transform="translate(29 44)" fill="#1c1c1a" font-size="46"
                    font-family="ArialMT, Arial">
                    <tspan x="-29.39" y="0">ZA</tspan>
                  </text>
                  <text id="_31" data-name="31" transform="translate(30.214 103.771)" fill="#1c1c1a"
                    font-size="44" font-family="ArialMT, Arial">
                    <tspan x="-24.471" y="0">31</tspan>
                  </text>
                </g>
                <g id="Group_1533" data-name="Group 1533" transform="translate(1080.198 33.261)">
                  <text id="ZO" transform="translate(32 45)" fill="#1c1c1a" font-size="47"
                    font-family="ArialMT, Arial">
                    <tspan x="-32.634" y="0">ZO</tspan>
                  </text>
                  <text id="_1" data-name="1" transform="translate(33.382 103.771)" fill="#1c1c1a"
                    font-size="44" font-family="ArialMT, Arial">
                    <tspan x="-12.235" y="0">1</tspan>
                  </text>
                </g>
              </g>
              <g id="Group_1677" data-name="Group 1677" transform="translate(0 1063.209)">
                <rect id="Rectangle_142" data-name="Rectangle 142" width="1372.761" height="375.221"
                  fill="#fff" />
                <path id="Path_1505" data-name="Path 1505" d="M0,0H230.624V230.624H0Z"
                  transform="translate(69.553 76.875)" fill="#9fc546" />
                <text id="_06:00_-_07:00" data-name="06:00 - 07:00"
                  transform="translate(547.731 130.214)" fill="#1c1c1a" font-size="60"
                  font-family="ArialMT, Arial">
                  <tspan x="-176.807" y="0">06:00 - 07:00</tspan>
                </text>
                <g id="Trainer_naam" data-name="Trainer naam" transform="translate(369.73 164.731)">
                  <text id="Trainer" transform="translate(0 44)" fill="#041019" font-size="46"
                    font-family="ArialMT, Arial">
                    <tspan x="0" y="0" class="trainer">Trainer</tspan>
                  </text>
                </g>
                <path id="Icon_material-location-on-2" data-name="Icon material-location-on"
                  d="M23.262,3A15.75,15.75,0,0,0,7.5,18.762c0,11.821,15.762,29.272,15.762,29.272S39.024,30.583,39.024,18.762A15.75,15.75,0,0,0,23.262,3Zm0,21.391a5.629,5.629,0,1,1,5.629-5.629A5.631,5.631,0,0,1,23.262,24.391Z"
                  transform="translate(363.188 248.883)" fill="#1c1c1a" />
                <path id="Icon_material-keyboard-arrow-right"
                  data-name="Icon material-keyboard-arrow-right"
                  d="M12.885,52.665,31.932,33.577,12.885,14.489l5.864-5.864L43.7,33.577,18.749,58.529Z"
                  transform="translate(1246.436 167.089)" fill="#1c1c1a" />
                <line id="Line_1" data-name="Line 1" x2="1372.761"
                  transform="translate(1.83 375.221)" fill="none" stroke="#b24343" stroke-width="1"
                  opacity="0.272" />
                <text id="_0_100" data-name="0 / 100" transform="translate(113.365 204.611)"
                  fill="#1c1c1a" font-size="46" font-family="ArialMT, Arial">
                  <tspan x="0" y="0">0 / 100</tspan>
                </text>
              </g>
              <g id="Group_7" data-name="Group 7" transform="translate(0 1440.261)">
                <rect id="Rectangle_142-2" data-name="Rectangle 142" width="1372.761"
                  height="375.221" fill="#fff" />
                <path id="Path_1498" data-name="Path 1498" d="M0,0H230.624V230.624H0Z"
                  transform="translate(69.553 76.875)" fill="#9fc546" />
                <text id="_07:00_-_08:00" data-name="07:00 - 08:00"
                  transform="translate(547.73 130.214)" fill="#1c1c1a" font-size="60"
                  font-family="ArialMT, Arial">
                  <tspan x="-176.807" y="0">07:00 - 08:00</tspan>
                </text>
                <path id="Icon_material-location-on-3" data-name="Icon material-location-on"
                  d="M23.262,3A15.75,15.75,0,0,0,7.5,18.762c0,11.821,15.762,29.272,15.762,29.272S39.024,30.583,39.024,18.762A15.75,15.75,0,0,0,23.262,3Zm0,21.391a5.629,5.629,0,1,1,5.629-5.629A5.631,5.631,0,0,1,23.262,24.391Z"
                  transform="translate(363.188 248.882)" fill="#1c1c1a" />
                <path id="Icon_material-keyboard-arrow-right-2"
                  data-name="Icon material-keyboard-arrow-right"
                  d="M12.885,52.665,31.932,33.577,12.885,14.489l5.864-5.864L43.7,33.577,18.749,58.529Z"
                  transform="translate(1246.436 167.088)" fill="#1c1c1a" />
                <line id="Line_1-2" data-name="Line 1" x2="1372.761"
                  transform="translate(1.83 375.221)" fill="none" stroke="#b24343" stroke-width="1"
                  opacity="0.272" />
                <text id="_7_12" data-name="7 / 12" transform="translate(120.803 208.731)"
                  fill="#1c1c1a" font-size="46" font-family="ArialMT, Arial">
                  <tspan x="0" y="0">7 / 12</tspan>
                </text>
                <g id="Workout_naam_2" data-name="Workout naam 2"
                  transform="translate(783.255 69.214)">
                  <g id="Workout_naam" data-name="Workout naam">
                    <g id="Event_afkorting" data-name="Event afkorting">
                      <g id="Group_1671" data-name="Group 1671" transform="translate(0.134 -0.643)">
                        <rect id="Rectangle_15" data-name="Rectangle 15" width="250" height="80"
                          rx="8" transform="translate(-0.134 0.643)" fill="#e0e0e0" />
                        <text id="groepsles" transform="translate(31.866 55.643)" fill="#041019"
                          font-size="41" font-family="ArialMT, Arial">
                          <tspan x="0" y="0">groepsles</tspan>
                        </text>
                      </g>
                    </g>
                  </g>
                </g>
                <g id="Trainer_naam-2" data-name="Trainer naam"
                  transform="translate(369.678 165.63)">
                  <text id="Trainer-2" data-name="Trainer" transform="translate(0 44)"
                    fill="#041019" font-size="46" font-family="ArialMT, Arial">
                    <tspan x="0" y="0" class="trainer">Trainer</tspan>
                  </text>
                </g>
              </g>
              <g id="Group_7-2" data-name="Group 7" transform="translate(0 1817.313)">
                <rect id="Rectangle_142-3" data-name="Rectangle 142" width="1372.761"
                  height="375.221" fill="#fff" />
                <path id="Path_1514" data-name="Path 1514" d="M0,0H230.624V230.624H0Z"
                  transform="translate(69.553 76.875)" fill="#9fc546" />
                <text id="_08:00_-_09:00" data-name="08:00 - 09:00"
                  transform="translate(547.73 130.214)" fill="#1c1c1a" font-size="60"
                  font-family="ArialMT, Arial">
                  <tspan x="-176.807" y="0">08:00 - 09:00</tspan>
                </text>
                <path id="Icon_material-location-on-4" data-name="Icon material-location-on"
                  d="M23.262,3A15.75,15.75,0,0,0,7.5,18.762c0,11.821,15.762,29.272,15.762,29.272S39.024,30.583,39.024,18.762A15.75,15.75,0,0,0,23.262,3Zm0,21.391a5.629,5.629,0,1,1,5.629-5.629A5.631,5.631,0,0,1,23.262,24.391Z"
                  transform="translate(363.188 248.882)" fill="#1c1c1a" />
                <path id="Icon_material-keyboard-arrow-right-3"
                  data-name="Icon material-keyboard-arrow-right"
                  d="M12.885,52.665,31.932,33.577,12.885,14.489l5.864-5.864L43.7,33.577,18.749,58.529Z"
                  transform="translate(1246.436 167.088)" fill="#1c1c1a" />
                <line id="Line_1-3" data-name="Line 1" x2="1372.761"
                  transform="translate(1.83 375.221)" fill="none" stroke="#b24343" stroke-width="1"
                  opacity="0.272" />
                <text id="_0_4" data-name="0 / 4" transform="translate(138.865 209.187)"
                  fill="#1c1c1a" font-size="46" font-family="ArialMT, Arial">
                  <tspan x="0" y="0">0 / 4</tspan>
                </text>
                <g id="Event_locatie" data-name="Event locatie"
                  transform="translate(416.678 251.579)">
                  <text id="CrossFit_Kampen" data-name="SportBit Manager"
                    transform="translate(0 38)" fill="#1c1c1a" font-size="42"
                    font-family="ArialMT, Arial">
                    <tspan x="0" y="0" class="brandname">SportBit Manager</tspan>
                  </text>
                </g>
                <g id="Trainer_naam-3" data-name="Trainer naam"
                  transform="translate(370.678 171.579)">
                  <text id="Trainer-3" data-name="Trainer" transform="translate(0 44)"
                    fill="#041019" font-size="46" font-family="ArialMT, Arial">
                    <tspan x="0" y="0" class="trainer">Trainer</tspan>
                  </text>
                </g>
                <g id="Workout_naam_2-2" data-name="Workout naam 2"
                  transform="translate(795.678 68.579)">
                  <g id="Workout_naam-2" data-name="Workout naam">
                    <g id="Event_afkorting-2" data-name="Event afkorting">
                      <g id="Group_1671-2" data-name="Group 1671"
                        transform="translate(0.134 -0.643)">
                        <rect id="Rectangle_15-2" data-name="Rectangle 15" width="250" height="80"
                          rx="8" transform="translate(-0.134 0.643)" fill="#e0e0e0" />
                        <text id="groepsles-2" data-name="groepsles"
                          transform="translate(31.866 55.643)" fill="#041019" font-size="41"
                          font-family="ArialMT, Arial">
                          <tspan x="0" y="0">groepsles</tspan>
                        </text>
                      </g>
                    </g>
                  </g>
                </g>
              </g>
              <g id="Group_7-3" data-name="Group 7" transform="translate(0 2194.365)">
                <rect id="Rectangle_142-4" data-name="Rectangle 142" width="1372.761"
                  height="375.221" fill="#fff" />
                <path id="Path_1499" data-name="Path 1499" d="M0,0H230.624V230.624H0Z"
                  transform="translate(69.553 76.875)" fill="#9fc546" />
                <text id="_09:00_-_10:00" data-name="09:00 - 10:00"
                  transform="translate(547.73 130.214)" fill="#1c1c1a" font-size="60"
                  font-family="ArialMT, Arial">
                  <tspan x="-176.807" y="0">09:00 - 10:00</tspan>
                </text>
                <path id="Icon_material-location-on-5" data-name="Icon material-location-on"
                  d="M23.262,3A15.75,15.75,0,0,0,7.5,18.762c0,11.821,15.762,29.272,15.762,29.272S39.024,30.583,39.024,18.762A15.75,15.75,0,0,0,23.262,3Zm0,21.391a5.629,5.629,0,1,1,5.629-5.629A5.631,5.631,0,0,1,23.262,24.391Z"
                  transform="translate(363.188 248.882)" fill="#1c1c1a" />
                <path id="Icon_material-keyboard-arrow-right-4"
                  data-name="Icon material-keyboard-arrow-right"
                  d="M12.885,52.665,31.932,33.577,12.885,14.489l5.864-5.864L43.7,33.577,18.749,58.529Z"
                  transform="translate(1246.436 167.088)" fill="#1c1c1a" />
                <line id="Line_1-4" data-name="Line 1" x2="1372.761"
                  transform="translate(1.83 375.221)" fill="none" stroke="#b24343" stroke-width="1"
                  opacity="0.272" />
                <text id="_5_12" data-name="5 / 12" transform="translate(120.803 208.731)"
                  fill="#1c1c1a" font-size="46" font-family="ArialMT, Arial">
                  <tspan x="0" y="0">5 / 12</tspan>
                </text>
                <g id="Group_1674" data-name="Group 1674" transform="translate(783.389 68.071)">
                  <g id="Workout_naam-3" data-name="Workout naam"
                    transform="translate(-0.134 -0.357)">
                    <g id="Event_afkorting-3" data-name="Event afkorting">
                      <g id="Group_1671-3" data-name="Group 1671"
                        transform="translate(0.134 -0.643)">
                        <rect id="Rectangle_15-3" data-name="Rectangle 15" width="250" height="80"
                          rx="8" transform="translate(-0.134 0.643)" fill="#e0e0e0" />
                        <text id="groepsles-3" data-name="groepsles"
                          transform="translate(31.866 55.643)" fill="#041019" font-size="41"
                          font-family="ArialMT, Arial">
                          <tspan x="0" y="0">groepsles</tspan>
                        </text>
                      </g>
                    </g>
                  </g>
                </g>
                <g id="Trainer_naam-4" data-name="Trainer naam"
                  transform="translate(369.678 160.527)">
                  <text id="Trainer-4" data-name="Trainer" transform="translate(0 44)"
                    fill="#041019" font-size="46" font-family="ArialMT, Arial">
                    <tspan x="0" y="0" class="trainer">Trainer</tspan>
                  </text>
                </g>
              </g>
              <g id="Group_7-4" data-name="Group 7" transform="translate(0 2571.416)">
                <rect id="Rectangle_142-5" data-name="Rectangle 142" width="1372.761"
                  height="375.221" transform="translate(0 0)" fill="#fff" />
                <path id="Path_1500" data-name="Path 1500" d="M0,0H230.624V230.624H0Z"
                  transform="translate(69.553 76.875)" fill="#9fc546" />
                <text id="_10:00_-_11:00" data-name="10:00 - 11:00"
                  transform="translate(547.73 130.214)" fill="#1c1c1a" font-size="60"
                  font-family="ArialMT, Arial">
                  <tspan x="-174.58" y="0">10:00 - 11:00</tspan>
                </text>
                <path id="Icon_material-location-on-6" data-name="Icon material-location-on"
                  d="M23.262,3A15.75,15.75,0,0,0,7.5,18.762c0,11.821,15.762,29.272,15.762,29.272S39.024,30.583,39.024,18.762A15.75,15.75,0,0,0,23.262,3Zm0,21.391a5.629,5.629,0,1,1,5.629-5.629A5.631,5.631,0,0,1,23.262,24.391Z"
                  transform="translate(363.188 248.882)" fill="#1c1c1a" />
                <path id="Icon_material-keyboard-arrow-right-5"
                  data-name="Icon material-keyboard-arrow-right"
                  d="M12.885,52.665,31.932,33.577,12.885,14.489l5.864-5.864L43.7,33.577,18.749,58.529Z"
                  transform="translate(1246.436 167.088)" fill="#1c1c1a" />
                <line id="Line_1-5" data-name="Line 1" x2="1372.761"
                  transform="translate(1.83 375.221)" fill="none" stroke="#b24343" stroke-width="1"
                  opacity="0.272" />
                <text id="_0_12" data-name="0 / 12" transform="translate(120.803 208.731)"
                  fill="#1c1c1a" font-size="46" font-family="ArialMT, Arial">
                  <tspan x="0" y="0">0 / 12</tspan>
                </text>
                <g id="Event_locatie-2" data-name="Event locatie"
                  transform="translate(416.678 251.475)">
                  <text id="CrossFit_Kampen-2" data-name="SportBit Manager"
                    transform="translate(0 38)" fill="#1c1c1a" font-size="42"
                    font-family="ArialMT, Arial">
                    <tspan x="0" y="0" class="brandname">SportBit Manager</tspan>
                  </text>
                </g>
                <g id="Trainer_naam-5" data-name="Trainer naam"
                  transform="translate(370.678 165.475)">
                  <text id="Trainer-5" data-name="Trainer" transform="translate(0 44)"
                    fill="#041019" font-size="46" font-family="ArialMT, Arial">
                    <tspan x="0" y="0" class="trainer">Trainer</tspan>
                  </text>
                </g>
                <g id="Workout_naam_2-3" data-name="Workout naam 2"
                  transform="translate(795.678 73.475)">
                  <g id="Workout_naam-4" data-name="Workout naam">
                    <g id="Event_afkorting-4" data-name="Event afkorting">
                      <g id="Group_1671-4" data-name="Group 1671"
                        transform="translate(0.134 -0.643)">
                        <rect id="Rectangle_15-4" data-name="Rectangle 15" width="250" height="80"
                          rx="8" transform="translate(-0.134 0.643)" fill="#e0e0e0" />
                        <text id="groepsles-4" data-name="groepsles"
                          transform="translate(31.866 55.643)" fill="#041019" font-size="41"
                          font-family="ArialMT, Arial">
                          <tspan x="0" y="0">groepsles</tspan>
                        </text>
                      </g>
                    </g>
                  </g>
                </g>
              </g>
              <g id="Group_7-5" data-name="Group 7" transform="translate(0 2948.468)">
                <rect id="Rectangle_142-6" data-name="Rectangle 142" width="1372.761"
                  height="375.221" transform="translate(0 0)" fill="#fff" />
                <rect id="Rectangle_14" data-name="Rectangle 14" width="230.624" height="230.624"
                  transform="translate(69.553 76.875)" fill="#1c1c1a" />
                <text id="_06:00_-_07:00-2" data-name="06:00 - 07:00"
                  transform="translate(547.73 130.214)" fill="#1c1c1a" font-size="60"
                  font-family="ArialMT, Arial">
                  <tspan x="-176.807" y="0">06:00 - 07:00</tspan>
                </text>
                <text id="Tamara" transform="translate(369.73 208.731)" fill="#1c1c1a"
                  font-size="46" font-family="ArialMT, Arial">
                  <tspan x="0" y="0">Tamara</tspan>
                </text>
                <text id="Hoofdruimte" transform="translate(424.641 292.588)" fill="#1c1c1a"
                  font-size="42" font-family="ArialMT, Arial">
                  <tspan x="0" y="0">Hoofdruimte</tspan>
                </text>
                <path id="Icon_material-location-on-7" data-name="Icon material-location-on"
                  d="M23.262,3A15.75,15.75,0,0,0,7.5,18.762c0,11.821,15.762,29.272,15.762,29.272S39.024,30.583,39.024,18.762A15.75,15.75,0,0,0,23.262,3Zm0,21.391a5.629,5.629,0,1,1,5.629-5.629A5.631,5.631,0,0,1,23.262,24.391Z"
                  transform="translate(363.188 248.882)" fill="#1c1c1a" />
                <path id="Icon_material-keyboard-arrow-right-6"
                  data-name="Icon material-keyboard-arrow-right"
                  d="M12.885,52.665,31.932,33.577,12.885,14.489l5.864-5.864L43.7,33.577,18.749,58.529Z"
                  transform="translate(1246.436 167.088)" fill="#1c1c1a" />
                <line id="Line_1-6" data-name="Line 1" x2="1372.761"
                  transform="translate(1.83 375.221)" fill="none" stroke="#b24343" stroke-width="1"
                  opacity="0.272" />
                <g id="Group_10" data-name="Group 10" transform="translate(783.389 69.553)">
                  <rect id="Rectangle_15-5" data-name="Rectangle 15" width="164.731" height="80.535"
                    rx="8" fill="#041019" />
                  <text id="WOD" transform="translate(82.366 55.767)" fill="#1c1c1a" font-size="41"
                    font-family="Arial-BoldMT, Arial" font-weight="700">
                    <tspan x="-50.099" y="0">WOD</tspan>
                  </text>
                </g>
                <text id="_0_14" data-name="0 / 14" transform="translate(120.803 208.731)"
                  fill="#fff" font-size="46" font-family="ArialMT, Arial">
                  <tspan x="0" y="0">0 / 14</tspan>
                </text>
              </g>
              <path id="Icon_awesome-user-friends" data-name="Icon awesome-user-friends"
                d="M24.91,31.312A14.531,14.531,0,1,0,10.379,16.781,14.524,14.524,0,0,0,24.91,31.312Zm9.964,4.152H33.8a20.062,20.062,0,0,1-17.774,0H14.946A14.95,14.95,0,0,0,0,50.409v3.737a6.229,6.229,0,0,0,6.227,6.227H43.592a6.229,6.229,0,0,0,6.227-6.227V50.409A14.95,14.95,0,0,0,34.874,35.463Zm27.4-4.152A12.455,12.455,0,1,0,49.82,18.857,12.458,12.458,0,0,0,62.275,31.312ZM68.5,35.463h-.493a16.36,16.36,0,0,1-11.469,0h-.493a14.41,14.41,0,0,0-7.226,2,18.987,18.987,0,0,1,5.151,12.948v4.982c0,.285-.065.558-.078.83H76.806a6.229,6.229,0,0,0,6.228-6.227A14.524,14.524,0,0,0,68.5,35.463Z"
                transform="translate(1084.149 1233.46)" fill="#1c1c1a" />
              <path id="Icon_awesome-user-friends-2" data-name="Icon awesome-user-friends"
                d="M24.91,31.312A14.531,14.531,0,1,0,10.379,16.781,14.524,14.524,0,0,0,24.91,31.312Zm9.964,4.152H33.8a20.062,20.062,0,0,1-17.774,0H14.946A14.95,14.95,0,0,0,0,50.409v3.737a6.229,6.229,0,0,0,6.227,6.227H43.592a6.229,6.229,0,0,0,6.227-6.227V50.409A14.95,14.95,0,0,0,34.874,35.463Zm27.4-4.152A12.455,12.455,0,1,0,49.82,18.857,12.458,12.458,0,0,0,62.275,31.312ZM68.5,35.463h-.493a16.36,16.36,0,0,1-11.469,0h-.493a14.41,14.41,0,0,0-7.226,2,18.987,18.987,0,0,1,5.151,12.948v4.982c0,.285-.065.558-.078.83H76.806a6.229,6.229,0,0,0,6.228-6.227A14.524,14.524,0,0,0,68.5,35.463Z"
                transform="translate(1084.149 1987.564)" fill="#1c1c1a" />
              <g id="Workout_naam-5" data-name="Workout naam"
                transform="translate(785.255 1136.476)">
                <g id="Event_afkorting-5" data-name="Event afkorting">
                  <g id="Group_1671-5" data-name="Group 1671" transform="translate(0.134 -0.643)">
                    <rect id="Rectangle_15-6" data-name="Rectangle 15" width="250" height="80"
                      rx="8" transform="translate(-0.134 0.643)" fill="#e0e0e0" />
                    <text id="groepsles-5" data-name="groepsles"
                      transform="translate(31.866 55.643)" fill="#041019" font-size="41"
                      font-family="ArialMT, Arial">
                      <tspan x="0" y="0">groepsles</tspan>
                    </text>
                  </g>
                </g>
              </g>
              <g id="Event_locatie-3" data-name="Event locatie"
                transform="translate(415.678 2442.892)">
                <text id="CrossFit_Kampen-3" data-name="SportBit Manager"
                  transform="translate(0 38)" fill="#1c1c1a" font-size="42"
                  font-family="ArialMT, Arial">
                  <tspan x="0" y="0" class="brandname">SportBit Manager</tspan>
                </text>
              </g>
            </g>
            <g id="Event_locatie-4" data-name="Event locatie" transform="translate(419.711 1313.79)">
              <text id="CrossFit_Kampen-4" data-name="SportBit Manager" transform="translate(0 38)"
                fill="#1c1c1a" font-size="42" font-family="ArialMT, Arial">
                <tspan x="0" y="0" class="brandname">SportBit Manager</tspan>
              </text>
            </g>
            <g id="Event_locatie-5" data-name="Event locatie" transform="translate(419.711 1691.79)">
              <text id="CrossFit_Kampen-5" data-name="SportBit Manager" transform="translate(0 38)"
                fill="#1c1c1a" font-size="42" font-family="ArialMT, Arial">
                <tspan x="0" y="0" class="brandname">SportBit Manager</tspan>
              </text>
            </g>
          </g>
        </g>
      </g>
      <path id="Subtraction_5" data-name="Subtraction 5"
        d="M1234.9,3007.4H203.974A203.026,203.026,0,0,1,89.93,2972.569a204.579,204.579,0,0,1-73.9-89.743A202.7,202.7,0,0,1,0,2803.43V203.97A203,203,0,0,1,34.835,89.93a204.535,204.535,0,0,1,89.743-73.9A202.715,202.715,0,0,1,203.974,0H1234.9a203.04,203.04,0,0,1,114.043,34.834,204.594,204.594,0,0,1,73.9,89.742,202.7,202.7,0,0,1,16.029,79.394V2803.43a203.015,203.015,0,0,1-34.835,114.044,204.557,204.557,0,0,1-89.741,73.9A202.7,202.7,0,0,1,1234.9,3007.4ZM189.834,42.369h0a84.036,84.036,0,0,0-13.246,1c-.938.081-9.131.808-12.588,1.782-1.224.34-2.593.683-4.044,1.048a111.021,111.021,0,0,0-13.371,4.007l-1.718.664C131.9,55.877,115.767,62.109,99.29,75.39a133.147,133.147,0,0,0-24.272,25.8,183.479,183.479,0,0,0-21.527,40.3C44.9,163.354,43.428,189.151,42,214.1q-.139,2.426-.278,4.834c.153,33.469.122,62.534.069,81.023-.452,4.861-.681,9.806-.681,14.7v2495.1a156.407,156.407,0,0,0,156.536,156.537H1244.388a156.407,156.407,0,0,0,156.54-156.537V315.359h.271l-3.742-133.381c-.027-.261-2.759-26.146-9.3-40.857a226.033,226.033,0,0,0-12.428-24.464,145.911,145.911,0,0,0-18.637-24.95c-10.476-11.242-24.981-21.917-41.945-30.871-4.663-2.461-21.091-10.814-36.71-14.944-4.579-1.213-4.876-1.235-6.527-1.351l-.051,0c-.688-.049-1.629-.116-3.2-.291-5.392-.6-11.858-.78-11.92-.782l-190.027-.459c-.067,0-.3-.019-.652-.019-2.581,0-11.044.689-11.582,9.556a65.328,65.328,0,0,0,.7,11.444c.461,3.848.9,7.483.522,10.329-2.229,16.92-5.862,23.77-13.213,36.454a68.443,68.443,0,0,1-12.158,15.582,53.142,53.142,0,0,1-11.782,8.464A36.746,36.746,0,0,1,1006.126,139l-.053.017.021-.016c-.1.041-.135.052-.138.055s.07-.022.117-.039c-3.2,1.655-7.573,2.517-11.083,3.211a75.58,75.58,0,0,1-11.879.9h-.038l-508.079.706h-.006c-.332,0-11.831-.022-19.45-.6a61.22,61.22,0,0,1-11.619-1.75A83.176,83.176,0,0,1,426.54,134.2,79.212,79.212,0,0,1,411.6,123.6a61.972,61.972,0,0,1-13.084-16.549c-6.667-12.432-9.64-28.863-10.961-40.459-.223-1.956-.4-3.731-.58-5.446l-.005-.052c-.716-7.022-1.19-11.662-3.184-14.557s-5.447-4.036-12.3-4.036H369.3c-9.931,0-41.446-.028-70.965-.055C257.183,42.411,210.544,42.371,189.834,42.369Z"
        transform="translate(601.262 183.185)" />
      <rect id="Rectangle_81" data-name="Rectangle 81" width="160.091" height="35.33" rx="17.665"
        transform="translate(1244.555 239.111)" fill="#fff" opacity="0.22" />
      <ellipse id="Ellipse_27" data-name="Ellipse 27" cx="26.498" cy="29.81" rx="26.498" ry="29.81"
        transform="translate(1434.456 226.966)" fill="#fff" opacity="0.22" />
    </g>
  </g>
</svg>